<?xml version="1.0" encoding="utf-8" standalone="no"?>
<!DOCTYPE svg PUBLIC "-//W3C//DTD SVG 1.1//EN"
  "http://www.w3.org/Graphics/SVG/1.1/DTD/svg11.dtd">
<!-- Created with matplotlib (http://matplotlib.org/) -->
<svg height="567.36pt" version="1.1" viewBox="0 0 757.44 567.36" width="757.44pt" xmlns="http://www.w3.org/2000/svg" xmlns:xlink="http://www.w3.org/1999/xlink">
 <defs>
  <style type="text/css">
*{stroke-linecap:butt;stroke-linejoin:round;}
  </style>
 </defs>
 <g id="figure_1">
  <g id="patch_1">
   <path d="M 0 567.36 
L 757.44 567.36 
L 757.44 0 
L 0 0 
z
" style="fill:#ffffff;"/>
  </g>
  <g id="axes_1">
   <g id="patch_2">
    <path d="M 59.513143 513.325714 
L 696.123429 513.325714 
L 696.123429 55.385143 
L 59.513143 55.385143 
z
" style="fill:#ffffff;"/>
   </g>
   <g id="matplotlib.axis_1">
    <g id="xtick_1">
     <g id="line2d_1">
      <defs>
       <path d="M 0 0 
L 0 3.5 
" id="m1b4992d5d9" style="stroke:#000000;stroke-width:0.8;"/>
      </defs>
      <g>
       <use style="stroke:#000000;stroke-width:0.8;" x="124.621013" xlink:href="#m1b4992d5d9" y="513.325714"/>
      </g>
     </g>
     <g id="text_1">
      <!-- $\mathdefault{2^{13}}$ -->
      <defs>
       <path d="M 19.1875 8.296875 
L 53.609375 8.296875 
L 53.609375 0 
L 7.328125 0 
L 7.328125 8.296875 
Q 12.9375 14.109375 22.625 23.890625 
Q 32.328125 33.6875 34.8125 36.53125 
Q 39.546875 41.84375 41.421875 45.53125 
Q 43.3125 49.21875 43.3125 52.78125 
Q 43.3125 58.59375 39.234375 62.25 
Q 35.15625 65.921875 28.609375 65.921875 
Q 23.96875 65.921875 18.8125 64.3125 
Q 13.671875 62.703125 7.8125 59.421875 
L 7.8125 69.390625 
Q 13.765625 71.78125 18.9375 73 
Q 24.125 74.21875 28.421875 74.21875 
Q 39.75 74.21875 46.484375 68.546875 
Q 53.21875 62.890625 53.21875 53.421875 
Q 53.21875 48.921875 51.53125 44.890625 
Q 49.859375 40.875 45.40625 35.40625 
Q 44.1875 33.984375 37.640625 27.21875 
Q 31.109375 20.453125 19.1875 8.296875 
z
" id="DejaVuSans-32"/>
       <path d="M 12.40625 8.296875 
L 28.515625 8.296875 
L 28.515625 63.921875 
L 10.984375 60.40625 
L 10.984375 69.390625 
L 28.421875 72.90625 
L 38.28125 72.90625 
L 38.28125 8.296875 
L 54.390625 8.296875 
L 54.390625 0 
L 12.40625 0 
z
" id="DejaVuSans-31"/>
       <path d="M 40.578125 39.3125 
Q 47.65625 37.796875 51.625 33 
Q 55.609375 28.21875 55.609375 21.1875 
Q 55.609375 10.40625 48.1875 4.484375 
Q 40.765625 -1.421875 27.09375 -1.421875 
Q 22.515625 -1.421875 17.65625 -0.515625 
Q 12.796875 0.390625 7.625 2.203125 
L 7.625 11.71875 
Q 11.71875 9.328125 16.59375 8.109375 
Q 21.484375 6.890625 26.8125 6.890625 
Q 36.078125 6.890625 40.9375 10.546875 
Q 45.796875 14.203125 45.796875 21.1875 
Q 45.796875 27.640625 41.28125 31.265625 
Q 36.765625 34.90625 28.71875 34.90625 
L 20.21875 34.90625 
L 20.21875 43.015625 
L 29.109375 43.015625 
Q 36.375 43.015625 40.234375 45.921875 
Q 44.09375 48.828125 44.09375 54.296875 
Q 44.09375 59.90625 40.109375 62.90625 
Q 36.140625 65.921875 28.71875 65.921875 
Q 24.65625 65.921875 20.015625 65.03125 
Q 15.375 64.15625 9.8125 62.3125 
L 9.8125 71.09375 
Q 15.4375 72.65625 20.34375 73.4375 
Q 25.25 74.21875 29.59375 74.21875 
Q 40.828125 74.21875 47.359375 69.109375 
Q 53.90625 64.015625 53.90625 55.328125 
Q 53.90625 49.265625 50.4375 45.09375 
Q 46.96875 40.921875 40.578125 39.3125 
z
" id="DejaVuSans-33"/>
      </defs>
      <g transform="translate(110.491013 534.002902)scale(0.18 -0.18)">
       <use transform="translate(0 0.765625)" xlink:href="#DejaVuSans-32"/>
       <use transform="translate(64.580078 39.046875)scale(0.7)" xlink:href="#DejaVuSans-31"/>
       <use transform="translate(109.116211 39.046875)scale(0.7)" xlink:href="#DejaVuSans-33"/>
      </g>
     </g>
    </g>
    <g id="xtick_2">
     <g id="line2d_2">
      <g>
       <use style="stroke:#000000;stroke-width:0.8;" x="196.963091" xlink:href="#m1b4992d5d9" y="513.325714"/>
      </g>
     </g>
     <g id="text_2">
      <!-- $\mathdefault{2^{15}}$ -->
      <defs>
       <path d="M 10.796875 72.90625 
L 49.515625 72.90625 
L 49.515625 64.59375 
L 19.828125 64.59375 
L 19.828125 46.734375 
Q 21.96875 47.46875 24.109375 47.828125 
Q 26.265625 48.1875 28.421875 48.1875 
Q 40.625 48.1875 47.75 41.5 
Q 54.890625 34.8125 54.890625 23.390625 
Q 54.890625 11.625 47.5625 5.09375 
Q 40.234375 -1.421875 26.90625 -1.421875 
Q 22.3125 -1.421875 17.546875 -0.640625 
Q 12.796875 0.140625 7.71875 1.703125 
L 7.71875 11.625 
Q 12.109375 9.234375 16.796875 8.0625 
Q 21.484375 6.890625 26.703125 6.890625 
Q 35.15625 6.890625 40.078125 11.328125 
Q 45.015625 15.765625 45.015625 23.390625 
Q 45.015625 31 40.078125 35.4375 
Q 35.15625 39.890625 26.703125 39.890625 
Q 22.75 39.890625 18.8125 39.015625 
Q 14.890625 38.140625 10.796875 36.28125 
z
" id="DejaVuSans-35"/>
      </defs>
      <g transform="translate(182.833091 534.002902)scale(0.18 -0.18)">
       <use transform="translate(0 0.684375)" xlink:href="#DejaVuSans-32"/>
       <use transform="translate(64.580078 38.965625)scale(0.7)" xlink:href="#DejaVuSans-31"/>
       <use transform="translate(109.116211 38.965625)scale(0.7)" xlink:href="#DejaVuSans-35"/>
      </g>
     </g>
    </g>
    <g id="xtick_3">
     <g id="line2d_3">
      <g>
       <use style="stroke:#000000;stroke-width:0.8;" x="269.305169" xlink:href="#m1b4992d5d9" y="513.325714"/>
      </g>
     </g>
     <g id="text_3">
      <!-- $\mathdefault{2^{17}}$ -->
      <defs>
       <path d="M 8.203125 72.90625 
L 55.078125 72.90625 
L 55.078125 68.703125 
L 28.609375 0 
L 18.3125 0 
L 43.21875 64.59375 
L 8.203125 64.59375 
z
" id="DejaVuSans-37"/>
      </defs>
      <g transform="translate(255.175169 534.002902)scale(0.18 -0.18)">
       <use transform="translate(0 0.684375)" xlink:href="#DejaVuSans-32"/>
       <use transform="translate(64.580078 38.965625)scale(0.7)" xlink:href="#DejaVuSans-31"/>
       <use transform="translate(109.116211 38.965625)scale(0.7)" xlink:href="#DejaVuSans-37"/>
      </g>
     </g>
    </g>
    <g id="xtick_4">
     <g id="line2d_4">
      <g>
       <use style="stroke:#000000;stroke-width:0.8;" x="341.647247" xlink:href="#m1b4992d5d9" y="513.325714"/>
      </g>
     </g>
     <g id="text_4">
      <!-- $\mathdefault{2^{19}}$ -->
      <defs>
       <path d="M 10.984375 1.515625 
L 10.984375 10.5 
Q 14.703125 8.734375 18.5 7.8125 
Q 22.3125 6.890625 25.984375 6.890625 
Q 35.75 6.890625 40.890625 13.453125 
Q 46.046875 20.015625 46.78125 33.40625 
Q 43.953125 29.203125 39.59375 26.953125 
Q 35.25 24.703125 29.984375 24.703125 
Q 19.046875 24.703125 12.671875 31.3125 
Q 6.296875 37.9375 6.296875 49.421875 
Q 6.296875 60.640625 12.9375 67.421875 
Q 19.578125 74.21875 30.609375 74.21875 
Q 43.265625 74.21875 49.921875 64.515625 
Q 56.59375 54.828125 56.59375 36.375 
Q 56.59375 19.140625 48.40625 8.859375 
Q 40.234375 -1.421875 26.421875 -1.421875 
Q 22.703125 -1.421875 18.890625 -0.6875 
Q 15.09375 0.046875 10.984375 1.515625 
z
M 30.609375 32.421875 
Q 37.25 32.421875 41.125 36.953125 
Q 45.015625 41.5 45.015625 49.421875 
Q 45.015625 57.28125 41.125 61.84375 
Q 37.25 66.40625 30.609375 66.40625 
Q 23.96875 66.40625 20.09375 61.84375 
Q 16.21875 57.28125 16.21875 49.421875 
Q 16.21875 41.5 20.09375 36.953125 
Q 23.96875 32.421875 30.609375 32.421875 
z
" id="DejaVuSans-39"/>
      </defs>
      <g transform="translate(327.517247 534.002902)scale(0.18 -0.18)">
       <use transform="translate(0 0.765625)" xlink:href="#DejaVuSans-32"/>
       <use transform="translate(64.580078 39.046875)scale(0.7)" xlink:href="#DejaVuSans-31"/>
       <use transform="translate(109.116211 39.046875)scale(0.7)" xlink:href="#DejaVuSans-39"/>
      </g>
     </g>
    </g>
    <g id="xtick_5">
     <g id="line2d_5">
      <g>
       <use style="stroke:#000000;stroke-width:0.8;" x="413.989325" xlink:href="#m1b4992d5d9" y="513.325714"/>
      </g>
     </g>
     <g id="text_5">
      <!-- $\mathdefault{2^{21}}$ -->
      <g transform="translate(399.859325 534.002902)scale(0.18 -0.18)">
       <use transform="translate(0 0.765625)" xlink:href="#DejaVuSans-32"/>
       <use transform="translate(64.580078 39.046875)scale(0.7)" xlink:href="#DejaVuSans-32"/>
       <use transform="translate(109.116211 39.046875)scale(0.7)" xlink:href="#DejaVuSans-31"/>
      </g>
     </g>
    </g>
    <g id="xtick_6">
     <g id="line2d_6">
      <g>
       <use style="stroke:#000000;stroke-width:0.8;" x="486.331403" xlink:href="#m1b4992d5d9" y="513.325714"/>
      </g>
     </g>
     <g id="text_6">
      <!-- $\mathdefault{2^{23}}$ -->
      <g transform="translate(472.201403 534.002902)scale(0.18 -0.18)">
       <use transform="translate(0 0.765625)" xlink:href="#DejaVuSans-32"/>
       <use transform="translate(64.580078 39.046875)scale(0.7)" xlink:href="#DejaVuSans-32"/>
       <use transform="translate(109.116211 39.046875)scale(0.7)" xlink:href="#DejaVuSans-33"/>
      </g>
     </g>
    </g>
    <g id="xtick_7">
     <g id="line2d_7">
      <g>
       <use style="stroke:#000000;stroke-width:0.8;" x="558.673481" xlink:href="#m1b4992d5d9" y="513.325714"/>
      </g>
     </g>
     <g id="text_7">
      <!-- $\mathdefault{2^{25}}$ -->
      <g transform="translate(544.543481 534.002902)scale(0.18 -0.18)">
       <use transform="translate(0 0.765625)" xlink:href="#DejaVuSans-32"/>
       <use transform="translate(64.580078 39.046875)scale(0.7)" xlink:href="#DejaVuSans-32"/>
       <use transform="translate(109.116211 39.046875)scale(0.7)" xlink:href="#DejaVuSans-35"/>
      </g>
     </g>
    </g>
    <g id="xtick_8">
     <g id="line2d_8">
      <g>
       <use style="stroke:#000000;stroke-width:0.8;" x="631.015558" xlink:href="#m1b4992d5d9" y="513.325714"/>
      </g>
     </g>
     <g id="text_8">
      <!-- $\mathdefault{2^{27}}$ -->
      <g transform="translate(616.885558 534.002902)scale(0.18 -0.18)">
       <use transform="translate(0 0.765625)" xlink:href="#DejaVuSans-32"/>
       <use transform="translate(64.580078 39.046875)scale(0.7)" xlink:href="#DejaVuSans-32"/>
       <use transform="translate(109.116211 39.046875)scale(0.7)" xlink:href="#DejaVuSans-37"/>
      </g>
     </g>
    </g>
    <g id="text_9">
     <!-- size (B) -->
     <defs>
      <path d="M 44.28125 53.078125 
L 44.28125 44.578125 
Q 40.484375 46.53125 36.375 47.5 
Q 32.28125 48.484375 27.875 48.484375 
Q 21.1875 48.484375 17.84375 46.4375 
Q 14.5 44.390625 14.5 40.28125 
Q 14.5 37.15625 16.890625 35.375 
Q 19.28125 33.59375 26.515625 31.984375 
L 29.59375 31.296875 
Q 39.15625 29.25 43.1875 25.515625 
Q 47.21875 21.78125 47.21875 15.09375 
Q 47.21875 7.46875 41.1875 3.015625 
Q 35.15625 -1.421875 24.609375 -1.421875 
Q 20.21875 -1.421875 15.453125 -0.5625 
Q 10.6875 0.296875 5.421875 2 
L 5.421875 11.28125 
Q 10.40625 8.6875 15.234375 7.390625 
Q 20.0625 6.109375 24.8125 6.109375 
Q 31.15625 6.109375 34.5625 8.28125 
Q 37.984375 10.453125 37.984375 14.40625 
Q 37.984375 18.0625 35.515625 20.015625 
Q 33.0625 21.96875 24.703125 23.78125 
L 21.578125 24.515625 
Q 13.234375 26.265625 9.515625 29.90625 
Q 5.8125 33.546875 5.8125 39.890625 
Q 5.8125 47.609375 11.28125 51.796875 
Q 16.75 56 26.8125 56 
Q 31.78125 56 36.171875 55.265625 
Q 40.578125 54.546875 44.28125 53.078125 
z
" id="DejaVuSans-73"/>
      <path d="M 9.421875 54.6875 
L 18.40625 54.6875 
L 18.40625 0 
L 9.421875 0 
z
M 9.421875 75.984375 
L 18.40625 75.984375 
L 18.40625 64.59375 
L 9.421875 64.59375 
z
" id="DejaVuSans-69"/>
      <path d="M 5.515625 54.6875 
L 48.1875 54.6875 
L 48.1875 46.484375 
L 14.40625 7.171875 
L 48.1875 7.171875 
L 48.1875 0 
L 4.296875 0 
L 4.296875 8.203125 
L 38.09375 47.515625 
L 5.515625 47.515625 
z
" id="DejaVuSans-7a"/>
      <path d="M 56.203125 29.59375 
L 56.203125 25.203125 
L 14.890625 25.203125 
Q 15.484375 15.921875 20.484375 11.0625 
Q 25.484375 6.203125 34.421875 6.203125 
Q 39.59375 6.203125 44.453125 7.46875 
Q 49.3125 8.734375 54.109375 11.28125 
L 54.109375 2.78125 
Q 49.265625 0.734375 44.1875 -0.34375 
Q 39.109375 -1.421875 33.890625 -1.421875 
Q 20.796875 -1.421875 13.15625 6.1875 
Q 5.515625 13.8125 5.515625 26.8125 
Q 5.515625 40.234375 12.765625 48.109375 
Q 20.015625 56 32.328125 56 
Q 43.359375 56 49.78125 48.890625 
Q 56.203125 41.796875 56.203125 29.59375 
z
M 47.21875 32.234375 
Q 47.125 39.59375 43.09375 43.984375 
Q 39.0625 48.390625 32.421875 48.390625 
Q 24.90625 48.390625 20.390625 44.140625 
Q 15.875 39.890625 15.1875 32.171875 
z
" id="DejaVuSans-65"/>
      <path id="DejaVuSans-20"/>
      <path d="M 31 75.875 
Q 24.46875 64.65625 21.28125 53.65625 
Q 18.109375 42.671875 18.109375 31.390625 
Q 18.109375 20.125 21.3125 9.0625 
Q 24.515625 -2 31 -13.1875 
L 23.1875 -13.1875 
Q 15.875 -1.703125 12.234375 9.375 
Q 8.59375 20.453125 8.59375 31.390625 
Q 8.59375 42.28125 12.203125 53.3125 
Q 15.828125 64.359375 23.1875 75.875 
z
" id="DejaVuSans-28"/>
      <path d="M 19.671875 34.8125 
L 19.671875 8.109375 
L 35.5 8.109375 
Q 43.453125 8.109375 47.28125 11.40625 
Q 51.125 14.703125 51.125 21.484375 
Q 51.125 28.328125 47.28125 31.5625 
Q 43.453125 34.8125 35.5 34.8125 
z
M 19.671875 64.796875 
L 19.671875 42.828125 
L 34.28125 42.828125 
Q 41.5 42.828125 45.03125 45.53125 
Q 48.578125 48.25 48.578125 53.8125 
Q 48.578125 59.328125 45.03125 62.0625 
Q 41.5 64.796875 34.28125 64.796875 
z
M 9.8125 72.90625 
L 35.015625 72.90625 
Q 46.296875 72.90625 52.390625 68.21875 
Q 58.5 63.53125 58.5 54.890625 
Q 58.5 48.1875 55.375 44.234375 
Q 52.25 40.28125 46.1875 39.3125 
Q 53.46875 37.75 57.5 32.78125 
Q 61.53125 27.828125 61.53125 20.40625 
Q 61.53125 10.640625 54.890625 5.3125 
Q 48.25 0 35.984375 0 
L 9.8125 0 
z
" id="DejaVuSans-42"/>
      <path d="M 8.015625 75.875 
L 15.828125 75.875 
Q 23.140625 64.359375 26.78125 53.3125 
Q 30.421875 42.28125 30.421875 31.390625 
Q 30.421875 20.453125 26.78125 9.375 
Q 23.140625 -1.703125 15.828125 -13.1875 
L 8.015625 -13.1875 
Q 14.5 -2 17.703125 9.0625 
Q 20.90625 20.125 20.90625 31.390625 
Q 20.90625 42.671875 17.703125 53.65625 
Q 14.5 64.65625 8.015625 75.875 
z
" id="DejaVuSans-29"/>
     </defs>
     <g transform="translate(336.863911 558.462902)scale(0.22 -0.22)">
      <use xlink:href="#DejaVuSans-73"/>
      <use x="52.099609" xlink:href="#DejaVuSans-69"/>
      <use x="79.882812" xlink:href="#DejaVuSans-7a"/>
      <use x="132.373047" xlink:href="#DejaVuSans-65"/>
      <use x="193.896484" xlink:href="#DejaVuSans-20"/>
      <use x="225.683594" xlink:href="#DejaVuSans-28"/>
      <use x="264.697266" xlink:href="#DejaVuSans-42"/>
      <use x="333.300781" xlink:href="#DejaVuSans-29"/>
     </g>
    </g>
   </g>
   <g id="matplotlib.axis_2">
    <g id="ytick_1">
     <g id="line2d_9">
      <defs>
       <path d="M 0 0 
L -3.5 0 
" id="m13e0a50fef" style="stroke:#000000;stroke-width:0.8;"/>
      </defs>
      <g>
       <use style="stroke:#000000;stroke-width:0.8;" x="59.513143" xlink:href="#m13e0a50fef" y="502.644996"/>
      </g>
     </g>
     <g id="text_10">
      <!-- 0 -->
      <defs>
       <path d="M 31.78125 66.40625 
Q 24.171875 66.40625 20.328125 58.90625 
Q 16.5 51.421875 16.5 36.375 
Q 16.5 21.390625 20.328125 13.890625 
Q 24.171875 6.390625 31.78125 6.390625 
Q 39.453125 6.390625 43.28125 13.890625 
Q 47.125 21.390625 47.125 36.375 
Q 47.125 51.421875 43.28125 58.90625 
Q 39.453125 66.40625 31.78125 66.40625 
z
M 31.78125 74.21875 
Q 44.046875 74.21875 50.515625 64.515625 
Q 56.984375 54.828125 56.984375 36.375 
Q 56.984375 17.96875 50.515625 8.265625 
Q 44.046875 -1.421875 31.78125 -1.421875 
Q 19.53125 -1.421875 13.0625 8.265625 
Q 6.59375 17.96875 6.59375 36.375 
Q 6.59375 54.828125 13.0625 64.515625 
Q 19.53125 74.21875 31.78125 74.21875 
z
" id="DejaVuSans-30"/>
      </defs>
      <g transform="translate(41.060643 509.483589)scale(0.18 -0.18)">
       <use xlink:href="#DejaVuSans-30"/>
      </g>
     </g>
    </g>
    <g id="ytick_2">
     <g id="line2d_10">
      <g>
       <use style="stroke:#000000;stroke-width:0.8;" x="59.513143" xlink:href="#m13e0a50fef" y="424.983986"/>
      </g>
     </g>
     <g id="text_11">
      <!-- 2 -->
      <g transform="translate(41.060643 431.822579)scale(0.18 -0.18)">
       <use xlink:href="#DejaVuSans-32"/>
      </g>
     </g>
    </g>
    <g id="ytick_3">
     <g id="line2d_11">
      <g>
       <use style="stroke:#000000;stroke-width:0.8;" x="59.513143" xlink:href="#m13e0a50fef" y="347.322976"/>
      </g>
     </g>
     <g id="text_12">
      <!-- 4 -->
      <defs>
       <path d="M 37.796875 64.3125 
L 12.890625 25.390625 
L 37.796875 25.390625 
z
M 35.203125 72.90625 
L 47.609375 72.90625 
L 47.609375 25.390625 
L 58.015625 25.390625 
L 58.015625 17.1875 
L 47.609375 17.1875 
L 47.609375 0 
L 37.796875 0 
L 37.796875 17.1875 
L 4.890625 17.1875 
L 4.890625 26.703125 
z
" id="DejaVuSans-34"/>
      </defs>
      <g transform="translate(41.060643 354.161569)scale(0.18 -0.18)">
       <use xlink:href="#DejaVuSans-34"/>
      </g>
     </g>
    </g>
    <g id="ytick_4">
     <g id="line2d_12">
      <g>
       <use style="stroke:#000000;stroke-width:0.8;" x="59.513143" xlink:href="#m13e0a50fef" y="269.661965"/>
      </g>
     </g>
     <g id="text_13">
      <!-- 6 -->
      <defs>
       <path d="M 33.015625 40.375 
Q 26.375 40.375 22.484375 35.828125 
Q 18.609375 31.296875 18.609375 23.390625 
Q 18.609375 15.53125 22.484375 10.953125 
Q 26.375 6.390625 33.015625 6.390625 
Q 39.65625 6.390625 43.53125 10.953125 
Q 47.40625 15.53125 47.40625 23.390625 
Q 47.40625 31.296875 43.53125 35.828125 
Q 39.65625 40.375 33.015625 40.375 
z
M 52.59375 71.296875 
L 52.59375 62.3125 
Q 48.875 64.0625 45.09375 64.984375 
Q 41.3125 65.921875 37.59375 65.921875 
Q 27.828125 65.921875 22.671875 59.328125 
Q 17.53125 52.734375 16.796875 39.40625 
Q 19.671875 43.65625 24.015625 45.921875 
Q 28.375 48.1875 33.59375 48.1875 
Q 44.578125 48.1875 50.953125 41.515625 
Q 57.328125 34.859375 57.328125 23.390625 
Q 57.328125 12.15625 50.6875 5.359375 
Q 44.046875 -1.421875 33.015625 -1.421875 
Q 20.359375 -1.421875 13.671875 8.265625 
Q 6.984375 17.96875 6.984375 36.375 
Q 6.984375 53.65625 15.1875 63.9375 
Q 23.390625 74.21875 37.203125 74.21875 
Q 40.921875 74.21875 44.703125 73.484375 
Q 48.484375 72.75 52.59375 71.296875 
z
" id="DejaVuSans-36"/>
      </defs>
      <g transform="translate(41.060643 276.500559)scale(0.18 -0.18)">
       <use xlink:href="#DejaVuSans-36"/>
      </g>
     </g>
    </g>
    <g id="ytick_5">
     <g id="line2d_13">
      <g>
       <use style="stroke:#000000;stroke-width:0.8;" x="59.513143" xlink:href="#m13e0a50fef" y="192.000955"/>
      </g>
     </g>
     <g id="text_14">
      <!-- 8 -->
      <defs>
       <path d="M 31.78125 34.625 
Q 24.75 34.625 20.71875 30.859375 
Q 16.703125 27.09375 16.703125 20.515625 
Q 16.703125 13.921875 20.71875 10.15625 
Q 24.75 6.390625 31.78125 6.390625 
Q 38.8125 6.390625 42.859375 10.171875 
Q 46.921875 13.96875 46.921875 20.515625 
Q 46.921875 27.09375 42.890625 30.859375 
Q 38.875 34.625 31.78125 34.625 
z
M 21.921875 38.8125 
Q 15.578125 40.375 12.03125 44.71875 
Q 8.5 49.078125 8.5 55.328125 
Q 8.5 64.0625 14.71875 69.140625 
Q 20.953125 74.21875 31.78125 74.21875 
Q 42.671875 74.21875 48.875 69.140625 
Q 55.078125 64.0625 55.078125 55.328125 
Q 55.078125 49.078125 51.53125 44.71875 
Q 48 40.375 41.703125 38.8125 
Q 48.828125 37.15625 52.796875 32.3125 
Q 56.78125 27.484375 56.78125 20.515625 
Q 56.78125 9.90625 50.3125 4.234375 
Q 43.84375 -1.421875 31.78125 -1.421875 
Q 19.734375 -1.421875 13.25 4.234375 
Q 6.78125 9.90625 6.78125 20.515625 
Q 6.78125 27.484375 10.78125 32.3125 
Q 14.796875 37.15625 21.921875 38.8125 
z
M 18.3125 54.390625 
Q 18.3125 48.734375 21.84375 45.5625 
Q 25.390625 42.390625 31.78125 42.390625 
Q 38.140625 42.390625 41.71875 45.5625 
Q 45.3125 48.734375 45.3125 54.390625 
Q 45.3125 60.0625 41.71875 63.234375 
Q 38.140625 66.40625 31.78125 66.40625 
Q 25.390625 66.40625 21.84375 63.234375 
Q 18.3125 60.0625 18.3125 54.390625 
z
" id="DejaVuSans-38"/>
      </defs>
      <g transform="translate(41.060643 198.839549)scale(0.18 -0.18)">
       <use xlink:href="#DejaVuSans-38"/>
      </g>
     </g>
    </g>
    <g id="ytick_6">
     <g id="line2d_14">
      <g>
       <use style="stroke:#000000;stroke-width:0.8;" x="59.513143" xlink:href="#m13e0a50fef" y="114.339945"/>
      </g>
     </g>
     <g id="text_15">
      <!-- 10 -->
      <g transform="translate(29.608143 121.178539)scale(0.18 -0.18)">
       <use xlink:href="#DejaVuSans-31"/>
       <use x="63.623047" xlink:href="#DejaVuSans-30"/>
      </g>
     </g>
    </g>
    <g id="text_16">
     <!-- access time (ns) -->
     <defs>
      <path d="M 34.28125 27.484375 
Q 23.390625 27.484375 19.1875 25 
Q 14.984375 22.515625 14.984375 16.5 
Q 14.984375 11.71875 18.140625 8.90625 
Q 21.296875 6.109375 26.703125 6.109375 
Q 34.1875 6.109375 38.703125 11.40625 
Q 43.21875 16.703125 43.21875 25.484375 
L 43.21875 27.484375 
z
M 52.203125 31.203125 
L 52.203125 0 
L 43.21875 0 
L 43.21875 8.296875 
Q 40.140625 3.328125 35.546875 0.953125 
Q 30.953125 -1.421875 24.3125 -1.421875 
Q 15.921875 -1.421875 10.953125 3.296875 
Q 6 8.015625 6 15.921875 
Q 6 25.140625 12.171875 29.828125 
Q 18.359375 34.515625 30.609375 34.515625 
L 43.21875 34.515625 
L 43.21875 35.40625 
Q 43.21875 41.609375 39.140625 45 
Q 35.0625 48.390625 27.6875 48.390625 
Q 23 48.390625 18.546875 47.265625 
Q 14.109375 46.140625 10.015625 43.890625 
L 10.015625 52.203125 
Q 14.9375 54.109375 19.578125 55.046875 
Q 24.21875 56 28.609375 56 
Q 40.484375 56 46.34375 49.84375 
Q 52.203125 43.703125 52.203125 31.203125 
z
" id="DejaVuSans-61"/>
      <path d="M 48.78125 52.59375 
L 48.78125 44.1875 
Q 44.96875 46.296875 41.140625 47.34375 
Q 37.3125 48.390625 33.40625 48.390625 
Q 24.65625 48.390625 19.8125 42.84375 
Q 14.984375 37.3125 14.984375 27.296875 
Q 14.984375 17.28125 19.8125 11.734375 
Q 24.65625 6.203125 33.40625 6.203125 
Q 37.3125 6.203125 41.140625 7.25 
Q 44.96875 8.296875 48.78125 10.40625 
L 48.78125 2.09375 
Q 45.015625 0.34375 40.984375 -0.53125 
Q 36.96875 -1.421875 32.421875 -1.421875 
Q 20.0625 -1.421875 12.78125 6.34375 
Q 5.515625 14.109375 5.515625 27.296875 
Q 5.515625 40.671875 12.859375 48.328125 
Q 20.21875 56 33.015625 56 
Q 37.15625 56 41.109375 55.140625 
Q 45.0625 54.296875 48.78125 52.59375 
z
" id="DejaVuSans-63"/>
      <path d="M 18.3125 70.21875 
L 18.3125 54.6875 
L 36.8125 54.6875 
L 36.8125 47.703125 
L 18.3125 47.703125 
L 18.3125 18.015625 
Q 18.3125 11.328125 20.140625 9.421875 
Q 21.96875 7.515625 27.59375 7.515625 
L 36.8125 7.515625 
L 36.8125 0 
L 27.59375 0 
Q 17.1875 0 13.234375 3.875 
Q 9.28125 7.765625 9.28125 18.015625 
L 9.28125 47.703125 
L 2.6875 47.703125 
L 2.6875 54.6875 
L 9.28125 54.6875 
L 9.28125 70.21875 
z
" id="DejaVuSans-74"/>
      <path d="M 52 44.1875 
Q 55.375 50.25 60.0625 53.125 
Q 64.75 56 71.09375 56 
Q 79.640625 56 84.28125 50.015625 
Q 88.921875 44.046875 88.921875 33.015625 
L 88.921875 0 
L 79.890625 0 
L 79.890625 32.71875 
Q 79.890625 40.578125 77.09375 44.375 
Q 74.3125 48.1875 68.609375 48.1875 
Q 61.625 48.1875 57.5625 43.546875 
Q 53.515625 38.921875 53.515625 30.90625 
L 53.515625 0 
L 44.484375 0 
L 44.484375 32.71875 
Q 44.484375 40.625 41.703125 44.40625 
Q 38.921875 48.1875 33.109375 48.1875 
Q 26.21875 48.1875 22.15625 43.53125 
Q 18.109375 38.875 18.109375 30.90625 
L 18.109375 0 
L 9.078125 0 
L 9.078125 54.6875 
L 18.109375 54.6875 
L 18.109375 46.1875 
Q 21.1875 51.21875 25.484375 53.609375 
Q 29.78125 56 35.6875 56 
Q 41.65625 56 45.828125 52.96875 
Q 50 49.953125 52 44.1875 
z
" id="DejaVuSans-6d"/>
      <path d="M 54.890625 33.015625 
L 54.890625 0 
L 45.90625 0 
L 45.90625 32.71875 
Q 45.90625 40.484375 42.875 44.328125 
Q 39.84375 48.1875 33.796875 48.1875 
Q 26.515625 48.1875 22.3125 43.546875 
Q 18.109375 38.921875 18.109375 30.90625 
L 18.109375 0 
L 9.078125 0 
L 9.078125 54.6875 
L 18.109375 54.6875 
L 18.109375 46.1875 
Q 21.34375 51.125 25.703125 53.5625 
Q 30.078125 56 35.796875 56 
Q 45.21875 56 50.046875 50.171875 
Q 54.890625 44.34375 54.890625 33.015625 
z
" id="DejaVuSans-6e"/>
     </defs>
     <g transform="translate(21.03283 374.550272)rotate(-90)scale(0.22 -0.22)">
      <use xlink:href="#DejaVuSans-61"/>
      <use x="61.279297" xlink:href="#DejaVuSans-63"/>
      <use x="116.259766" xlink:href="#DejaVuSans-63"/>
      <use x="171.240234" xlink:href="#DejaVuSans-65"/>
      <use x="232.763672" xlink:href="#DejaVuSans-73"/>
      <use x="284.863281" xlink:href="#DejaVuSans-73"/>
      <use x="336.962891" xlink:href="#DejaVuSans-20"/>
      <use x="368.75" xlink:href="#DejaVuSans-74"/>
      <use x="407.958984" xlink:href="#DejaVuSans-69"/>
      <use x="435.742188" xlink:href="#DejaVuSans-6d"/>
      <use x="533.154297" xlink:href="#DejaVuSans-65"/>
      <use x="594.677734" xlink:href="#DejaVuSans-20"/>
      <use x="626.464844" xlink:href="#DejaVuSans-28"/>
      <use x="665.478516" xlink:href="#DejaVuSans-6e"/>
      <use x="728.857422" xlink:href="#DejaVuSans-73"/>
      <use x="780.957031" xlink:href="#DejaVuSans-29"/>
     </g>
    </g>
   </g>
   <g id="line2d_15">
    <path clip-path="url(#p37ee401381)" d="M 88.449974 489.512519 
L 124.621013 490.207585 
L 160.792052 490.347375 
L 196.963091 490.739563 
L 233.13413 488.07579 
L 269.305169 489.966836 
L 305.476208 490.098859 
L 341.647247 489.978485 
L 377.818286 490.300778 
L 413.989325 489.547466 
L 450.160364 488.572821 
L 486.331403 484.449021 
L 522.502442 484.130611 
L 558.673481 483.819967 
L 594.844519 489.22129 
L 631.015558 487.136092 
L 667.186597 476.896488 
" style="fill:none;stroke:#081d58;stroke-linecap:square;stroke-opacity:0.8;stroke-width:3;"/>
    <defs>
     <path d="M 0 3 
C 0.795609 3 1.55874 2.683901 2.12132 2.12132 
C 2.683901 1.55874 3 0.795609 3 0 
C 3 -0.795609 2.683901 -1.55874 2.12132 -2.12132 
C 1.55874 -2.683901 0.795609 -3 0 -3 
C -0.795609 -3 -1.55874 -2.683901 -2.12132 -2.12132 
C -2.683901 -1.55874 -3 -0.795609 -3 0 
C -3 0.795609 -2.683901 1.55874 -2.12132 2.12132 
C -1.55874 2.683901 -0.795609 3 0 3 
z
" id="m986c1ce2df" style="stroke:#081d58;stroke-opacity:0.8;"/>
    </defs>
    <g clip-path="url(#p37ee401381)">
     <use style="fill:#081d58;fill-opacity:0.8;stroke:#081d58;stroke-opacity:0.8;" x="88.449974" xlink:href="#m986c1ce2df" y="489.512519"/>
     <use style="fill:#081d58;fill-opacity:0.8;stroke:#081d58;stroke-opacity:0.8;" x="124.621013" xlink:href="#m986c1ce2df" y="490.207585"/>
     <use style="fill:#081d58;fill-opacity:0.8;stroke:#081d58;stroke-opacity:0.8;" x="160.792052" xlink:href="#m986c1ce2df" y="490.347375"/>
     <use style="fill:#081d58;fill-opacity:0.8;stroke:#081d58;stroke-opacity:0.8;" x="196.963091" xlink:href="#m986c1ce2df" y="490.739563"/>
     <use style="fill:#081d58;fill-opacity:0.8;stroke:#081d58;stroke-opacity:0.8;" x="233.13413" xlink:href="#m986c1ce2df" y="488.07579"/>
     <use style="fill:#081d58;fill-opacity:0.8;stroke:#081d58;stroke-opacity:0.8;" x="269.305169" xlink:href="#m986c1ce2df" y="489.966836"/>
     <use style="fill:#081d58;fill-opacity:0.8;stroke:#081d58;stroke-opacity:0.8;" x="305.476208" xlink:href="#m986c1ce2df" y="490.098859"/>
     <use style="fill:#081d58;fill-opacity:0.8;stroke:#081d58;stroke-opacity:0.8;" x="341.647247" xlink:href="#m986c1ce2df" y="489.978485"/>
     <use style="fill:#081d58;fill-opacity:0.8;stroke:#081d58;stroke-opacity:0.8;" x="377.818286" xlink:href="#m986c1ce2df" y="490.300778"/>
     <use style="fill:#081d58;fill-opacity:0.8;stroke:#081d58;stroke-opacity:0.8;" x="413.989325" xlink:href="#m986c1ce2df" y="489.547466"/>
     <use style="fill:#081d58;fill-opacity:0.8;stroke:#081d58;stroke-opacity:0.8;" x="450.160364" xlink:href="#m986c1ce2df" y="488.572821"/>
     <use style="fill:#081d58;fill-opacity:0.8;stroke:#081d58;stroke-opacity:0.8;" x="486.331403" xlink:href="#m986c1ce2df" y="484.449021"/>
     <use style="fill:#081d58;fill-opacity:0.8;stroke:#081d58;stroke-opacity:0.8;" x="522.502442" xlink:href="#m986c1ce2df" y="484.130611"/>
     <use style="fill:#081d58;fill-opacity:0.8;stroke:#081d58;stroke-opacity:0.8;" x="558.673481" xlink:href="#m986c1ce2df" y="483.819967"/>
     <use style="fill:#081d58;fill-opacity:0.8;stroke:#081d58;stroke-opacity:0.8;" x="594.844519" xlink:href="#m986c1ce2df" y="489.22129"/>
     <use style="fill:#081d58;fill-opacity:0.8;stroke:#081d58;stroke-opacity:0.8;" x="631.015558" xlink:href="#m986c1ce2df" y="487.136092"/>
     <use style="fill:#081d58;fill-opacity:0.8;stroke:#081d58;stroke-opacity:0.8;" x="667.186597" xlink:href="#m986c1ce2df" y="476.896488"/>
    </g>
   </g>
   <g id="line2d_16">
    <path clip-path="url(#p37ee401381)" d="M 88.449974 489.201875 
L 124.621013 489.27177 
L 160.792052 490.223117 
L 196.963091 490.195936 
L 233.13413 490.557059 
L 269.305169 490.308544 
L 305.476208 490.106626 
L 341.647247 489.9979 
L 377.818286 488.864049 
L 413.989325 488.526224 
L 450.160364 487.831158 
L 486.331403 483.796668 
L 522.502442 482.072594 
L 558.673481 481.816313 
L 594.844519 486.70119 
L 631.015558 482.682233 
L 667.186597 468.21787 
" style="fill:none;stroke:#253494;stroke-linecap:square;stroke-opacity:0.8;stroke-width:3;"/>
    <defs>
     <path d="M 0 3 
C 0.795609 3 1.55874 2.683901 2.12132 2.12132 
C 2.683901 1.55874 3 0.795609 3 0 
C 3 -0.795609 2.683901 -1.55874 2.12132 -2.12132 
C 1.55874 -2.683901 0.795609 -3 0 -3 
C -0.795609 -3 -1.55874 -2.683901 -2.12132 -2.12132 
C -2.683901 -1.55874 -3 -0.795609 -3 0 
C -3 0.795609 -2.683901 1.55874 -2.12132 2.12132 
C -1.55874 2.683901 -0.795609 3 0 3 
z
" id="m1766ca2cbb" style="stroke:#253494;stroke-opacity:0.8;"/>
    </defs>
    <g clip-path="url(#p37ee401381)">
     <use style="fill:#253494;fill-opacity:0.8;stroke:#253494;stroke-opacity:0.8;" x="88.449974" xlink:href="#m1766ca2cbb" y="489.201875"/>
     <use style="fill:#253494;fill-opacity:0.8;stroke:#253494;stroke-opacity:0.8;" x="124.621013" xlink:href="#m1766ca2cbb" y="489.27177"/>
     <use style="fill:#253494;fill-opacity:0.8;stroke:#253494;stroke-opacity:0.8;" x="160.792052" xlink:href="#m1766ca2cbb" y="490.223117"/>
     <use style="fill:#253494;fill-opacity:0.8;stroke:#253494;stroke-opacity:0.8;" x="196.963091" xlink:href="#m1766ca2cbb" y="490.195936"/>
     <use style="fill:#253494;fill-opacity:0.8;stroke:#253494;stroke-opacity:0.8;" x="233.13413" xlink:href="#m1766ca2cbb" y="490.557059"/>
     <use style="fill:#253494;fill-opacity:0.8;stroke:#253494;stroke-opacity:0.8;" x="269.305169" xlink:href="#m1766ca2cbb" y="490.308544"/>
     <use style="fill:#253494;fill-opacity:0.8;stroke:#253494;stroke-opacity:0.8;" x="305.476208" xlink:href="#m1766ca2cbb" y="490.106626"/>
     <use style="fill:#253494;fill-opacity:0.8;stroke:#253494;stroke-opacity:0.8;" x="341.647247" xlink:href="#m1766ca2cbb" y="489.9979"/>
     <use style="fill:#253494;fill-opacity:0.8;stroke:#253494;stroke-opacity:0.8;" x="377.818286" xlink:href="#m1766ca2cbb" y="488.864049"/>
     <use style="fill:#253494;fill-opacity:0.8;stroke:#253494;stroke-opacity:0.8;" x="413.989325" xlink:href="#m1766ca2cbb" y="488.526224"/>
     <use style="fill:#253494;fill-opacity:0.8;stroke:#253494;stroke-opacity:0.8;" x="450.160364" xlink:href="#m1766ca2cbb" y="487.831158"/>
     <use style="fill:#253494;fill-opacity:0.8;stroke:#253494;stroke-opacity:0.8;" x="486.331403" xlink:href="#m1766ca2cbb" y="483.796668"/>
     <use style="fill:#253494;fill-opacity:0.8;stroke:#253494;stroke-opacity:0.8;" x="522.502442" xlink:href="#m1766ca2cbb" y="482.072594"/>
     <use style="fill:#253494;fill-opacity:0.8;stroke:#253494;stroke-opacity:0.8;" x="558.673481" xlink:href="#m1766ca2cbb" y="481.816313"/>
     <use style="fill:#253494;fill-opacity:0.8;stroke:#253494;stroke-opacity:0.8;" x="594.844519" xlink:href="#m1766ca2cbb" y="486.70119"/>
     <use style="fill:#253494;fill-opacity:0.8;stroke:#253494;stroke-opacity:0.8;" x="631.015558" xlink:href="#m1766ca2cbb" y="482.682233"/>
     <use style="fill:#253494;fill-opacity:0.8;stroke:#253494;stroke-opacity:0.8;" x="667.186597" xlink:href="#m1766ca2cbb" y="468.21787"/>
    </g>
   </g>
   <g id="line2d_17">
    <path clip-path="url(#p37ee401381)" d="M 88.449974 490.285246 
L 124.621013 490.40562 
L 160.792052 489.337782 
L 196.963091 490.444451 
L 233.13413 488.359253 
L 269.305169 488.848517 
L 305.476208 487.054548 
L 341.647247 485.97506 
L 377.818286 485.943995 
L 413.989325 485.660533 
L 450.160364 484.130611 
L 486.331403 475.67721 
L 522.502442 470.240939 
L 558.673481 466.074426 
L 594.844519 471.786393 
L 631.015558 463.298045 
L 667.186597 432.055021 
" style="fill:none;stroke:#225ea8;stroke-linecap:square;stroke-opacity:0.8;stroke-width:3;"/>
    <defs>
     <path d="M 0 3 
C 0.795609 3 1.55874 2.683901 2.12132 2.12132 
C 2.683901 1.55874 3 0.795609 3 0 
C 3 -0.795609 2.683901 -1.55874 2.12132 -2.12132 
C 1.55874 -2.683901 0.795609 -3 0 -3 
C -0.795609 -3 -1.55874 -2.683901 -2.12132 -2.12132 
C -2.683901 -1.55874 -3 -0.795609 -3 0 
C -3 0.795609 -2.683901 1.55874 -2.12132 2.12132 
C -1.55874 2.683901 -0.795609 3 0 3 
z
" id="m3d11b00b1d" style="stroke:#225ea8;stroke-opacity:0.8;"/>
    </defs>
    <g clip-path="url(#p37ee401381)">
     <use style="fill:#225ea8;fill-opacity:0.8;stroke:#225ea8;stroke-opacity:0.8;" x="88.449974" xlink:href="#m3d11b00b1d" y="490.285246"/>
     <use style="fill:#225ea8;fill-opacity:0.8;stroke:#225ea8;stroke-opacity:0.8;" x="124.621013" xlink:href="#m3d11b00b1d" y="490.40562"/>
     <use style="fill:#225ea8;fill-opacity:0.8;stroke:#225ea8;stroke-opacity:0.8;" x="160.792052" xlink:href="#m3d11b00b1d" y="489.337782"/>
     <use style="fill:#225ea8;fill-opacity:0.8;stroke:#225ea8;stroke-opacity:0.8;" x="196.963091" xlink:href="#m3d11b00b1d" y="490.444451"/>
     <use style="fill:#225ea8;fill-opacity:0.8;stroke:#225ea8;stroke-opacity:0.8;" x="233.13413" xlink:href="#m3d11b00b1d" y="488.359253"/>
     <use style="fill:#225ea8;fill-opacity:0.8;stroke:#225ea8;stroke-opacity:0.8;" x="269.305169" xlink:href="#m3d11b00b1d" y="488.848517"/>
     <use style="fill:#225ea8;fill-opacity:0.8;stroke:#225ea8;stroke-opacity:0.8;" x="305.476208" xlink:href="#m3d11b00b1d" y="487.054548"/>
     <use style="fill:#225ea8;fill-opacity:0.8;stroke:#225ea8;stroke-opacity:0.8;" x="341.647247" xlink:href="#m3d11b00b1d" y="485.97506"/>
     <use style="fill:#225ea8;fill-opacity:0.8;stroke:#225ea8;stroke-opacity:0.8;" x="377.818286" xlink:href="#m3d11b00b1d" y="485.943995"/>
     <use style="fill:#225ea8;fill-opacity:0.8;stroke:#225ea8;stroke-opacity:0.8;" x="413.989325" xlink:href="#m3d11b00b1d" y="485.660533"/>
     <use style="fill:#225ea8;fill-opacity:0.8;stroke:#225ea8;stroke-opacity:0.8;" x="450.160364" xlink:href="#m3d11b00b1d" y="484.130611"/>
     <use style="fill:#225ea8;fill-opacity:0.8;stroke:#225ea8;stroke-opacity:0.8;" x="486.331403" xlink:href="#m3d11b00b1d" y="475.67721"/>
     <use style="fill:#225ea8;fill-opacity:0.8;stroke:#225ea8;stroke-opacity:0.8;" x="522.502442" xlink:href="#m3d11b00b1d" y="470.240939"/>
     <use style="fill:#225ea8;fill-opacity:0.8;stroke:#225ea8;stroke-opacity:0.8;" x="558.673481" xlink:href="#m3d11b00b1d" y="466.074426"/>
     <use style="fill:#225ea8;fill-opacity:0.8;stroke:#225ea8;stroke-opacity:0.8;" x="594.844519" xlink:href="#m3d11b00b1d" y="471.786393"/>
     <use style="fill:#225ea8;fill-opacity:0.8;stroke:#225ea8;stroke-opacity:0.8;" x="631.015558" xlink:href="#m3d11b00b1d" y="463.298045"/>
     <use style="fill:#225ea8;fill-opacity:0.8;stroke:#225ea8;stroke-opacity:0.8;" x="667.186597" xlink:href="#m3d11b00b1d" y="432.055021"/>
    </g>
   </g>
   <g id="line2d_18">
    <path clip-path="url(#p37ee401381)" d="M 88.449974 488.930061 
L 124.621013 490.164871 
L 160.792052 489.94742 
L 196.963091 489.135863 
L 233.13413 481.361996 
L 269.305169 477.696396 
L 305.476208 475.121934 
L 341.647247 466.264695 
L 377.818286 466.190917 
L 413.989325 468.664421 
L 450.160364 452.844873 
L 486.331403 445.727241 
L 522.502442 434.753741 
L 558.673481 425.496548 
L 594.844519 436.683617 
L 631.015558 403.122411 
L 667.186597 357.989715 
" style="fill:none;stroke:#1d91c0;stroke-linecap:square;stroke-opacity:0.8;stroke-width:3;"/>
    <defs>
     <path d="M 0 3 
C 0.795609 3 1.55874 2.683901 2.12132 2.12132 
C 2.683901 1.55874 3 0.795609 3 0 
C 3 -0.795609 2.683901 -1.55874 2.12132 -2.12132 
C 1.55874 -2.683901 0.795609 -3 0 -3 
C -0.795609 -3 -1.55874 -2.683901 -2.12132 -2.12132 
C -2.683901 -1.55874 -3 -0.795609 -3 0 
C -3 0.795609 -2.683901 1.55874 -2.12132 2.12132 
C -1.55874 2.683901 -0.795609 3 0 3 
z
" id="md4cbfc3d6c" style="stroke:#1d91c0;stroke-opacity:0.8;"/>
    </defs>
    <g clip-path="url(#p37ee401381)">
     <use style="fill:#1d91c0;fill-opacity:0.8;stroke:#1d91c0;stroke-opacity:0.8;" x="88.449974" xlink:href="#md4cbfc3d6c" y="488.930061"/>
     <use style="fill:#1d91c0;fill-opacity:0.8;stroke:#1d91c0;stroke-opacity:0.8;" x="124.621013" xlink:href="#md4cbfc3d6c" y="490.164871"/>
     <use style="fill:#1d91c0;fill-opacity:0.8;stroke:#1d91c0;stroke-opacity:0.8;" x="160.792052" xlink:href="#md4cbfc3d6c" y="489.94742"/>
     <use style="fill:#1d91c0;fill-opacity:0.8;stroke:#1d91c0;stroke-opacity:0.8;" x="196.963091" xlink:href="#md4cbfc3d6c" y="489.135863"/>
     <use style="fill:#1d91c0;fill-opacity:0.8;stroke:#1d91c0;stroke-opacity:0.8;" x="233.13413" xlink:href="#md4cbfc3d6c" y="481.361996"/>
     <use style="fill:#1d91c0;fill-opacity:0.8;stroke:#1d91c0;stroke-opacity:0.8;" x="269.305169" xlink:href="#md4cbfc3d6c" y="477.696396"/>
     <use style="fill:#1d91c0;fill-opacity:0.8;stroke:#1d91c0;stroke-opacity:0.8;" x="305.476208" xlink:href="#md4cbfc3d6c" y="475.121934"/>
     <use style="fill:#1d91c0;fill-opacity:0.8;stroke:#1d91c0;stroke-opacity:0.8;" x="341.647247" xlink:href="#md4cbfc3d6c" y="466.264695"/>
     <use style="fill:#1d91c0;fill-opacity:0.8;stroke:#1d91c0;stroke-opacity:0.8;" x="377.818286" xlink:href="#md4cbfc3d6c" y="466.190917"/>
     <use style="fill:#1d91c0;fill-opacity:0.8;stroke:#1d91c0;stroke-opacity:0.8;" x="413.989325" xlink:href="#md4cbfc3d6c" y="468.664421"/>
     <use style="fill:#1d91c0;fill-opacity:0.8;stroke:#1d91c0;stroke-opacity:0.8;" x="450.160364" xlink:href="#md4cbfc3d6c" y="452.844873"/>
     <use style="fill:#1d91c0;fill-opacity:0.8;stroke:#1d91c0;stroke-opacity:0.8;" x="486.331403" xlink:href="#md4cbfc3d6c" y="445.727241"/>
     <use style="fill:#1d91c0;fill-opacity:0.8;stroke:#1d91c0;stroke-opacity:0.8;" x="522.502442" xlink:href="#md4cbfc3d6c" y="434.753741"/>
     <use style="fill:#1d91c0;fill-opacity:0.8;stroke:#1d91c0;stroke-opacity:0.8;" x="558.673481" xlink:href="#md4cbfc3d6c" y="425.496548"/>
     <use style="fill:#1d91c0;fill-opacity:0.8;stroke:#1d91c0;stroke-opacity:0.8;" x="594.844519" xlink:href="#md4cbfc3d6c" y="436.683617"/>
     <use style="fill:#1d91c0;fill-opacity:0.8;stroke:#1d91c0;stroke-opacity:0.8;" x="631.015558" xlink:href="#md4cbfc3d6c" y="403.122411"/>
     <use style="fill:#1d91c0;fill-opacity:0.8;stroke:#1d91c0;stroke-opacity:0.8;" x="667.186597" xlink:href="#md4cbfc3d6c" y="357.989715"/>
    </g>
   </g>
   <g id="line2d_19">
    <path clip-path="url(#p37ee401381)" d="M 88.449974 488.71261 
L 124.621013 489.85811 
L 160.792052 489.011605 
L 196.963091 490.021198 
L 233.13413 442.473245 
L 269.305169 442.038343 
L 305.476208 437.23501 
L 341.647247 423.939445 
L 377.818286 427.740951 
L 413.989325 428.583573 
L 450.160364 391.550921 
L 486.331403 378.325251 
L 522.502442 357.605293 
L 558.673481 339.087025 
L 594.844519 363.77546 
L 631.015558 300.12838 
L 667.186597 202.920093 
" style="fill:none;stroke:#41b6c4;stroke-linecap:square;stroke-opacity:0.8;stroke-width:3;"/>
    <defs>
     <path d="M 0 3 
C 0.795609 3 1.55874 2.683901 2.12132 2.12132 
C 2.683901 1.55874 3 0.795609 3 0 
C 3 -0.795609 2.683901 -1.55874 2.12132 -2.12132 
C 1.55874 -2.683901 0.795609 -3 0 -3 
C -0.795609 -3 -1.55874 -2.683901 -2.12132 -2.12132 
C -2.683901 -1.55874 -3 -0.795609 -3 0 
C -3 0.795609 -2.683901 1.55874 -2.12132 2.12132 
C -1.55874 2.683901 -0.795609 3 0 3 
z
" id="m5ad67a27da" style="stroke:#41b6c4;stroke-opacity:0.8;"/>
    </defs>
    <g clip-path="url(#p37ee401381)">
     <use style="fill:#41b6c4;fill-opacity:0.8;stroke:#41b6c4;stroke-opacity:0.8;" x="88.449974" xlink:href="#m5ad67a27da" y="488.71261"/>
     <use style="fill:#41b6c4;fill-opacity:0.8;stroke:#41b6c4;stroke-opacity:0.8;" x="124.621013" xlink:href="#m5ad67a27da" y="489.85811"/>
     <use style="fill:#41b6c4;fill-opacity:0.8;stroke:#41b6c4;stroke-opacity:0.8;" x="160.792052" xlink:href="#m5ad67a27da" y="489.011605"/>
     <use style="fill:#41b6c4;fill-opacity:0.8;stroke:#41b6c4;stroke-opacity:0.8;" x="196.963091" xlink:href="#m5ad67a27da" y="490.021198"/>
     <use style="fill:#41b6c4;fill-opacity:0.8;stroke:#41b6c4;stroke-opacity:0.8;" x="233.13413" xlink:href="#m5ad67a27da" y="442.473245"/>
     <use style="fill:#41b6c4;fill-opacity:0.8;stroke:#41b6c4;stroke-opacity:0.8;" x="269.305169" xlink:href="#m5ad67a27da" y="442.038343"/>
     <use style="fill:#41b6c4;fill-opacity:0.8;stroke:#41b6c4;stroke-opacity:0.8;" x="305.476208" xlink:href="#m5ad67a27da" y="437.23501"/>
     <use style="fill:#41b6c4;fill-opacity:0.8;stroke:#41b6c4;stroke-opacity:0.8;" x="341.647247" xlink:href="#m5ad67a27da" y="423.939445"/>
     <use style="fill:#41b6c4;fill-opacity:0.8;stroke:#41b6c4;stroke-opacity:0.8;" x="377.818286" xlink:href="#m5ad67a27da" y="427.740951"/>
     <use style="fill:#41b6c4;fill-opacity:0.8;stroke:#41b6c4;stroke-opacity:0.8;" x="413.989325" xlink:href="#m5ad67a27da" y="428.583573"/>
     <use style="fill:#41b6c4;fill-opacity:0.8;stroke:#41b6c4;stroke-opacity:0.8;" x="450.160364" xlink:href="#m5ad67a27da" y="391.550921"/>
     <use style="fill:#41b6c4;fill-opacity:0.8;stroke:#41b6c4;stroke-opacity:0.8;" x="486.331403" xlink:href="#m5ad67a27da" y="378.325251"/>
     <use style="fill:#41b6c4;fill-opacity:0.8;stroke:#41b6c4;stroke-opacity:0.8;" x="522.502442" xlink:href="#m5ad67a27da" y="357.605293"/>
     <use style="fill:#41b6c4;fill-opacity:0.8;stroke:#41b6c4;stroke-opacity:0.8;" x="558.673481" xlink:href="#m5ad67a27da" y="339.087025"/>
     <use style="fill:#41b6c4;fill-opacity:0.8;stroke:#41b6c4;stroke-opacity:0.8;" x="594.844519" xlink:href="#m5ad67a27da" y="363.77546"/>
     <use style="fill:#41b6c4;fill-opacity:0.8;stroke:#41b6c4;stroke-opacity:0.8;" x="631.015558" xlink:href="#m5ad67a27da" y="300.12838"/>
     <use style="fill:#41b6c4;fill-opacity:0.8;stroke:#41b6c4;stroke-opacity:0.8;" x="667.186597" xlink:href="#m5ad67a27da" y="202.920093"/>
    </g>
   </g>
   <g id="line2d_20">
    <path clip-path="url(#p37ee401381)" d="M 88.449974 492.510234 
L 124.621013 490.77451 
L 160.792052 489.920239 
L 196.963091 489.159161 
L 233.13413 441.875255 
L 269.305169 441.929618 
L 305.476208 440.16283 
L 341.647247 421.015508 
L 377.818286 417.730447 
L 413.989325 418.270191 
L 450.160364 375.09067 
L 486.331403 354.518268 
L 522.502442 317.485615 
L 558.673481 297.42966 
L 594.844519 320.957063 
L 631.015558 233.009852 
L 667.186597 130.594395 
" style="fill:none;stroke:#7fcdbb;stroke-linecap:square;stroke-opacity:0.8;stroke-width:3;"/>
    <defs>
     <path d="M 0 3 
C 0.795609 3 1.55874 2.683901 2.12132 2.12132 
C 2.683901 1.55874 3 0.795609 3 0 
C 3 -0.795609 2.683901 -1.55874 2.12132 -2.12132 
C 1.55874 -2.683901 0.795609 -3 0 -3 
C -0.795609 -3 -1.55874 -2.683901 -2.12132 -2.12132 
C -2.683901 -1.55874 -3 -0.795609 -3 0 
C -3 0.795609 -2.683901 1.55874 -2.12132 2.12132 
C -1.55874 2.683901 -0.795609 3 0 3 
z
" id="m121ba39549" style="stroke:#7fcdbb;stroke-opacity:0.8;"/>
    </defs>
    <g clip-path="url(#p37ee401381)">
     <use style="fill:#7fcdbb;fill-opacity:0.8;stroke:#7fcdbb;stroke-opacity:0.8;" x="88.449974" xlink:href="#m121ba39549" y="492.510234"/>
     <use style="fill:#7fcdbb;fill-opacity:0.8;stroke:#7fcdbb;stroke-opacity:0.8;" x="124.621013" xlink:href="#m121ba39549" y="490.77451"/>
     <use style="fill:#7fcdbb;fill-opacity:0.8;stroke:#7fcdbb;stroke-opacity:0.8;" x="160.792052" xlink:href="#m121ba39549" y="489.920239"/>
     <use style="fill:#7fcdbb;fill-opacity:0.8;stroke:#7fcdbb;stroke-opacity:0.8;" x="196.963091" xlink:href="#m121ba39549" y="489.159161"/>
     <use style="fill:#7fcdbb;fill-opacity:0.8;stroke:#7fcdbb;stroke-opacity:0.8;" x="233.13413" xlink:href="#m121ba39549" y="441.875255"/>
     <use style="fill:#7fcdbb;fill-opacity:0.8;stroke:#7fcdbb;stroke-opacity:0.8;" x="269.305169" xlink:href="#m121ba39549" y="441.929618"/>
     <use style="fill:#7fcdbb;fill-opacity:0.8;stroke:#7fcdbb;stroke-opacity:0.8;" x="305.476208" xlink:href="#m121ba39549" y="440.16283"/>
     <use style="fill:#7fcdbb;fill-opacity:0.8;stroke:#7fcdbb;stroke-opacity:0.8;" x="341.647247" xlink:href="#m121ba39549" y="421.015508"/>
     <use style="fill:#7fcdbb;fill-opacity:0.8;stroke:#7fcdbb;stroke-opacity:0.8;" x="377.818286" xlink:href="#m121ba39549" y="417.730447"/>
     <use style="fill:#7fcdbb;fill-opacity:0.8;stroke:#7fcdbb;stroke-opacity:0.8;" x="413.989325" xlink:href="#m121ba39549" y="418.270191"/>
     <use style="fill:#7fcdbb;fill-opacity:0.8;stroke:#7fcdbb;stroke-opacity:0.8;" x="450.160364" xlink:href="#m121ba39549" y="375.09067"/>
     <use style="fill:#7fcdbb;fill-opacity:0.8;stroke:#7fcdbb;stroke-opacity:0.8;" x="486.331403" xlink:href="#m121ba39549" y="354.518268"/>
     <use style="fill:#7fcdbb;fill-opacity:0.8;stroke:#7fcdbb;stroke-opacity:0.8;" x="522.502442" xlink:href="#m121ba39549" y="317.485615"/>
     <use style="fill:#7fcdbb;fill-opacity:0.8;stroke:#7fcdbb;stroke-opacity:0.8;" x="558.673481" xlink:href="#m121ba39549" y="297.42966"/>
     <use style="fill:#7fcdbb;fill-opacity:0.8;stroke:#7fcdbb;stroke-opacity:0.8;" x="594.844519" xlink:href="#m121ba39549" y="320.957063"/>
     <use style="fill:#7fcdbb;fill-opacity:0.8;stroke:#7fcdbb;stroke-opacity:0.8;" x="631.015558" xlink:href="#m121ba39549" y="233.009852"/>
     <use style="fill:#7fcdbb;fill-opacity:0.8;stroke:#7fcdbb;stroke-opacity:0.8;" x="667.186597" xlink:href="#m121ba39549" y="130.594395"/>
    </g>
   </g>
   <g id="line2d_21">
    <path clip-path="url(#p37ee401381)" d="M 88.449974 491.500641 
L 124.621013 491.997671 
L 160.792052 489.481454 
L 196.963091 488.370902 
L 233.13413 442.116004 
L 269.305169 446.779548 
L 305.476208 441.013218 
L 341.647247 416.076268 
L 377.818286 413.171746 
L 413.989325 409.805141 
L 450.160364 363.406571 
L 486.331403 344.418454 
L 522.502442 295.2668 
L 558.673481 300.512802 
L 594.844519 296.656933 
L 631.015558 182.091411 
L 667.186597 76.200623 
" style="fill:none;stroke:#c7e9b4;stroke-linecap:square;stroke-opacity:0.8;stroke-width:3;"/>
    <defs>
     <path d="M 0 3 
C 0.795609 3 1.55874 2.683901 2.12132 2.12132 
C 2.683901 1.55874 3 0.795609 3 0 
C 3 -0.795609 2.683901 -1.55874 2.12132 -2.12132 
C 1.55874 -2.683901 0.795609 -3 0 -3 
C -0.795609 -3 -1.55874 -2.683901 -2.12132 -2.12132 
C -2.683901 -1.55874 -3 -0.795609 -3 0 
C -3 0.795609 -2.683901 1.55874 -2.12132 2.12132 
C -1.55874 2.683901 -0.795609 3 0 3 
z
" id="mabec5da0bf" style="stroke:#c7e9b4;stroke-opacity:0.8;"/>
    </defs>
    <g clip-path="url(#p37ee401381)">
     <use style="fill:#c7e9b4;fill-opacity:0.8;stroke:#c7e9b4;stroke-opacity:0.8;" x="88.449974" xlink:href="#mabec5da0bf" y="491.500641"/>
     <use style="fill:#c7e9b4;fill-opacity:0.8;stroke:#c7e9b4;stroke-opacity:0.8;" x="124.621013" xlink:href="#mabec5da0bf" y="491.997671"/>
     <use style="fill:#c7e9b4;fill-opacity:0.8;stroke:#c7e9b4;stroke-opacity:0.8;" x="160.792052" xlink:href="#mabec5da0bf" y="489.481454"/>
     <use style="fill:#c7e9b4;fill-opacity:0.8;stroke:#c7e9b4;stroke-opacity:0.8;" x="196.963091" xlink:href="#mabec5da0bf" y="488.370902"/>
     <use style="fill:#c7e9b4;fill-opacity:0.8;stroke:#c7e9b4;stroke-opacity:0.8;" x="233.13413" xlink:href="#mabec5da0bf" y="442.116004"/>
     <use style="fill:#c7e9b4;fill-opacity:0.8;stroke:#c7e9b4;stroke-opacity:0.8;" x="269.305169" xlink:href="#mabec5da0bf" y="446.779548"/>
     <use style="fill:#c7e9b4;fill-opacity:0.8;stroke:#c7e9b4;stroke-opacity:0.8;" x="305.476208" xlink:href="#mabec5da0bf" y="441.013218"/>
     <use style="fill:#c7e9b4;fill-opacity:0.8;stroke:#c7e9b4;stroke-opacity:0.8;" x="341.647247" xlink:href="#mabec5da0bf" y="416.076268"/>
     <use style="fill:#c7e9b4;fill-opacity:0.8;stroke:#c7e9b4;stroke-opacity:0.8;" x="377.818286" xlink:href="#mabec5da0bf" y="413.171746"/>
     <use style="fill:#c7e9b4;fill-opacity:0.8;stroke:#c7e9b4;stroke-opacity:0.8;" x="413.989325" xlink:href="#mabec5da0bf" y="409.805141"/>
     <use style="fill:#c7e9b4;fill-opacity:0.8;stroke:#c7e9b4;stroke-opacity:0.8;" x="450.160364" xlink:href="#mabec5da0bf" y="363.406571"/>
     <use style="fill:#c7e9b4;fill-opacity:0.8;stroke:#c7e9b4;stroke-opacity:0.8;" x="486.331403" xlink:href="#mabec5da0bf" y="344.418454"/>
     <use style="fill:#c7e9b4;fill-opacity:0.8;stroke:#c7e9b4;stroke-opacity:0.8;" x="522.502442" xlink:href="#mabec5da0bf" y="295.2668"/>
     <use style="fill:#c7e9b4;fill-opacity:0.8;stroke:#c7e9b4;stroke-opacity:0.8;" x="558.673481" xlink:href="#mabec5da0bf" y="300.512802"/>
     <use style="fill:#c7e9b4;fill-opacity:0.8;stroke:#c7e9b4;stroke-opacity:0.8;" x="594.844519" xlink:href="#mabec5da0bf" y="296.656933"/>
     <use style="fill:#c7e9b4;fill-opacity:0.8;stroke:#c7e9b4;stroke-opacity:0.8;" x="631.015558" xlink:href="#mabec5da0bf" y="182.091411"/>
     <use style="fill:#c7e9b4;fill-opacity:0.8;stroke:#c7e9b4;stroke-opacity:0.8;" x="667.186597" xlink:href="#mabec5da0bf" y="76.200623"/>
    </g>
   </g>
   <g id="patch_3">
    <path d="M 59.513143 513.325714 
L 59.513143 55.385143 
" style="fill:none;stroke:#000000;stroke-linecap:square;stroke-linejoin:miter;stroke-width:0.8;"/>
   </g>
   <g id="patch_4">
    <path d="M 696.123429 513.325714 
L 696.123429 55.385143 
" style="fill:none;stroke:#000000;stroke-linecap:square;stroke-linejoin:miter;stroke-width:0.8;"/>
   </g>
   <g id="patch_5">
    <path d="M 59.513143 513.325714 
L 696.123429 513.325714 
" style="fill:none;stroke:#000000;stroke-linecap:square;stroke-linejoin:miter;stroke-width:0.8;"/>
   </g>
   <g id="patch_6">
    <path d="M 59.513143 55.385143 
L 696.123429 55.385143 
" style="fill:none;stroke:#000000;stroke-linecap:square;stroke-linejoin:miter;stroke-width:0.8;"/>
   </g>
   <g id="legend_1">
    <g id="patch_7">
     <path d="M 73.513143 276.878893 
L 175.688143 276.878893 
Q 179.688143 276.878893 179.688143 272.878893 
L 179.688143 69.385143 
Q 179.688143 65.385143 175.688143 65.385143 
L 73.513143 65.385143 
Q 69.513143 65.385143 69.513143 69.385143 
L 69.513143 272.878893 
Q 69.513143 276.878893 73.513143 276.878893 
z
" style="fill:#ffffff;opacity:0.8;stroke:#cccccc;stroke-linejoin:miter;"/>
    </g>
    <g id="line2d_22">
     <path d="M 77.513143 81.582018 
L 117.513143 81.582018 
" style="fill:none;stroke:#081d58;stroke-linecap:square;stroke-opacity:0.8;stroke-width:3;"/>
    </g>
    <g id="line2d_23">
     <g>
      <use style="fill:#081d58;fill-opacity:0.8;stroke:#081d58;stroke-opacity:0.8;" x="97.513143" xlink:href="#m986c1ce2df" y="81.582018"/>
     </g>
    </g>
    <g id="text_17">
     <!-- 4 -->
     <g transform="translate(133.513143 88.582018)scale(0.2 -0.2)">
      <use xlink:href="#DejaVuSans-34"/>
     </g>
    </g>
    <g id="line2d_24">
     <path d="M 77.513143 110.938268 
L 117.513143 110.938268 
" style="fill:none;stroke:#253494;stroke-linecap:square;stroke-opacity:0.8;stroke-width:3;"/>
    </g>
    <g id="line2d_25">
     <g>
      <use style="fill:#253494;fill-opacity:0.8;stroke:#253494;stroke-opacity:0.8;" x="97.513143" xlink:href="#m1766ca2cbb" y="110.938268"/>
     </g>
    </g>
    <g id="text_18">
     <!-- 8 -->
     <g transform="translate(133.513143 117.938268)scale(0.2 -0.2)">
      <use xlink:href="#DejaVuSans-38"/>
     </g>
    </g>
    <g id="line2d_26">
     <path d="M 77.513143 140.294518 
L 117.513143 140.294518 
" style="fill:none;stroke:#225ea8;stroke-linecap:square;stroke-opacity:0.8;stroke-width:3;"/>
    </g>
    <g id="line2d_27">
     <g>
      <use style="fill:#225ea8;fill-opacity:0.8;stroke:#225ea8;stroke-opacity:0.8;" x="97.513143" xlink:href="#m3d11b00b1d" y="140.294518"/>
     </g>
    </g>
    <g id="text_19">
     <!-- 16 -->
     <g transform="translate(133.513143 147.294518)scale(0.2 -0.2)">
      <use xlink:href="#DejaVuSans-31"/>
      <use x="63.623047" xlink:href="#DejaVuSans-36"/>
     </g>
    </g>
    <g id="line2d_28">
     <path d="M 77.513143 169.650768 
L 117.513143 169.650768 
" style="fill:none;stroke:#1d91c0;stroke-linecap:square;stroke-opacity:0.8;stroke-width:3;"/>
    </g>
    <g id="line2d_29">
     <g>
      <use style="fill:#1d91c0;fill-opacity:0.8;stroke:#1d91c0;stroke-opacity:0.8;" x="97.513143" xlink:href="#md4cbfc3d6c" y="169.650768"/>
     </g>
    </g>
    <g id="text_20">
     <!-- 32 -->
     <g transform="translate(133.513143 176.650768)scale(0.2 -0.2)">
      <use xlink:href="#DejaVuSans-33"/>
      <use x="63.623047" xlink:href="#DejaVuSans-32"/>
     </g>
    </g>
    <g id="line2d_30">
     <path d="M 77.513143 199.007018 
L 117.513143 199.007018 
" style="fill:none;stroke:#41b6c4;stroke-linecap:square;stroke-opacity:0.8;stroke-width:3;"/>
    </g>
    <g id="line2d_31">
     <g>
      <use style="fill:#41b6c4;fill-opacity:0.8;stroke:#41b6c4;stroke-opacity:0.8;" x="97.513143" xlink:href="#m5ad67a27da" y="199.007018"/>
     </g>
    </g>
    <g id="text_21">
     <!-- 64 -->
     <g transform="translate(133.513143 206.007018)scale(0.2 -0.2)">
      <use xlink:href="#DejaVuSans-36"/>
      <use x="63.623047" xlink:href="#DejaVuSans-34"/>
     </g>
    </g>
    <g id="line2d_32">
     <path d="M 77.513143 228.363268 
L 117.513143 228.363268 
" style="fill:none;stroke:#7fcdbb;stroke-linecap:square;stroke-opacity:0.8;stroke-width:3;"/>
    </g>
    <g id="line2d_33">
     <g>
      <use style="fill:#7fcdbb;fill-opacity:0.8;stroke:#7fcdbb;stroke-opacity:0.8;" x="97.513143" xlink:href="#m121ba39549" y="228.363268"/>
     </g>
    </g>
    <g id="text_22">
     <!-- 128 -->
     <g transform="translate(133.513143 235.363268)scale(0.2 -0.2)">
      <use xlink:href="#DejaVuSans-31"/>
      <use x="63.623047" xlink:href="#DejaVuSans-32"/>
      <use x="127.246094" xlink:href="#DejaVuSans-38"/>
     </g>
    </g>
    <g id="line2d_34">
     <path d="M 77.513143 257.719518 
L 117.513143 257.719518 
" style="fill:none;stroke:#c7e9b4;stroke-linecap:square;stroke-opacity:0.8;stroke-width:3;"/>
    </g>
    <g id="line2d_35">
     <g>
      <use style="fill:#c7e9b4;fill-opacity:0.8;stroke:#c7e9b4;stroke-opacity:0.8;" x="97.513143" xlink:href="#mabec5da0bf" y="257.719518"/>
     </g>
    </g>
    <g id="text_23">
     <!-- 256 -->
     <g transform="translate(133.513143 264.719518)scale(0.2 -0.2)">
      <use xlink:href="#DejaVuSans-32"/>
      <use x="63.623047" xlink:href="#DejaVuSans-35"/>
      <use x="127.246094" xlink:href="#DejaVuSans-36"/>
     </g>
    </g>
   </g>
  </g>
 </g>
 <defs>
  <clipPath id="p37ee401381">
   <rect height="457.940571" width="636.610286" x="59.513143" y="55.385143"/>
  </clipPath>
 </defs>
</svg>
