<svg version="1.1" viewBox="0.0 0.0 856.2467191601049 306.257217847769" fill="none" stroke="none" stroke-linecap="square" stroke-miterlimit="10" xmlns:xlink="http://www.w3.org/1999/xlink" xmlns="http://www.w3.org/2000/svg"><clipPath id="p.0"><path d="m0 0l856.2467 0l0 306.25723l-856.2467 0l0 -306.25723z" clip-rule="nonzero"/></clipPath><g clip-path="url(#p.0)"><path fill="#000000" fill-opacity="0.0" d="m0 0l856.2467 0l0 306.25723l-856.2467 0z" fill-rule="evenodd"/><path fill="#b7b7b7" d="m8.477915 49.148186l178.79063 0l0 98.89219l-178.79063 0z" fill-rule="evenodd"/><path stroke="#000000" stroke-width="1.0" stroke-linejoin="round" stroke-linecap="butt" d="m8.477915 49.148186l178.79063 0l0 98.89219l-178.79063 0z" fill-rule="evenodd"/><path fill="#ffffff" d="m20.47585 63.709816l154.79477 0l0 23.044838l-154.79477 0z" fill-rule="evenodd"/><path fill="#000000" d="m30.35085 80.032234l0 -9.546875l1.171875 0l0 3.421875q0.828125 -0.9375 2.078125 -0.9375q0.765625 0 1.328125 0.296875q0.5625 0.296875 0.8125 0.84375q0.25 0.53125 0.25 1.546875l0 4.375l-1.171875 0l0 -4.375q0 -0.890625 -0.390625 -1.28125q-0.375 -0.40625 -1.078125 -0.40625q-0.515625 0 -0.984375 0.28125q-0.453125 0.265625 -0.65625 0.734375q-0.1875 0.453125 -0.1875 1.265625l0 3.78125l-1.171875 0zm9.974976 -1.046875l0.171875 1.03125q-0.5 0.109375 -0.890625 0.109375q-0.640625 0 -1.0 -0.203125q-0.34375 -0.203125 -0.484375 -0.53125q-0.140625 -0.328125 -0.140625 -1.390625l0 -3.96875l-0.859375 0l0 -0.90625l0.859375 0l0 -1.71875l1.171875 -0.703125l0 2.421875l1.171875 0l0 0.90625l-1.171875 0l0 4.046875q0 0.5 0.046875 0.640625q0.0625 0.140625 0.203125 0.234375q0.140625 0.078125 0.40625 0.078125q0.203125 0 0.515625 -0.046875zm3.7029877 0l0.171875 1.03125q-0.5 0.109375 -0.890625 0.109375q-0.640625 0 -1.0 -0.203125q-0.34375 -0.203125 -0.484375 -0.53125q-0.140625 -0.328125 -0.140625 -1.390625l0 -3.96875l-0.859375 0l0 -0.90625l0.859375 0l0 -1.71875l1.171875 -0.703125l0 2.421875l1.171875 0l0 0.90625l-1.171875 0l0 4.046875q0 0.5 0.046875 0.640625q0.0625 0.140625 0.203125 0.234375q0.140625 0.078125 0.40625 0.078125q0.203125 0 0.515625 -0.046875zm1.1404877 3.703125l0 -9.5625l1.078125 0l0 0.890625q0.375 -0.53125 0.84375 -0.78125q0.484375 -0.265625 1.15625 -0.265625q0.875 0 1.546875 0.453125q0.6875 0.453125 1.03125 1.28125q0.34375 0.828125 0.34375 1.828125q0 1.046875 -0.375 1.90625q-0.375 0.84375 -1.109375 1.296875q-0.71875 0.453125 -1.53125 0.453125q-0.578125 0 -1.046875 -0.25q-0.46875 -0.25 -0.765625 -0.625l0 3.375l-1.171875 0zm1.0625 -6.078125q0 1.34375 0.53125 1.984375q0.546875 0.625 1.3125 0.625q0.78125 0 1.34375 -0.65625q0.5625 -0.65625 0.5625 -2.046875q0 -1.3125 -0.546875 -1.96875q-0.546875 -0.671875 -1.296875 -0.671875q-0.75 0 -1.328125 0.703125q-0.578125 0.703125 -0.578125 2.03125zm6.6781006 -2.15625l0 -1.328125l1.328125 0l0 1.328125l-1.328125 0zm0 5.578125l0 -1.328125l1.328125 0l0 1.328125l-1.328125 0zm2.4998627 0.15625l2.765625 -9.859375l0.9375 0l-2.765625 9.859375l-0.9375 0zm3.7029877 0l2.765625 -9.859375l0.9375 0l-2.765625 9.859375l-0.9375 0zm4.5779877 -8.34375l0 -1.359375l1.1718712 0l0 1.359375l-1.1718712 0zm-1.484375 10.875l0.21875 -1.0q0.359375 0.09375 0.546875 0.09375q0.359375 0 0.53125 -0.25q0.1875 -0.234375 0.1875 -1.1875l0 -7.25l1.1718712 0l0 7.28125q0 1.28125 -0.328125 1.78125q-0.4375 0.65625 -1.4062462 0.65625q-0.484375 0 -0.921875 -0.125zm4.0079613 -6.140625q0 -1.921875 1.078125 -2.84375q0.890625 -0.765625 2.171875 -0.765625q1.421875 0 2.328125 0.9375q0.90625 0.921875 0.90625 2.578125q0 1.328125 -0.40625 2.09375q-0.390625 0.765625 -1.15625 1.1875q-0.765625 0.421875 -1.671875 0.421875q-1.453125 0 -2.359375 -0.921875q-0.890625 -0.9375 -0.890625 -2.6875zm1.203125 0q0 1.328125 0.578125 1.984375q0.59375 0.65625 1.46875 0.65625q0.875 0 1.453125 -0.65625q0.578125 -0.671875 0.578125 -2.03125q0 -1.28125 -0.59375 -1.9375q-0.578125 -0.65625 -1.4375 -0.65625q-0.875 0 -1.46875 0.65625q-0.578125 0.65625 -0.578125 1.984375zm6.1781006 1.390625l1.15625 -0.1875q0.109375 0.703125 0.546875 1.078125q0.453125 0.359375 1.25 0.359375q0.8125 0 1.203125 -0.328125q0.390625 -0.328125 0.390625 -0.765625q0 -0.390625 -0.359375 -0.625q-0.234375 -0.15625 -1.1875 -0.390625q-1.296875 -0.328125 -1.796875 -0.5625q-0.484375 -0.25 -0.75 -0.65625q-0.25 -0.421875 -0.25 -0.9375q0 -0.453125 0.203125 -0.84375q0.21875 -0.40625 0.578125 -0.671875q0.28125 -0.1875 0.75 -0.328125q0.46875 -0.140625 1.015625 -0.140625q0.8125 0 1.421875 0.234375q0.609375 0.234375 0.90625 0.640625q0.296875 0.390625 0.40625 1.0625l-1.140625 0.15625q-0.078125 -0.53125 -0.453125 -0.828125q-0.375 -0.3125 -1.0625 -0.3125q-0.8125 0 -1.15625 0.265625q-0.34375 0.265625 -0.34375 0.625q0 0.234375 0.140625 0.421875q0.15625 0.1875 0.453125 0.3125q0.171875 0.0625 1.03125 0.296875q1.25 0.328125 1.734375 0.546875q0.5 0.203125 0.78125 0.609375q0.28125 0.40625 0.28125 1.0q0 0.59375 -0.34375 1.109375q-0.34375 0.515625 -1.0 0.796875q-0.640625 0.28125 -1.453125 0.28125q-1.34375 0 -2.046875 -0.5625q-0.703125 -0.5625 -0.90625 -1.65625zm11.8671875 -0.15625l1.203125 0.140625q-0.28125 1.0625 -1.0625 1.65625q-0.765625 0.578125 -1.96875 0.578125q-1.515625 0 -2.40625 -0.9375q-0.890625 -0.9375 -0.890625 -2.609375q0 -1.75 0.890625 -2.703125q0.90625 -0.96875 2.34375 -0.96875q1.390625 0 2.265625 0.9375q0.875 0.9375 0.875 2.65625q0 0.109375 0 0.3125l-5.15625 0q0.0625 1.140625 0.640625 1.75q0.578125 0.59375 1.4375 0.59375q0.65625 0 1.109375 -0.328125q0.453125 -0.34375 0.71875 -1.078125zm-3.84375 -1.90625l3.859375 0q-0.078125 -0.859375 -0.4375 -1.296875q-0.5625 -0.6875 -1.453125 -0.6875q-0.8125 0 -1.359375 0.546875q-0.546875 0.53125 -0.609375 1.4375zm6.5218506 6.78125l0 -9.5625l1.078125 0l0 0.890625q0.375 -0.53125 0.84375 -0.78125q0.484375 -0.265625 1.15625 -0.265625q0.875 0 1.546875 0.453125q0.6875 0.453125 1.03125 1.28125q0.34375 0.828125 0.34375 1.828125q0 1.046875 -0.375 1.90625q-0.375 0.84375 -1.109375 1.296875q-0.71875 0.453125 -1.53125 0.453125q-0.578125 0 -1.046875 -0.25q-0.46875 -0.25 -0.765625 -0.625l0 3.375l-1.171875 0zm1.0625 -6.078125q0 1.34375 0.53125 1.984375q0.546875 0.625 1.3125 0.625q0.78125 0 1.34375 -0.65625q0.5625 -0.65625 0.5625 -2.046875q0 -1.3125 -0.546875 -1.96875q-0.546875 -0.671875 -1.296875 -0.671875q-0.75 0 -1.328125 0.703125q-0.578125 0.703125 -0.578125 2.03125zm6.3499756 3.421875l0 -9.546875l1.171875 0l0 3.421875q0.828125 -0.9375 2.078125 -0.9375q0.765625 0 1.328125 0.296875q0.5625 0.296875 0.8125 0.84375q0.25 0.53125 0.25 1.546875l0 4.375l-1.171875 0l0 -4.375q0 -0.890625 -0.390625 -1.28125q-0.375 -0.40625 -1.078125 -0.40625q-0.515625 0 -0.984375 0.28125q-0.453125 0.265625 -0.65625 0.734375q-0.1875 0.453125 -0.1875 1.265625l0 3.78125l-1.171875 0zm7.4124756 0l0 -6.90625l1.046875 0l0 0.96875q0.328125 -0.515625 0.859375 -0.8125q0.546875 -0.3125 1.234375 -0.3125q0.78125 0 1.265625 0.3125q0.484375 0.3125 0.6875 0.890625q0.828125 -1.203125 2.140625 -1.203125q1.03125 0 1.578125 0.578125q0.5625 0.5625 0.5625 1.734375l0 4.75l-1.171875 0l0 -4.359375q0 -0.703125 -0.125 -1.0q-0.109375 -0.3125 -0.40625 -0.5q-0.296875 -0.1875 -0.703125 -0.1875q-0.71875 0 -1.203125 0.484375q-0.484375 0.484375 -0.484375 1.546875l0 4.015625l-1.171875 0l0 -4.484375q0 -0.78125 -0.296875 -1.171875q-0.28125 -0.390625 -0.921875 -0.390625q-0.5 0 -0.921875 0.265625q-0.421875 0.25 -0.609375 0.75q-0.1875 0.5 -0.1875 1.453125l0 3.578125l-1.171875 0zm15.633682 0l0 -1.015625q-0.8125 1.171875 -2.1875 1.171875q-0.609375 0 -1.140625 -0.234375q-0.53125 -0.234375 -0.796875 -0.578125q-0.25 -0.359375 -0.359375 -0.875q-0.0625 -0.34375 -0.0625 -1.09375l0 -4.28125l1.171875 0l0 3.828125q0 0.921875 0.0625 1.234375q0.109375 0.46875 0.46875 0.734375q0.359375 0.25 0.890625 0.25q0.515625 0 0.984375 -0.265625q0.46875 -0.265625 0.65625 -0.734375q0.1875 -0.46875 0.1875 -1.34375l0 -3.703125l1.171875 0l0 6.90625l-1.046875 0zm2.8968506 -8.1875l0 -1.359375l1.171875 0l0 1.359375l-1.171875 0zm0 8.1875l0 -6.90625l1.171875 0l0 6.90625l-1.171875 0zm7.46109 -0.859375q-0.65625 0.5625 -1.265625 0.796875q-0.59375 0.21875 -1.28125 0.21875q-1.140625 0 -1.75 -0.546875q-0.609375 -0.5625 -0.609375 -1.4375q0 -0.5 0.21875 -0.921875q0.234375 -0.421875 0.609375 -0.671875q0.375 -0.25 0.84375 -0.390625q0.34375 -0.078125 1.046875 -0.171875q1.421875 -0.171875 2.09375 -0.40625q0 -0.234375 0 -0.296875q0 -0.71875 -0.328125 -1.015625q-0.453125 -0.390625 -1.34375 -0.390625q-0.8125 0 -1.21875 0.296875q-0.390625 0.28125 -0.578125 1.015625l-1.140625 -0.15625q0.15625 -0.734375 0.515625 -1.1875q0.359375 -0.453125 1.03125 -0.6875q0.671875 -0.25 1.5625 -0.25q0.890625 0 1.4375 0.203125q0.5625 0.203125 0.8125 0.53125q0.265625 0.3125 0.375 0.796875q0.046875 0.296875 0.046875 1.078125l0 1.5625q0 1.625 0.078125 2.0625q0.078125 0.4375 0.296875 0.828125l-1.21875 0q-0.1875 -0.359375 -0.234375 -0.859375zm-0.09375 -2.609375q-0.640625 0.265625 -1.921875 0.4375q-0.71875 0.109375 -1.015625 0.25q-0.296875 0.125 -0.46875 0.375q-0.15625 0.25 -0.15625 0.546875q0 0.46875 0.34375 0.78125q0.359375 0.3125 1.046875 0.3125q0.671875 0 1.203125 -0.296875q0.53125 -0.296875 0.78125 -0.8125q0.1875 -0.390625 0.1875 -1.171875l0 -0.421875zm3.3187256 3.46875l0 -1.328125l1.34375 0l0 1.328125l-1.34375 0zm7.8904877 -2.53125l1.15625 0.15625q-0.1875 1.1875 -0.96875 1.859375q-0.78125 0.671875 -1.921875 0.671875q-1.40625 0 -2.28125 -0.921875q-0.859375 -0.9375 -0.859375 -2.65625q0 -1.125 0.375 -1.96875q0.375 -0.84375 1.125 -1.25q0.765625 -0.421875 1.65625 -0.421875q1.125 0 1.84375 0.578125q0.71875 0.5625 0.921875 1.609375l-1.140625 0.171875q-0.171875 -0.703125 -0.59375 -1.046875q-0.40625 -0.359375 -0.984375 -0.359375q-0.890625 0 -1.453125 0.640625q-0.546875 0.640625 -0.546875 2.0q0 1.40625 0.53125 2.03125q0.546875 0.625 1.40625 0.625q0.6875 0 1.140625 -0.421875q0.46875 -0.421875 0.59375 -1.296875zm6.6640625 1.671875q-0.65625 0.5625 -1.265625 0.796875q-0.59375 0.21875 -1.28125 0.21875q-1.140625 0 -1.75 -0.546875q-0.609375 -0.5625 -0.609375 -1.4375q0 -0.5 0.21875 -0.921875q0.234375 -0.421875 0.609375 -0.671875q0.375 -0.25 0.84375 -0.390625q0.34375 -0.078125 1.046875 -0.171875q1.421875 -0.171875 2.09375 -0.40625q0 -0.234375 0 -0.296875q0 -0.71875 -0.328125 -1.015625q-0.453125 -0.390625 -1.34375 -0.390625q-0.8125 0 -1.21875 0.296875q-0.390625 0.28125 -0.578125 1.015625l-1.140625 -0.15625q0.15625 -0.734375 0.515625 -1.1875q0.359375 -0.453125 1.03125 -0.6875q0.671875 -0.25 1.5625 -0.25q0.890625 0 1.4375 0.203125q0.5625 0.203125 0.8125 0.53125q0.265625 0.3125 0.375 0.796875q0.046875 0.296875 0.046875 1.078125l0 1.5625q0 1.625 0.078125 2.0625q0.078125 0.4375 0.296875 0.828125l-1.21875 0q-0.1875 -0.359375 -0.234375 -0.859375zm-0.09375 -2.609375q-0.640625 0.265625 -1.921875 0.4375q-0.71875 0.109375 -1.015625 0.25q-0.296875 0.125 -0.46875 0.375q-0.15625 0.25 -0.15625 0.546875q0 0.46875 0.34375 0.78125q0.359375 0.3125 1.046875 0.3125q0.671875 0 1.203125 -0.296875q0.53125 -0.296875 0.78125 -0.8125q0.1875 -0.390625 0.1875 -1.171875l0 -0.421875z" fill-rule="nonzero"/><path fill="#666666" d="m247.96031 34.136482l78.56694 0l0 155.10236l-78.56694 0z" fill-rule="evenodd"/><path fill="#515151" d="m326.52725 34.136482l26.188965 -26.188976l0 155.10236l-26.188965 26.18898z" fill-rule="evenodd"/><path fill="#848484" d="m247.96031 34.136482l26.18898 -26.188976l78.566925 0l-26.188965 26.188976z" fill-rule="evenodd"/><path fill="#000000" fill-opacity="0.0" d="m247.96031 34.136482l26.18898 -26.188976l78.566925 0l0 155.10236l-26.188965 26.18898l-78.56694 0zm0 0l78.56694 0l26.188965 -26.188976m-26.188965 26.188976l0 155.10236" fill-rule="evenodd"/><path stroke="#000000" stroke-width="1.0" stroke-linejoin="round" stroke-linecap="butt" d="m247.96031 34.136482l26.18898 -26.188976l78.566925 0l0 155.10236l-26.188965 26.18898l-78.56694 0zm0 0l78.56694 0l26.188965 -26.188976m-26.188965 26.188976l0 155.10236" fill-rule="evenodd"/><path fill="#666666" d="m413.408 34.136482l78.566925 0l0 155.10236l-78.566925 0z" fill-rule="evenodd"/><path fill="#515151" d="m491.9749 34.136482l26.188965 -26.188976l0 155.10236l-26.188965 26.18898z" fill-rule="evenodd"/><path fill="#848484" d="m413.408 34.136482l26.188965 -26.188976l78.566925 0l-26.188965 26.188976z" fill-rule="evenodd"/><path fill="#000000" fill-opacity="0.0" d="m413.408 34.136482l26.188965 -26.188976l78.566925 0l0 155.10236l-26.188965 26.18898l-78.566925 0zm0 0l78.566925 0l26.188965 -26.188976m-26.188965 26.188976l0 155.10236" fill-rule="evenodd"/><path stroke="#000000" stroke-width="1.0" stroke-linejoin="round" stroke-linecap="butt" d="m413.408 34.136482l26.188965 -26.188976l78.566925 0l0 155.10236l-26.188965 26.18898l-78.566925 0zm0 0l78.566925 0l26.188965 -26.188976m-26.188965 26.188976l0 155.10236" fill-rule="evenodd"/><path fill="#000000" fill-opacity="0.0" d="m38.879265 148.03937l117.984245 0l0 26.29921l-117.984245 0z" fill-rule="evenodd"/><path fill="#000000" d="m65.895134 167.27937l0.625 -2.953125l-2.34375 -4.671875l1.09375 0l1.109375 2.21875q0.375 0.734375 0.71875 1.5625q0.390625 -0.703125 1.0625 -1.546875l1.78125 -2.234375l1.21875 0l-3.640625 4.75l-0.59375 2.875l-1.03125 0zm4.6545105 -2.09375q0 -1.625 0.953125 -2.6875q0.796875 -0.875 2.0625 -0.875q1.0 0 1.609375 0.625q0.609375 0.625 0.609375 1.6875q0 0.953125 -0.390625 1.78125q-0.375 0.8125 -1.09375 1.25q-0.703125 0.4375 -1.484375 0.4375q-0.640625 0 -1.171875 -0.265625q-0.53125 -0.28125 -0.8125 -0.78125q-0.28125 -0.515625 -0.28125 -1.171875zm0.953125 -0.09375q0 0.78125 0.375 1.1875q0.375 0.390625 0.9375 0.390625q0.3125 0 0.609375 -0.109375q0.296875 -0.125 0.546875 -0.375q0.25 -0.25 0.421875 -0.5625q0.1875 -0.328125 0.296875 -0.703125q0.171875 -0.515625 0.171875 -0.984375q0 -0.75 -0.390625 -1.15625q-0.375 -0.421875 -0.9375 -0.421875q-0.453125 0 -0.8125 0.21875q-0.359375 0.203125 -0.65625 0.609375q-0.296875 0.40625 -0.4375 0.953125q-0.125 0.53125 -0.125 0.953125zm8.582748 1.1875q-1.0 1.125 -2.03125 1.125q-0.640625 0 -1.03125 -0.359375q-0.390625 -0.375 -0.390625 -0.90625q0 -0.34375 0.171875 -1.203125l0.671875 -3.1875l0.9375 0l-0.734375 3.53125q-0.09375 0.453125 -0.09375 0.6875q0 0.3125 0.1875 0.5q0.1875 0.171875 0.5625 0.171875q0.390625 0 0.765625 -0.1875q0.375 -0.203125 0.640625 -0.53125q0.28125 -0.328125 0.453125 -0.78125q0.109375 -0.28125 0.265625 -1.0l0.5 -2.390625l0.9375 0l-1.15625 5.53125l-0.859375 0l0.203125 -1.0zm2.1608734 1.0l1.15625 -5.53125l0.828125 0l-0.234375 1.140625q0.421875 -0.640625 0.828125 -0.953125q0.40625 -0.3125 0.84375 -0.3125q0.28125 0 0.6875 0.203125l-0.390625 0.875q-0.234375 -0.171875 -0.53125 -0.171875q-0.5 0 -1.015625 0.5625q-0.515625 0.546875 -0.8125 1.96875l-0.46875 2.21875l-0.890625 0zm10.321762 -2.015625l0.9375 0.09375q-0.359375 1.046875 -1.015625 1.546875q-0.640625 0.5 -1.46875 0.5q-0.90625 0 -1.46875 -0.578125q-0.5625 -0.59375 -0.5625 -1.640625q0 -0.890625 0.359375 -1.765625q0.359375 -0.875 1.03125 -1.328125q0.671875 -0.46875 1.53125 -0.46875q0.890625 0 1.40625 0.515625q0.515625 0.5 0.515625 1.328125l-0.921875 0.0625q0 -0.53125 -0.3125 -0.828125q-0.296875 -0.296875 -0.78125 -0.296875q-0.5625 0 -0.984375 0.359375q-0.40625 0.359375 -0.65625 1.09375q-0.234375 0.734375 -0.234375 1.40625q0 0.703125 0.3125 1.0625q0.3125 0.34375 0.78125 0.34375q0.453125 0 0.859375 -0.34375q0.421875 -0.34375 0.671875 -1.0625zm1.671875 -0.078125q0 -1.625 0.953125 -2.6875q0.796875 -0.875 2.0625 -0.875q1.0 0 1.609375 0.625q0.609375 0.625 0.609375 1.6875q0 0.953125 -0.390625 1.78125q-0.375 0.8125 -1.09375 1.25q-0.703125 0.4375 -1.484375 0.4375q-0.640625 0 -1.171875 -0.265625q-0.53125 -0.28125 -0.8125 -0.78125q-0.28125 -0.515625 -0.28125 -1.171875zm0.953125 -0.09375q0 0.78125 0.375 1.1875q0.375 0.390625 0.9375 0.390625q0.3125 0 0.609375 -0.109375q0.296875 -0.125 0.546875 -0.375q0.25 -0.25 0.421875 -0.5625q0.1875 -0.328125 0.296875 -0.703125q0.171875 -0.515625 0.171875 -0.984375q0 -0.75 -0.390625 -1.15625q-0.375 -0.421875 -0.9375 -0.421875q-0.453125 0 -0.8125 0.21875q-0.359375 0.203125 -0.65625 0.609375q-0.296875 0.40625 -0.4375 0.953125q-0.125 0.53125 -0.125 0.953125zm4.8014984 2.1875l1.15625 -5.53125l0.953125 0l-0.203125 0.921875q0.53125 -0.59375 0.9375 -0.8125q0.421875 -0.234375 0.90625 -0.234375q0.515625 0 0.859375 0.28125q0.34375 0.265625 0.453125 0.765625q0.421875 -0.53125 0.890625 -0.78125q0.46875 -0.265625 0.984375 -0.265625q0.6875 0 1.03125 0.328125q0.34375 0.328125 0.34375 0.921875q0 0.265625 -0.125 0.84375l-0.734375 3.5625l-0.9375 0l0.75 -3.65625q0.109375 -0.4375 0.109375 -0.640625q0 -0.265625 -0.171875 -0.421875q-0.171875 -0.15625 -0.484375 -0.15625q-0.421875 0 -0.859375 0.265625q-0.4375 0.25 -0.6875 0.671875q-0.234375 0.40625 -0.421875 1.265625l-0.5625 2.671875l-0.9375 0l0.78125 -3.734375q0.078125 -0.375 0.078125 -0.53125q0 -0.28125 -0.171875 -0.4375q-0.171875 -0.171875 -0.4375 -0.171875q-0.40625 0 -0.84375 0.265625q-0.4375 0.25 -0.71875 0.703125q-0.265625 0.453125 -0.4375 1.296875l-0.546875 2.609375l-0.953125 0zm8.4236145 2.125l1.59375 -7.65625l0.875 0l-0.15625 0.78125q0.46875 -0.515625 0.84375 -0.703125q0.390625 -0.203125 0.828125 -0.203125q0.78125 0 1.296875 0.578125q0.53125 0.578125 0.53125 1.65625q0 0.859375 -0.296875 1.578125q-0.28125 0.703125 -0.703125 1.140625q-0.40625 0.421875 -0.84375 0.625q-0.421875 0.203125 -0.859375 0.203125q-1.0 0 -1.546875 -1.015625l-0.625 3.015625l-0.9375 0zm1.859375 -4.390625q0 0.625 0.09375 0.859375q0.125 0.34375 0.421875 0.5625q0.296875 0.203125 0.6875 0.203125q0.8125 0 1.3125 -0.90625q0.5 -0.921875 0.5 -1.875q0 -0.703125 -0.34375 -1.078125q-0.328125 -0.390625 -0.828125 -0.390625q-0.359375 0 -0.671875 0.1875q-0.296875 0.1875 -0.5625 0.578125q-0.265625 0.375 -0.4375 0.921875q-0.171875 0.53125 -0.171875 0.9375zm8.301498 1.265625q-1.0 1.125 -2.03125 1.125q-0.640625 0 -1.03125 -0.359375q-0.390625 -0.375 -0.390625 -0.90625q0 -0.34375 0.171875 -1.203125l0.671875 -3.1875l0.9375 0l-0.734375 3.53125q-0.09375 0.453125 -0.09375 0.6875q0 0.3125 0.1875 0.5q0.1875 0.171875 0.5625 0.171875q0.390625 0 0.765625 -0.1875q0.375 -0.203125 0.640625 -0.53125q0.28125 -0.328125 0.453125 -0.78125q0.109375 -0.28125 0.265625 -1.0l0.5 -2.390625l0.9375 0l-1.15625 5.53125l-0.859375 0l0.203125 -1.0zm4.3639984 0.234375l-0.15625 0.765625q-0.34375 0.09375 -0.65625 0.09375q-0.5625 0 -0.90625 -0.28125q-0.25 -0.203125 -0.25 -0.5625q0 -0.1875 0.140625 -0.84375l0.671875 -3.203125l-0.75 0l0.15625 -0.734375l0.75 0l0.28125 -1.359375l1.078125 -0.640625l-0.421875 2.0l0.921875 0l-0.15625 0.734375l-0.921875 0l-0.640625 3.046875q-0.109375 0.59375 -0.109375 0.703125q0 0.171875 0.09375 0.265625q0.09375 0.078125 0.3125 0.078125q0.3125 0 0.5625 -0.0625zm4.8043976 -1.109375l0.9218826 0.09375q-0.203125 0.671875 -0.9218826 1.296875q-0.703125 0.609375 -1.6875 0.609375q-0.609375 0 -1.125 -0.28125q-0.5 -0.28125 -0.78125 -0.828125q-0.265625 -0.546875 -0.265625 -1.234375q0 -0.90625 0.421875 -1.75q0.421875 -0.859375 1.078125 -1.265625q0.671875 -0.421875 1.453125 -0.421875q0.984375 0 1.5781326 0.625q0.59375 0.609375 0.59375 1.671875q0 0.40625 -0.078125 0.828125l-4.0625076 0q-0.03125 0.15625 -0.03125 0.296875q0 0.765625 0.359375 1.1875q0.359375 0.40625 0.875 0.40625q0.484375 0 0.953125 -0.3125q0.46875 -0.328125 0.71875 -0.921875zm-2.734375 -1.375l3.1093826 0q0 -0.140625 0 -0.203125q0 -0.703125 -0.35938263 -1.078125q-0.34375 -0.390625 -0.90625 -0.390625q-0.609375 0 -1.109375 0.421875q-0.484375 0.421875 -0.734375 1.25zm4.614006 3.25l1.15625 -5.53125l0.828125 0l-0.234375 1.140625q0.421875 -0.640625 0.828125 -0.953125q0.40625 -0.3125 0.84375 -0.3125q0.28125 0 0.6875 0.203125l-0.390625 0.875q-0.234375 -0.171875 -0.53125 -0.171875q-0.5 0 -1.015625 0.5625q-0.515625 0.546875 -0.8125 1.96875l-0.46875 2.21875l-0.890625 0z" fill-rule="nonzero"/><path fill="#000000" fill-opacity="0.0" d="m217.74803 194.6063l138.74016 0l0 26.299225l-138.74016 0z" fill-rule="evenodd"/><path fill="#000000" d="m231.3554 213.8463l1.59375 -7.625l3.203125 0q0.953125 0 1.4375 0.15625q0.484375 0.15625 0.765625 0.59375q0.28125 0.4375 0.28125 1.109375q0 0.921875 -0.609375 1.546875q-0.609375 0.609375 -1.96875 0.796875q0.421875 0.296875 0.625 0.59375q0.484375 0.671875 0.78125 1.390625l0.578125 1.4375l-1.140625 0l-0.546875 -1.421875q-0.296875 -0.765625 -0.671875 -1.328125q-0.265625 -0.390625 -0.546875 -0.515625q-0.265625 -0.125 -0.875 -0.125l-1.171875 0l-0.71875 3.390625l-1.015625 0zm1.90625 -4.21875l1.40625 0q0.96875 0 1.265625 -0.015625q0.578125 -0.0625 0.953125 -0.265625q0.375 -0.203125 0.578125 -0.546875q0.203125 -0.34375 0.203125 -0.734375q0 -0.34375 -0.15625 -0.578125q-0.15625 -0.25 -0.40625 -0.34375q-0.234375 -0.09375 -0.828125 -0.09375l-2.484375 0l-0.53125 2.578125zm9.695602 2.34375l0.921875 0.09375q-0.203125 0.671875 -0.921875 1.296875q-0.703125 0.609375 -1.6875 0.609375q-0.609375 0 -1.125 -0.28125q-0.5 -0.28125 -0.78125 -0.828125q-0.265625 -0.546875 -0.265625 -1.234375q0 -0.90625 0.421875 -1.75q0.421875 -0.859375 1.078125 -1.265625q0.671875 -0.421875 1.453125 -0.421875q0.984375 0 1.578125 0.625q0.59375 0.609375 0.59375 1.671875q0 0.40625 -0.078125 0.828125l-4.0625 0q-0.03125 0.15625 -0.03125 0.296875q0 0.765625 0.359375 1.1875q0.359375 0.40625 0.875 0.40625q0.484375 0 0.953125 -0.3125q0.46875 -0.328125 0.71875 -0.921875zm-2.734375 -1.375l3.109375 0q0 -0.140625 0 -0.203125q0 -0.703125 -0.359375 -1.078125q-0.34375 -0.390625 -0.90625 -0.390625q-0.609375 0 -1.109375 0.421875q-0.484375 0.421875 -0.734375 1.25zm4.6921234 1.359375l0.953125 -0.0625q0 0.40625 0.125 0.703125q0.125 0.28125 0.453125 0.46875q0.34375 0.171875 0.78125 0.171875q0.625 0 0.9375 -0.25q0.3125 -0.25 0.3125 -0.578125q0 -0.25 -0.1875 -0.46875q-0.1875 -0.21875 -0.9375 -0.53125q-0.75 -0.328125 -0.953125 -0.453125q-0.34375 -0.21875 -0.53125 -0.5q-0.171875 -0.296875 -0.171875 -0.671875q0 -0.65625 0.515625 -1.125q0.53125 -0.46875 1.453125 -0.46875q1.046875 0 1.59375 0.484375q0.546875 0.484375 0.5625 1.265625l-0.921875 0.0625q-0.015625 -0.5 -0.359375 -0.78125q-0.328125 -0.296875 -0.9375 -0.296875q-0.484375 0 -0.765625 0.234375q-0.265625 0.21875 -0.265625 0.46875q0 0.265625 0.234375 0.46875q0.15625 0.125 0.8125 0.40625q1.078125 0.46875 1.359375 0.734375q0.453125 0.4375 0.453125 1.0625q0 0.40625 -0.265625 0.8125q-0.25 0.390625 -0.765625 0.625q-0.515625 0.234375 -1.21875 0.234375q-0.953125 0 -1.625 -0.46875q-0.671875 -0.484375 -0.640625 -1.546875zm5.40625 -0.203125q0 -1.625 0.953125 -2.6875q0.796875 -0.875 2.0625 -0.875q1.0 0 1.609375 0.625q0.609375 0.625 0.609375 1.6875q0 0.953125 -0.390625 1.78125q-0.375 0.8125 -1.09375 1.25q-0.703125 0.4375 -1.484375 0.4375q-0.640625 0 -1.171875 -0.265625q-0.53125 -0.28125 -0.8125 -0.78125q-0.28125 -0.515625 -0.28125 -1.171875zm0.953125 -0.09375q0 0.78125 0.375 1.1875q0.375 0.390625 0.9375 0.390625q0.3125 0 0.609375 -0.109375q0.296875 -0.125 0.546875 -0.375q0.25 -0.25 0.421875 -0.5625q0.1875 -0.328125 0.296875 -0.703125q0.171875 -0.515625 0.171875 -0.984375q0 -0.75 -0.390625 -1.15625q-0.375 -0.421875 -0.9375 -0.421875q-0.453125 0 -0.8125 0.21875q-0.359375 0.203125 -0.65625 0.609375q-0.296875 0.40625 -0.4375 0.953125q-0.125 0.53125 -0.125 0.953125zm4.7389984 2.1875l1.59375 -7.625l0.9375 0l-1.59375 7.625l-0.9375 0zm3.8362427 0l-0.90625 -5.53125l0.921875 0l0.46875 3.046875q0.078125 0.5 0.1875 1.625q0.265625 -0.578125 0.6875 -1.34375l1.859375 -3.328125l0.984375 0l-3.15625 5.53125l-1.046875 0zm5.265625 -6.5625l0.234375 -1.0625l0.921875 0l-0.21875 1.0625l-0.9375 0zm-1.375 6.5625l1.15625 -5.53125l0.953125 0l-1.15625 5.53125l-0.953125 0zm2.4143372 0l1.15625 -5.53125l0.84375 0l-0.203125 0.96875q0.5625 -0.5625 1.046875 -0.828125q0.484375 -0.265625 0.984375 -0.265625q0.671875 0 1.046875 0.375q0.390625 0.359375 0.390625 0.96875q0 0.3125 -0.140625 0.96875l-0.703125 3.34375l-0.9375 0l0.734375 -3.5q0.109375 -0.515625 0.109375 -0.75q0 -0.28125 -0.1875 -0.453125q-0.1875 -0.171875 -0.546875 -0.171875q-0.734375 0 -1.296875 0.53125q-0.5625 0.515625 -0.828125 1.765625l-0.53125 2.578125l-0.9375 0zm5.8640137 0.5l0.953125 0.09375q0 0.3125 0.078125 0.46875q0.09375 0.171875 0.28125 0.265625q0.265625 0.109375 0.671875 0.109375q0.84375 0 1.21875 -0.4375q0.25 -0.296875 0.453125 -1.296875l0.09375 -0.453125q-0.734375 0.75 -1.5625 0.75q-0.828125 0 -1.40625 -0.609375q-0.5625 -0.625 -0.5625 -1.75q0 -0.9375 0.4375 -1.71875q0.453125 -0.78125 1.0625 -1.171875q0.625 -0.40625 1.265625 -0.40625q1.09375 0 1.6875 1.03125l0.1875 -0.90625l0.859375 0l-1.109375 5.34375q-0.1875 0.875 -0.484375 1.359375q-0.296875 0.5 -0.828125 0.765625q-0.53125 0.28125 -1.21875 0.28125q-0.65625 0 -1.140625 -0.171875q-0.484375 -0.171875 -0.71875 -0.515625q-0.234375 -0.328125 -0.234375 -0.75q0 -0.125 0.015625 -0.28125zm1.1875 -2.953125q0 0.578125 0.109375 0.859375q0.15625 0.40625 0.4375 0.625q0.296875 0.203125 0.640625 0.203125q0.46875 0 0.921875 -0.328125q0.453125 -0.328125 0.734375 -1.0q0.296875 -0.6875 0.296875 -1.3125q0 -0.671875 -0.390625 -1.078125q-0.375 -0.40625 -0.921875 -0.40625q-0.34375 0 -0.671875 0.1875q-0.3125 0.1875 -0.59375 0.5625q-0.28125 0.375 -0.421875 0.90625q-0.140625 0.515625 -0.140625 0.78125zm7.918396 2.453125l1.609375 -7.625l0.984375 0l1.28125 2.859375q0.59375 1.3125 0.9375 2.203125q0.1875 0.515625 0.453125 1.40625q0.140625 -0.96875 0.359375 -1.984375l0.9375 -4.484375l0.984375 0l-1.59375 7.625l-1.0 0l-1.90625 -4.40625q-0.5 -1.171875 -0.78125 -2.0625q-0.078125 0.75 -0.296875 1.828125l-0.96875 4.640625l-1.0 0zm11.258087 -0.6875q-0.484375 0.421875 -0.9375 0.625q-0.453125 0.1875 -0.96875 0.1875q-0.765625 0 -1.234375 -0.453125q-0.46875 -0.453125 -0.46875 -1.15625q0 -0.453125 0.203125 -0.8125q0.21875 -0.359375 0.5625 -0.5625q0.359375 -0.21875 0.859375 -0.3125q0.3125 -0.0625 1.203125 -0.09375q0.890625 -0.046875 1.265625 -0.203125q0.109375 -0.375 0.109375 -0.640625q0 -0.328125 -0.234375 -0.515625q-0.328125 -0.25 -0.953125 -0.25q-0.59375 0 -0.96875 0.265625q-0.375 0.25 -0.546875 0.734375l-0.953125 -0.078125q0.28125 -0.828125 0.90625 -1.265625q0.640625 -0.4375 1.609375 -0.4375q1.015625 0 1.625 0.5q0.453125 0.359375 0.453125 0.9375q0 0.453125 -0.125 1.03125l-0.3125 1.375q-0.140625 0.65625 -0.140625 1.0625q0 0.265625 0.109375 0.75l-0.953125 0q-0.078125 -0.265625 -0.109375 -0.6875zm0.34375 -2.109375q-0.1875 0.078125 -0.421875 0.125q-0.21875 0.03125 -0.75 0.078125q-0.828125 0.078125 -1.171875 0.1875q-0.328125 0.109375 -0.5 0.359375q-0.171875 0.234375 -0.171875 0.53125q0 0.40625 0.265625 0.65625q0.28125 0.25 0.78125 0.25q0.46875 0 0.890625 -0.234375q0.4375 -0.25 0.6875 -0.6875q0.25 -0.453125 0.390625 -1.265625zm1.8483887 2.796875l1.15625 -5.53125l0.953125 0l-0.203125 0.921875q0.53125 -0.59375 0.9375 -0.8125q0.421875 -0.234375 0.90625 -0.234375q0.515625 0 0.859375 0.28125q0.34375 0.265625 0.453125 0.765625q0.421875 -0.53125 0.890625 -0.78125q0.46875 -0.265625 0.984375 -0.265625q0.6875 0 1.03125 0.328125q0.34375 0.328125 0.34375 0.921875q0 0.265625 -0.125 0.84375l-0.734375 3.5625l-0.9375 0l0.75 -3.65625q0.109375 -0.4375 0.109375 -0.640625q0 -0.265625 -0.171875 -0.421875q-0.171875 -0.15625 -0.484375 -0.15625q-0.421875 0 -0.859375 0.265625q-0.4375 0.25 -0.6875 0.671875q-0.234375 0.40625 -0.421875 1.265625l-0.5625 2.671875l-0.9375 0l0.78125 -3.734375q0.078125 -0.375 0.078125 -0.53125q0 -0.28125 -0.171875 -0.4375q-0.171875 -0.171875 -0.4375 -0.171875q-0.40625 0 -0.84375 0.265625q-0.4375 0.25 -0.71875 0.703125q-0.265625 0.453125 -0.4375 1.296875l-0.546875 2.609375l-0.953125 0zm12.9392395 -1.875l0.921875 0.09375q-0.203125 0.671875 -0.921875 1.296875q-0.703125 0.609375 -1.6875 0.609375q-0.609375 0 -1.125 -0.28125q-0.5 -0.28125 -0.78125 -0.828125q-0.265625 -0.546875 -0.265625 -1.234375q0 -0.90625 0.421875 -1.75q0.421875 -0.859375 1.078125 -1.265625q0.671875 -0.421875 1.453125 -0.421875q0.984375 0 1.578125 0.625q0.59375 0.609375 0.59375 1.671875q0 0.40625 -0.078125 0.828125l-4.0625 0q-0.03125 0.15625 -0.03125 0.296875q0 0.765625 0.359375 1.1875q0.359375 0.40625 0.875 0.40625q0.484375 0 0.953125 -0.3125q0.46875 -0.328125 0.71875 -0.921875zm-2.734375 -1.375l3.109375 0q0 -0.140625 0 -0.203125q0 -0.703125 -0.359375 -1.078125q-0.34375 -0.390625 -0.90625 -0.390625q-0.609375 0 -1.109375 0.421875q-0.484375 0.421875 -0.734375 1.25zm7.965271 0.78125l1.0 -0.09375l-0.015625 0.265625q0 0.4375 0.203125 0.8125q0.203125 0.359375 0.671875 0.5625q0.46875 0.203125 1.109375 0.203125q0.921875 0 1.40625 -0.390625q0.484375 -0.40625 0.484375 -0.921875q0 -0.359375 -0.265625 -0.65625q-0.25 -0.296875 -1.421875 -0.796875q-0.890625 -0.390625 -1.21875 -0.59375q-0.515625 -0.34375 -0.765625 -0.734375q-0.234375 -0.40625 -0.234375 -0.90625q0 -0.59375 0.3125 -1.0625q0.328125 -0.484375 0.9375 -0.734375q0.625 -0.25 1.40625 -0.25q0.9375 0 1.578125 0.3125q0.640625 0.3125 0.921875 0.84375q0.296875 0.515625 0.296875 0.984375q0 0.046875 0 0.15625l-0.984375 0.078125q0 -0.3125 -0.0625 -0.5q-0.109375 -0.3125 -0.328125 -0.53125q-0.21875 -0.21875 -0.609375 -0.34375q-0.375 -0.140625 -0.84375 -0.140625q-0.828125 0 -1.296875 0.375q-0.359375 0.28125 -0.359375 0.75q0 0.28125 0.140625 0.515625q0.15625 0.21875 0.53125 0.421875q0.28125 0.15625 1.296875 0.609375q0.8125 0.359375 1.125 0.5625q0.421875 0.28125 0.640625 0.671875q0.234375 0.390625 0.234375 0.890625q0 0.625 -0.390625 1.15625q-0.375 0.515625 -1.046875 0.796875q-0.65625 0.28125 -1.515625 0.28125q-1.296875 0 -2.125 -0.5625q-0.8125 -0.5625 -0.8125 -2.03125zm10.7638855 0.59375l0.921875 0.09375q-0.203125 0.671875 -0.921875 1.296875q-0.703125 0.609375 -1.6875 0.609375q-0.609375 0 -1.125 -0.28125q-0.5 -0.28125 -0.78125 -0.828125q-0.265625 -0.546875 -0.265625 -1.234375q0 -0.90625 0.421875 -1.75q0.421875 -0.859375 1.078125 -1.265625q0.671875 -0.421875 1.453125 -0.421875q0.984375 0 1.578125 0.625q0.59375 0.609375 0.59375 1.671875q0 0.40625 -0.078125 0.828125l-4.0625 0q-0.03125 0.15625 -0.03125 0.296875q0 0.765625 0.359375 1.1875q0.359375 0.40625 0.875 0.40625q0.484375 0 0.953125 -0.3125q0.46875 -0.328125 0.71875 -0.921875zm-2.734375 -1.375l3.109375 0q0 -0.140625 0 -0.203125q0 -0.703125 -0.359375 -1.078125q-0.34375 -0.390625 -0.90625 -0.390625q-0.609375 0 -1.109375 0.421875q-0.484375 0.421875 -0.734375 1.25zm4.613983 3.25l1.15625 -5.53125l0.828125 0l-0.234375 1.140625q0.421875 -0.640625 0.828125 -0.953125q0.40625 -0.3125 0.84375 -0.3125q0.28125 0 0.6875 0.203125l-0.390625 0.875q-0.234375 -0.171875 -0.53125 -0.171875q-0.5 0 -1.015625 0.5625q-0.515625 0.546875 -0.8125 1.96875l-0.46875 2.21875l-0.890625 0zm4.9392395 0l-0.90625 -5.53125l0.921875 0l0.46875 3.046875q0.078125 0.5 0.1875 1.625q0.265625 -0.578125 0.6875 -1.34375l1.859375 -3.328125l0.984375 0l-3.15625 5.53125l-1.046875 0zm7.984375 -1.875l0.921875 0.09375q-0.203125 0.671875 -0.921875 1.296875q-0.703125 0.609375 -1.6875 0.609375q-0.609375 0 -1.125 -0.28125q-0.5 -0.28125 -0.78125 -0.828125q-0.265625 -0.546875 -0.265625 -1.234375q0 -0.90625 0.421875 -1.75q0.421875 -0.859375 1.078125 -1.265625q0.671875 -0.421875 1.453125 -0.421875q0.984375 0 1.578125 0.625q0.59375 0.609375 0.59375 1.671875q0 0.40625 -0.078125 0.828125l-4.0625 0q-0.03125 0.15625 -0.03125 0.296875q0 0.765625 0.359375 1.1875q0.359375 0.40625 0.875 0.40625q0.484375 0 0.953125 -0.3125q0.46875 -0.328125 0.71875 -0.921875zm-2.734375 -1.375l3.109375 0q0 -0.140625 0 -0.203125q0 -0.703125 -0.359375 -1.078125q-0.34375 -0.390625 -0.90625 -0.390625q-0.609375 0 -1.109375 0.421875q-0.484375 0.421875 -0.734375 1.25zm4.6140137 3.25l1.15625 -5.53125l0.828125 0l-0.234375 1.140625q0.421875 -0.640625 0.828125 -0.953125q0.40625 -0.3125 0.84375 -0.3125q0.28125 0 0.6875 0.203125l-0.390625 0.875q-0.234375 -0.171875 -0.53125 -0.171875q-0.5 0 -1.015625 0.5625q-0.515625 0.546875 -0.8125 1.96875l-0.46875 2.21875l-0.890625 0z" fill-rule="nonzero"/><path fill="#000000" fill-opacity="0.0" d="m386.5748 194.6063l138.74014 0l0 26.299225l-138.74014 0z" fill-rule="evenodd"/><path fill="#000000" d="m412.32394 213.8463l1.59375 -7.625l3.203125 0q0.953125 0 1.4375 0.15625q0.484375 0.15625 0.765625 0.59375q0.28125 0.4375 0.28125 1.109375q0 0.921875 -0.609375 1.546875q-0.609375 0.609375 -1.96875 0.796875q0.421875 0.296875 0.625 0.59375q0.484375 0.671875 0.78125 1.390625l0.578125 1.4375l-1.140625 0l-0.546875 -1.421875q-0.296875 -0.765625 -0.671875 -1.328125q-0.265625 -0.390625 -0.546875 -0.515625q-0.265625 -0.125 -0.875 -0.125l-1.171875 0l-0.71875 3.390625l-1.015625 0zm1.90625 -4.21875l1.40625 0q0.96875 0 1.265625 -0.015625q0.578125 -0.0625 0.953125 -0.265625q0.375 -0.203125 0.578125 -0.546875q0.203125 -0.34375 0.203125 -0.734375q0 -0.34375 -0.15625 -0.578125q-0.15625 -0.25 -0.40625 -0.34375q-0.234375 -0.09375 -0.828125 -0.09375l-2.484375 0l-0.53125 2.578125zm5.8049927 2.125q0 -1.625 0.953125 -2.6875q0.796875 -0.875 2.0625 -0.875q1.0 0 1.609375 0.625q0.609375 0.625 0.609375 1.6875q0 0.953125 -0.390625 1.78125q-0.375 0.8125 -1.09375 1.25q-0.703125 0.4375 -1.484375 0.4375q-0.640625 0 -1.171875 -0.265625q-0.53125 -0.28125 -0.8125 -0.78125q-0.28125 -0.515625 -0.28125 -1.171875zm0.953125 -0.09375q0 0.78125 0.375 1.1875q0.375 0.390625 0.9375 0.390625q0.3125 0 0.609375 -0.109375q0.296875 -0.125 0.546875 -0.375q0.25 -0.25 0.421875 -0.5625q0.1875 -0.328125 0.296875 -0.703125q0.171875 -0.515625 0.171875 -0.984375q0 -0.75 -0.390625 -1.15625q-0.375 -0.421875 -0.9375 -0.421875q-0.453125 0 -0.8125 0.21875q-0.359375 0.203125 -0.65625 0.609375q-0.296875 0.40625 -0.4375 0.953125q-0.125 0.53125 -0.125 0.953125zm4.973358 0.09375q0 -1.625 0.953125 -2.6875q0.796875 -0.875 2.0625 -0.875q1.0 0 1.609375 0.625q0.609375 0.625 0.609375 1.6875q0 0.953125 -0.390625 1.78125q-0.375 0.8125 -1.09375 1.25q-0.703125 0.4375 -1.484375 0.4375q-0.640625 0 -1.171875 -0.265625q-0.53125 -0.28125 -0.8125 -0.78125q-0.28125 -0.515625 -0.28125 -1.171875zm0.953125 -0.09375q0 0.78125 0.375 1.1875q0.375 0.390625 0.9375 0.390625q0.3125 0 0.609375 -0.109375q0.296875 -0.125 0.546875 -0.375q0.25 -0.25 0.421875 -0.5625q0.1875 -0.328125 0.296875 -0.703125q0.171875 -0.515625 0.171875 -0.984375q0 -0.75 -0.390625 -1.15625q-0.375 -0.421875 -0.9375 -0.421875q-0.453125 0 -0.8125 0.21875q-0.359375 0.203125 -0.65625 0.609375q-0.296875 0.40625 -0.4375 0.953125q-0.125 0.53125 -0.125 0.953125zm7.0202637 1.421875l-0.15625 0.765625q-0.34375 0.09375 -0.65625 0.09375q-0.5625 0 -0.90625 -0.28125q-0.25 -0.203125 -0.25 -0.5625q0 -0.1875 0.140625 -0.84375l0.671875 -3.203125l-0.75 0l0.15625 -0.734375l0.75 0l0.28125 -1.359375l1.078125 -0.640625l-0.421875 2.0l0.921875 0l-0.15625 0.734375l-0.921875 0l-0.640625 3.046875q-0.109375 0.59375 -0.109375 0.703125q0 0.171875 0.09375 0.265625q0.09375 0.078125 0.3125 0.078125q0.3125 0 0.5625 -0.0625zm3.8744202 0.765625l1.609375 -7.625l0.984375 0l1.28125 2.859375q0.59375 1.3125 0.9375 2.203125q0.1875 0.515625 0.453125 1.40625q0.140625 -0.96875 0.359375 -1.984375l0.9375 -4.484375l0.984375 0l-1.59375 7.625l-1.0 0l-1.90625 -4.40625q-0.5 -1.171875 -0.78125 -2.0625q-0.078125 0.75 -0.296875 1.828125l-0.96875 4.640625l-1.0 0zm11.258087 -0.6875q-0.484375 0.421875 -0.9375 0.625q-0.453125 0.1875 -0.96875 0.1875q-0.765625 0 -1.234375 -0.453125q-0.46875 -0.453125 -0.46875 -1.15625q0 -0.453125 0.203125 -0.8125q0.21875 -0.359375 0.5625 -0.5625q0.359375 -0.21875 0.859375 -0.3125q0.3125 -0.0625 1.203125 -0.09375q0.890625 -0.046875 1.265625 -0.203125q0.109375 -0.375 0.109375 -0.640625q0 -0.328125 -0.234375 -0.515625q-0.328125 -0.25 -0.953125 -0.25q-0.59375 0 -0.96875 0.265625q-0.375 0.25 -0.546875 0.734375l-0.953125 -0.078125q0.28125 -0.828125 0.90625 -1.265625q0.640625 -0.4375 1.609375 -0.4375q1.015625 0 1.625 0.5q0.453125 0.359375 0.453125 0.9375q0 0.453125 -0.125 1.03125l-0.3125 1.375q-0.140625 0.65625 -0.140625 1.0625q0 0.265625 0.109375 0.75l-0.953125 0q-0.078125 -0.265625 -0.109375 -0.6875zm0.34375 -2.109375q-0.1875 0.078125 -0.421875 0.125q-0.21875 0.03125 -0.75 0.078125q-0.828125 0.078125 -1.171875 0.1875q-0.328125 0.109375 -0.5 0.359375q-0.171875 0.234375 -0.171875 0.53125q0 0.40625 0.265625 0.65625q0.28125 0.25 0.78125 0.25q0.46875 0 0.890625 -0.234375q0.4375 -0.25 0.6875 -0.6875q0.25 -0.453125 0.390625 -1.265625zm1.8483887 2.796875l1.15625 -5.53125l0.953125 0l-0.203125 0.921875q0.53125 -0.59375 0.9375 -0.8125q0.421875 -0.234375 0.90625 -0.234375q0.515625 0 0.859375 0.28125q0.34375 0.265625 0.453125 0.765625q0.421875 -0.53125 0.890625 -0.78125q0.46875 -0.265625 0.984375 -0.265625q0.6875 0 1.03125 0.328125q0.34375 0.328125 0.34375 0.921875q0 0.265625 -0.125 0.84375l-0.734375 3.5625l-0.9375 0l0.75 -3.65625q0.109375 -0.4375 0.109375 -0.640625q0 -0.265625 -0.171875 -0.421875q-0.171875 -0.15625 -0.484375 -0.15625q-0.421875 0 -0.859375 0.265625q-0.4375 0.25 -0.6875 0.671875q-0.234375 0.40625 -0.421875 1.265625l-0.5625 2.671875l-0.9375 0l0.78125 -3.734375q0.078125 -0.375 0.078125 -0.53125q0 -0.28125 -0.171875 -0.4375q-0.171875 -0.171875 -0.4375 -0.171875q-0.40625 0 -0.84375 0.265625q-0.4375 0.25 -0.71875 0.703125q-0.265625 0.453125 -0.4375 1.296875l-0.546875 2.609375l-0.953125 0zm12.9392395 -1.875l0.921875 0.09375q-0.203125 0.671875 -0.921875 1.296875q-0.703125 0.609375 -1.6875 0.609375q-0.609375 0 -1.125 -0.28125q-0.5 -0.28125 -0.78125 -0.828125q-0.265625 -0.546875 -0.265625 -1.234375q0 -0.90625 0.421875 -1.75q0.421875 -0.859375 1.078125 -1.265625q0.671875 -0.421875 1.453125 -0.421875q0.984375 0 1.578125 0.625q0.59375 0.609375 0.59375 1.671875q0 0.40625 -0.078125 0.828125l-4.0625 0q-0.03125 0.15625 -0.03125 0.296875q0 0.765625 0.359375 1.1875q0.359375 0.40625 0.875 0.40625q0.484375 0 0.953125 -0.3125q0.46875 -0.328125 0.71875 -0.921875zm-2.734375 -1.375l3.109375 0q0 -0.140625 0 -0.203125q0 -0.703125 -0.359375 -1.078125q-0.34375 -0.390625 -0.90625 -0.390625q-0.609375 0 -1.109375 0.421875q-0.484375 0.421875 -0.734375 1.25zm7.965271 0.78125l1.0 -0.09375l-0.015625 0.265625q0 0.4375 0.203125 0.8125q0.203125 0.359375 0.671875 0.5625q0.46875 0.203125 1.109375 0.203125q0.921875 0 1.40625 -0.390625q0.484375 -0.40625 0.484375 -0.921875q0 -0.359375 -0.265625 -0.65625q-0.25 -0.296875 -1.421875 -0.796875q-0.890625 -0.390625 -1.21875 -0.59375q-0.515625 -0.34375 -0.765625 -0.734375q-0.234375 -0.40625 -0.234375 -0.90625q0 -0.59375 0.3125 -1.0625q0.328125 -0.484375 0.9375 -0.734375q0.625 -0.25 1.40625 -0.25q0.9375 0 1.578125 0.3125q0.640625 0.3125 0.921875 0.84375q0.296875 0.515625 0.296875 0.984375q0 0.046875 0 0.15625l-0.984375 0.078125q0 -0.3125 -0.0625 -0.5q-0.109375 -0.3125 -0.328125 -0.53125q-0.21875 -0.21875 -0.609375 -0.34375q-0.375 -0.140625 -0.84375 -0.140625q-0.828125 0 -1.296875 0.375q-0.359375 0.28125 -0.359375 0.75q0 0.28125 0.140625 0.515625q0.15625 0.21875 0.53125 0.421875q0.28125 0.15625 1.296875 0.609375q0.8125 0.359375 1.125 0.5625q0.421875 0.28125 0.640625 0.671875q0.234375 0.390625 0.234375 0.890625q0 0.625 -0.390625 1.15625q-0.375 0.515625 -1.046875 0.796875q-0.65625 0.28125 -1.515625 0.28125q-1.296875 0 -2.125 -0.5625q-0.8125 -0.5625 -0.8125 -2.03125zm10.7638855 0.59375l0.921875 0.09375q-0.203125 0.671875 -0.921875 1.296875q-0.703125 0.609375 -1.6875 0.609375q-0.609375 0 -1.125 -0.28125q-0.5 -0.28125 -0.78125 -0.828125q-0.265625 -0.546875 -0.265625 -1.234375q0 -0.90625 0.421875 -1.75q0.421875 -0.859375 1.078125 -1.265625q0.671875 -0.421875 1.453125 -0.421875q0.984375 0 1.578125 0.625q0.59375 0.609375 0.59375 1.671875q0 0.40625 -0.078125 0.828125l-4.0625 0q-0.03125 0.15625 -0.03125 0.296875q0 0.765625 0.359375 1.1875q0.359375 0.40625 0.875 0.40625q0.484375 0 0.953125 -0.3125q0.46875 -0.328125 0.71875 -0.921875zm-2.734375 -1.375l3.109375 0q0 -0.140625 0 -0.203125q0 -0.703125 -0.359375 -1.078125q-0.34375 -0.390625 -0.90625 -0.390625q-0.609375 0 -1.109375 0.421875q-0.484375 0.421875 -0.734375 1.25zm4.613983 3.25l1.15625 -5.53125l0.828125 0l-0.234375 1.140625q0.421875 -0.640625 0.828125 -0.953125q0.40625 -0.3125 0.84375 -0.3125q0.28125 0 0.6875 0.203125l-0.390625 0.875q-0.234375 -0.171875 -0.53125 -0.171875q-0.5 0 -1.015625 0.5625q-0.515625 0.546875 -0.8125 1.96875l-0.46875 2.21875l-0.890625 0zm4.9392395 0l-0.90625 -5.53125l0.921875 0l0.46875 3.046875q0.078125 0.5 0.1875 1.625q0.265625 -0.578125 0.6875 -1.34375l1.859375 -3.328125l0.984375 0l-3.15625 5.53125l-1.046875 0zm7.984375 -1.875l0.921875 0.09375q-0.203125 0.671875 -0.921875 1.296875q-0.703125 0.609375 -1.6875 0.609375q-0.609375 0 -1.125 -0.28125q-0.5 -0.28125 -0.78125 -0.828125q-0.265625 -0.546875 -0.265625 -1.234375q0 -0.90625 0.421875 -1.75q0.421875 -0.859375 1.078125 -1.265625q0.671875 -0.421875 1.453125 -0.421875q0.984375 0 1.578125 0.625q0.59375 0.609375 0.59375 1.671875q0 0.40625 -0.078125 0.828125l-4.0625 0q-0.03125 0.15625 -0.03125 0.296875q0 0.765625 0.359375 1.1875q0.359375 0.40625 0.875 0.40625q0.484375 0 0.953125 -0.3125q0.46875 -0.328125 0.71875 -0.921875zm-2.734375 -1.375l3.109375 0q0 -0.140625 0 -0.203125q0 -0.703125 -0.359375 -1.078125q-0.34375 -0.390625 -0.90625 -0.390625q-0.609375 0 -1.109375 0.421875q-0.484375 0.421875 -0.734375 1.25zm4.6140137 3.25l1.15625 -5.53125l0.828125 0l-0.234375 1.140625q0.421875 -0.640625 0.828125 -0.953125q0.40625 -0.3125 0.84375 -0.3125q0.28125 0 0.6875 0.203125l-0.390625 0.875q-0.234375 -0.171875 -0.53125 -0.171875q-0.5 0 -1.015625 0.5625q-0.515625 0.546875 -0.8125 1.96875l-0.46875 2.21875l-0.890625 0z" fill-rule="nonzero"/><path fill="#666666" d="m575.83844 34.136482l78.566895 0l0 155.10236l-78.566895 0z" fill-rule="evenodd"/><path fill="#515151" d="m654.40533 34.136482l26.189026 -26.188976l0 155.10236l-26.189026 26.18898z" fill-rule="evenodd"/><path fill="#848484" d="m575.83844 34.136482l26.188965 -26.188976l78.566956 0l-26.189026 26.188976z" fill-rule="evenodd"/><path fill="#000000" fill-opacity="0.0" d="m575.83844 34.136482l26.188965 -26.188976l78.566956 0l0 155.10236l-26.189026 26.18898l-78.566895 0zm0 0l78.566895 0l26.189026 -26.188976m-26.189026 26.188976l0 155.10236" fill-rule="evenodd"/><path stroke="#000000" stroke-width="1.0" stroke-linejoin="round" stroke-linecap="butt" d="m575.83844 34.136482l26.188965 -26.188976l78.566956 0l0 155.10236l-26.189026 26.18898l-78.566895 0zm0 0l78.566895 0l26.189026 -26.188976m-26.189026 26.188976l0 155.10236" fill-rule="evenodd"/><path fill="#000000" fill-opacity="0.0" d="m546.1627 194.6063l138.74017 0l0 26.299225l-138.74017 0z" fill-rule="evenodd"/><path fill="#000000" d="m575.0227 213.8463l1.40625 -6.765625l-2.5 0l0.1875 -0.859375l6.0 0l-0.1875 0.859375l-2.484375 0l-1.40625 6.765625l-1.015625 0zm4.5092773 0l1.59375 -7.625l1.015625 0l-1.40625 6.765625l3.96875 0l-0.1875 0.859375l-4.984375 0zm5.9733276 0l1.59375 -7.625l2.296875 0q0.828125 0 1.265625 0.109375q0.625 0.171875 1.0625 0.59375q0.453125 0.40625 0.671875 1.03125q0.234375 0.609375 0.234375 1.375q0 0.921875 -0.28125 1.6875q-0.28125 0.75 -0.734375 1.328125q-0.453125 0.578125 -0.953125 0.90625q-0.484375 0.3125 -1.15625 0.46875q-0.5 0.125 -1.25 0.125l-2.75 0zm1.203125 -0.859375l1.203125 0q0.828125 0 1.453125 -0.15625q0.40625 -0.09375 0.6875 -0.28125q0.359375 -0.234375 0.671875 -0.609375q0.390625 -0.515625 0.625 -1.15625q0.234375 -0.65625 0.234375 -1.5q0 -0.921875 -0.328125 -1.421875q-0.3125 -0.5 -0.8125 -0.65625q-0.375 -0.125 -1.15625 -0.125l-1.34375 0l-1.234375 5.90625zm9.5 0.859375l1.609375 -7.625l0.984375 0l1.28125 2.859375q0.59375 1.3125 0.9375 2.203125q0.1875 0.515625 0.453125 1.40625q0.140625 -0.96875 0.359375 -1.984375l0.9375 -4.484375l0.984375 0l-1.59375 7.625l-1.0 0l-1.90625 -4.40625q-0.5 -1.171875 -0.78125 -2.0625q-0.078125 0.75 -0.296875 1.828125l-0.96875 4.640625l-1.0 0zm11.258118 -0.6875q-0.484375 0.421875 -0.9375 0.625q-0.453125 0.1875 -0.96875 0.1875q-0.765625 0 -1.234375 -0.453125q-0.46875 -0.453125 -0.46875 -1.15625q0 -0.453125 0.203125 -0.8125q0.21875 -0.359375 0.5625 -0.5625q0.359375 -0.21875 0.859375 -0.3125q0.3125 -0.0625 1.203125 -0.09375q0.890625 -0.046875 1.265625 -0.203125q0.109375 -0.375 0.109375 -0.640625q0 -0.328125 -0.234375 -0.515625q-0.328125 -0.25 -0.953125 -0.25q-0.59375 0 -0.96875 0.265625q-0.375 0.25 -0.546875 0.734375l-0.953125 -0.078125q0.28125 -0.828125 0.90625 -1.265625q0.640625 -0.4375 1.609375 -0.4375q1.015625 0 1.625 0.5q0.453125 0.359375 0.453125 0.9375q0 0.453125 -0.125 1.03125l-0.3125 1.375q-0.140625 0.65625 -0.140625 1.0625q0 0.265625 0.109375 0.75l-0.953125 0q-0.078125 -0.265625 -0.109375 -0.6875zm0.34375 -2.109375q-0.1875 0.078125 -0.421875 0.125q-0.21875 0.03125 -0.75 0.078125q-0.828125 0.078125 -1.171875 0.1875q-0.328125 0.109375 -0.5 0.359375q-0.171875 0.234375 -0.171875 0.53125q0 0.40625 0.265625 0.65625q0.28125 0.25 0.78125 0.25q0.46875 0 0.890625 -0.234375q0.4375 -0.25 0.6875 -0.6875q0.25 -0.453125 0.390625 -1.265625zm1.8483887 2.796875l1.15625 -5.53125l0.953125 0l-0.203125 0.921875q0.53125 -0.59375 0.9375 -0.8125q0.421875 -0.234375 0.90625 -0.234375q0.515625 0 0.859375 0.28125q0.34375 0.265625 0.453125 0.765625q0.421875 -0.53125 0.890625 -0.78125q0.46875 -0.265625 0.984375 -0.265625q0.6875 0 1.03125 0.328125q0.34375 0.328125 0.34375 0.921875q0 0.265625 -0.125 0.84375l-0.734375 3.5625l-0.9375 0l0.75 -3.65625q0.109375 -0.4375 0.109375 -0.640625q0 -0.265625 -0.171875 -0.421875q-0.171875 -0.15625 -0.484375 -0.15625q-0.421875 0 -0.859375 0.265625q-0.4375 0.25 -0.6875 0.671875q-0.234375 0.40625 -0.421875 1.265625l-0.5625 2.671875l-0.9375 0l0.78125 -3.734375q0.078125 -0.375 0.078125 -0.53125q0 -0.28125 -0.171875 -0.4375q-0.171875 -0.171875 -0.4375 -0.171875q-0.40625 0 -0.84375 0.265625q-0.4375 0.25 -0.71875 0.703125q-0.265625 0.453125 -0.4375 1.296875l-0.546875 2.609375l-0.953125 0zm12.939209 -1.875l0.921875 0.09375q-0.203125 0.671875 -0.921875 1.296875q-0.703125 0.609375 -1.6875 0.609375q-0.609375 0 -1.125 -0.28125q-0.5 -0.28125 -0.78125 -0.828125q-0.265625 -0.546875 -0.265625 -1.234375q0 -0.90625 0.421875 -1.75q0.421875 -0.859375 1.078125 -1.265625q0.671875 -0.421875 1.453125 -0.421875q0.984375 0 1.578125 0.625q0.59375 0.609375 0.59375 1.671875q0 0.40625 -0.078125 0.828125l-4.0625 0q-0.03125 0.15625 -0.03125 0.296875q0 0.765625 0.359375 1.1875q0.359375 0.40625 0.875 0.40625q0.484375 0 0.953125 -0.3125q0.46875 -0.328125 0.71875 -0.921875zm-2.734375 -1.375l3.109375 0q0 -0.140625 0 -0.203125q0 -0.703125 -0.359375 -1.078125q-0.34375 -0.390625 -0.90625 -0.390625q-0.609375 0 -1.109375 0.421875q-0.484375 0.421875 -0.734375 1.25zm7.965271 0.78125l1.0 -0.09375l-0.015625 0.265625q0 0.4375 0.203125 0.8125q0.203125 0.359375 0.671875 0.5625q0.46875 0.203125 1.109375 0.203125q0.921875 0 1.40625 -0.390625q0.484375 -0.40625 0.484375 -0.921875q0 -0.359375 -0.265625 -0.65625q-0.25 -0.296875 -1.421875 -0.796875q-0.890625 -0.390625 -1.21875 -0.59375q-0.515625 -0.34375 -0.765625 -0.734375q-0.234375 -0.40625 -0.234375 -0.90625q0 -0.59375 0.3125 -1.0625q0.328125 -0.484375 0.9375 -0.734375q0.625 -0.25 1.40625 -0.25q0.9375 0 1.578125 0.3125q0.640625 0.3125 0.921875 0.84375q0.296875 0.515625 0.296875 0.984375q0 0.046875 0 0.15625l-0.984375 0.078125q0 -0.3125 -0.0625 -0.5q-0.109375 -0.3125 -0.328125 -0.53125q-0.21875 -0.21875 -0.609375 -0.34375q-0.375 -0.140625 -0.84375 -0.140625q-0.828125 0 -1.296875 0.375q-0.359375 0.28125 -0.359375 0.75q0 0.28125 0.140625 0.515625q0.15625 0.21875 0.53125 0.421875q0.28125 0.15625 1.296875 0.609375q0.8125 0.359375 1.125 0.5625q0.421875 0.28125 0.640625 0.671875q0.234375 0.390625 0.234375 0.890625q0 0.625 -0.390625 1.15625q-0.375 0.515625 -1.046875 0.796875q-0.65625 0.28125 -1.515625 0.28125q-1.296875 0 -2.125 -0.5625q-0.8125 -0.5625 -0.8125 -2.03125zm10.763916 0.59375l0.921875 0.09375q-0.203125 0.671875 -0.921875 1.296875q-0.703125 0.609375 -1.6875 0.609375q-0.609375 0 -1.125 -0.28125q-0.5 -0.28125 -0.78125 -0.828125q-0.265625 -0.546875 -0.265625 -1.234375q0 -0.90625 0.421875 -1.75q0.421875 -0.859375 1.078125 -1.265625q0.671875 -0.421875 1.453125 -0.421875q0.984375 0 1.578125 0.625q0.59375 0.609375 0.59375 1.671875q0 0.40625 -0.078125 0.828125l-4.0625 0q-0.03125 0.15625 -0.03125 0.296875q0 0.765625 0.359375 1.1875q0.359375 0.40625 0.875 0.40625q0.484375 0 0.953125 -0.3125q0.46875 -0.328125 0.71875 -0.921875zm-2.734375 -1.375l3.109375 0q0 -0.140625 0 -0.203125q0 -0.703125 -0.359375 -1.078125q-0.34375 -0.390625 -0.90625 -0.390625q-0.609375 0 -1.109375 0.421875q-0.484375 0.421875 -0.734375 1.25zm4.6140137 3.25l1.15625 -5.53125l0.828125 0l-0.234375 1.140625q0.421875 -0.640625 0.828125 -0.953125q0.40625 -0.3125 0.84375 -0.3125q0.28125 0 0.6875 0.203125l-0.390625 0.875q-0.234375 -0.171875 -0.53125 -0.171875q-0.5 0 -1.015625 0.5625q-0.515625 0.546875 -0.8125 1.96875l-0.46875 2.21875l-0.890625 0zm4.939209 0l-0.90625 -5.53125l0.921875 0l0.46875 3.046875q0.078125 0.5 0.1875 1.625q0.265625 -0.578125 0.6875 -1.34375l1.859375 -3.328125l0.984375 0l-3.15625 5.53125l-1.046875 0zm7.984375 -1.875l0.921875 0.09375q-0.203125 0.671875 -0.921875 1.296875q-0.703125 0.609375 -1.6875 0.609375q-0.609375 0 -1.125 -0.28125q-0.5 -0.28125 -0.78125 -0.828125q-0.265625 -0.546875 -0.265625 -1.234375q0 -0.90625 0.421875 -1.75q0.421875 -0.859375 1.078125 -1.265625q0.671875 -0.421875 1.453125 -0.421875q0.984375 0 1.578125 0.625q0.59375 0.609375 0.59375 1.671875q0 0.40625 -0.078125 0.828125l-4.0625 0q-0.03125 0.15625 -0.03125 0.296875q0 0.765625 0.359375 1.1875q0.359375 0.40625 0.875 0.40625q0.484375 0 0.953125 -0.3125q0.46875 -0.328125 0.71875 -0.921875zm-2.734375 -1.375l3.109375 0q0 -0.140625 0 -0.203125q0 -0.703125 -0.359375 -1.078125q-0.34375 -0.390625 -0.90625 -0.390625q-0.609375 0 -1.109375 0.421875q-0.484375 0.421875 -0.734375 1.25zm4.6140137 3.25l1.15625 -5.53125l0.828125 0l-0.234375 1.140625q0.421875 -0.640625 0.828125 -0.953125q0.40625 -0.3125 0.84375 -0.3125q0.28125 0 0.6875 0.203125l-0.390625 0.875q-0.234375 -0.171875 -0.53125 -0.171875q-0.5 0 -1.015625 0.5625q-0.515625 0.546875 -0.8125 1.96875l-0.46875 2.21875l-0.890625 0z" fill-rule="nonzero"/><path fill="#666666" d="m740.4447 34.136482l78.566956 0l0 155.10236l-78.566956 0z" fill-rule="evenodd"/><path fill="#515151" d="m819.01166 34.136482l26.188965 -26.188976l0 155.10236l-26.188965 26.18898z" fill-rule="evenodd"/><path fill="#848484" d="m740.4447 34.136482l26.189026 -26.188976l78.566895 0l-26.188965 26.188976z" fill-rule="evenodd"/><path fill="#000000" fill-opacity="0.0" d="m740.4447 34.136482l26.189026 -26.188976l78.566895 0l0 155.10236l-26.188965 26.18898l-78.566956 0zm0 0l78.566956 0l26.188965 -26.188976m-26.188965 26.188976l0 155.10236" fill-rule="evenodd"/><path stroke="#000000" stroke-width="1.0" stroke-linejoin="round" stroke-linecap="butt" d="m740.4447 34.136482l26.189026 -26.188976l78.566895 0l0 155.10236l-26.188965 26.18898l-78.566956 0zm0 0l78.566956 0l26.188965 -26.188976m-26.188965 26.188976l0 155.10236" fill-rule="evenodd"/><path fill="#000000" fill-opacity="0.0" d="m705.7507 194.6063l148.94489 0l0 26.299225l-148.94489 0z" fill-rule="evenodd"/><path fill="#000000" d="m717.5212 213.8463l4.328125 -7.625l1.203125 0l1.265625 7.625l-1.0 0l-0.359375 -2.203125l-3.09375 0l-1.21875 2.203125l-1.125 0zm2.78125 -2.984375l2.53125 0l-0.296875 -1.90625q-0.171875 -1.140625 -0.21875 -1.90625q-0.265625 0.65625 -0.765625 1.5625l-1.25 2.25zm8.670105 1.984375q-1.0 1.125 -2.03125 1.125q-0.640625 0 -1.03125 -0.359375q-0.390625 -0.375 -0.390625 -0.90625q0 -0.34375 0.171875 -1.203125l0.671875 -3.1875l0.9375 0l-0.734375 3.53125q-0.09375 0.453125 -0.09375 0.6875q0 0.3125 0.1875 0.5q0.1875 0.171875 0.5625 0.171875q0.390625 0 0.765625 -0.1875q0.375 -0.203125 0.640625 -0.53125q0.28125 -0.328125 0.453125 -0.78125q0.109375 -0.28125 0.265625 -1.0l0.5 -2.390625l0.9375 0l-1.15625 5.53125l-0.859375 0l0.203125 -1.0zm4.3640137 0.234375l-0.15625 0.765625q-0.34375 0.09375 -0.65625 0.09375q-0.5625 0 -0.90625 -0.28125q-0.25 -0.203125 -0.25 -0.5625q0 -0.1875 0.140625 -0.84375l0.671875 -3.203125l-0.75 0l0.15625 -0.734375l0.75 0l0.28125 -1.359375l1.078125 -0.640625l-0.421875 2.0l0.921875 0l-0.15625 0.734375l-0.921875 0l-0.640625 3.046875q-0.109375 0.59375 -0.109375 0.703125q0 0.171875 0.09375 0.265625q0.09375 0.078125 0.3125 0.078125q0.3125 0 0.5625 -0.0625zm0.7575073 0.765625l1.59375 -7.625l0.9375 0l-0.609375 2.921875q0.515625 -0.5 0.96875 -0.71875q0.453125 -0.234375 0.9375 -0.234375q0.6875 0 1.0625 0.375q0.390625 0.359375 0.390625 0.953125q0 0.28125 -0.171875 1.0625l-0.6875 3.265625l-0.9375 0l0.703125 -3.34375q0.15625 -0.734375 0.15625 -0.921875q0 -0.265625 -0.1875 -0.4375q-0.1875 -0.171875 -0.546875 -0.171875q-0.515625 0 -0.984375 0.265625q-0.453125 0.265625 -0.71875 0.734375q-0.25 0.46875 -0.46875 1.5l-0.5 2.375l-0.9375 0zm6.0827637 -2.09375q0 -1.625 0.953125 -2.6875q0.796875 -0.875 2.0625 -0.875q1.0 0 1.609375 0.625q0.609375 0.625 0.609375 1.6875q0 0.953125 -0.390625 1.78125q-0.375 0.8125 -1.09375 1.25q-0.703125 0.4375 -1.484375 0.4375q-0.640625 0 -1.171875 -0.265625q-0.53125 -0.28125 -0.8125 -0.78125q-0.28125 -0.515625 -0.28125 -1.171875zm0.953125 -0.09375q0 0.78125 0.375 1.1875q0.375 0.390625 0.9375 0.390625q0.3125 0 0.609375 -0.109375q0.296875 -0.125 0.546875 -0.375q0.25 -0.25 0.421875 -0.5625q0.1875 -0.328125 0.296875 -0.703125q0.171875 -0.515625 0.171875 -0.984375q0 -0.75 -0.390625 -1.15625q-0.375 -0.421875 -0.9375 -0.421875q-0.453125 0 -0.8125 0.21875q-0.359375 0.203125 -0.65625 0.609375q-0.296875 0.40625 -0.4375 0.953125q-0.125 0.53125 -0.125 0.953125zm4.8171387 2.1875l1.15625 -5.53125l0.828125 0l-0.234375 1.140625q0.421875 -0.640625 0.828125 -0.953125q0.40625 -0.3125 0.84375 -0.3125q0.28125 0 0.6875 0.203125l-0.390625 0.875q-0.234375 -0.171875 -0.53125 -0.171875q-0.5 0 -1.015625 0.5625q-0.515625 0.546875 -0.8125 1.96875l-0.46875 2.21875l-0.890625 0zm4.876709 -6.5625l0.234375 -1.0625l0.921875 0l-0.21875 1.0625l-0.9375 0zm-1.375 6.5625l1.15625 -5.53125l0.953125 0l-1.15625 5.53125l-0.953125 0zm4.6174927 -0.765625l-0.15625 0.765625q-0.34375 0.09375 -0.65625 0.09375q-0.5625 0 -0.90625 -0.28125q-0.25 -0.203125 -0.25 -0.5625q0 -0.1875 0.140625 -0.84375l0.671875 -3.203125l-0.75 0l0.15625 -0.734375l0.75 0l0.28125 -1.359375l1.078125 -0.640625l-0.421875 2.0l0.921875 0l-0.15625 0.734375l-0.921875 0l-0.640625 3.046875q-0.109375 0.59375 -0.109375 0.703125q0 0.171875 0.09375 0.265625q0.09375 0.078125 0.3125 0.078125q0.3125 0 0.5625 -0.0625zm4.4762573 0.078125q-0.484375 0.421875 -0.9375 0.625q-0.453125 0.1875 -0.96875 0.1875q-0.765625 0 -1.234375 -0.453125q-0.46875 -0.453125 -0.46875 -1.15625q0 -0.453125 0.203125 -0.8125q0.21875 -0.359375 0.5625 -0.5625q0.359375 -0.21875 0.859375 -0.3125q0.3125 -0.0625 1.203125 -0.09375q0.890625 -0.046875 1.265625 -0.203125q0.109375 -0.375 0.109375 -0.640625q0 -0.328125 -0.234375 -0.515625q-0.328125 -0.25 -0.953125 -0.25q-0.59375 0 -0.96875 0.265625q-0.375 0.25 -0.546875 0.734375l-0.953125 -0.078125q0.28125 -0.828125 0.90625 -1.265625q0.640625 -0.4375 1.609375 -0.4375q1.015625 0 1.625 0.5q0.453125 0.359375 0.453125 0.9375q0 0.453125 -0.125 1.03125l-0.3125 1.375q-0.140625 0.65625 -0.140625 1.0625q0 0.265625 0.109375 0.75l-0.953125 0q-0.078125 -0.265625 -0.109375 -0.6875zm0.34375 -2.109375q-0.1875 0.078125 -0.421875 0.125q-0.21875 0.03125 -0.75 0.078125q-0.828125 0.078125 -1.171875 0.1875q-0.328125 0.109375 -0.5 0.359375q-0.171875 0.234375 -0.171875 0.53125q0 0.40625 0.265625 0.65625q0.28125 0.25 0.78125 0.25q0.46875 0 0.890625 -0.234375q0.4375 -0.25 0.6875 -0.6875q0.25 -0.453125 0.390625 -1.265625zm4.0671387 2.03125l-0.15625 0.765625q-0.34375 0.09375 -0.65625 0.09375q-0.5625 0 -0.90625 -0.28125q-0.25 -0.203125 -0.25 -0.5625q0 -0.1875 0.140625 -0.84375l0.671875 -3.203125l-0.75 0l0.15625 -0.734375l0.75 0l0.28125 -1.359375l1.078125 -0.640625l-0.421875 2.0l0.921875 0l-0.15625 0.734375l-0.921875 0l-0.640625 3.046875q-0.109375 0.59375 -0.109375 0.703125q0 0.171875 0.09375 0.265625q0.09375 0.078125 0.3125 0.078125q0.3125 0 0.5625 -0.0625zm2.0856323 -5.796875l0.234375 -1.0625l0.921875 0l-0.21875 1.0625l-0.9375 0zm-1.375 6.5625l1.15625 -5.53125l0.953125 0l-1.15625 5.53125l-0.953125 0zm3.8049927 0l-0.90625 -5.53125l0.921875 0l0.46875 3.046875q0.078125 0.5 0.1875 1.625q0.265625 -0.578125 0.6875 -1.34375l1.859375 -3.328125l0.984375 0l-3.15625 5.53125l-1.046875 0zm7.984375 -1.875l0.921875 0.09375q-0.203125 0.671875 -0.921875 1.296875q-0.703125 0.609375 -1.6875 0.609375q-0.609375 0 -1.125 -0.28125q-0.5 -0.28125 -0.78125 -0.828125q-0.265625 -0.546875 -0.265625 -1.234375q0 -0.90625 0.421875 -1.75q0.421875 -0.859375 1.078125 -1.265625q0.671875 -0.421875 1.453125 -0.421875q0.984375 0 1.578125 0.625q0.59375 0.609375 0.59375 1.671875q0 0.40625 -0.078125 0.828125l-4.0625 0q-0.03125 0.15625 -0.03125 0.296875q0 0.765625 0.359375 1.1875q0.359375 0.40625 0.875 0.40625q0.484375 0 0.953125 -0.3125q0.46875 -0.328125 0.71875 -0.921875zm-2.734375 -1.375l3.109375 0q0 -0.140625 0 -0.203125q0 -0.703125 -0.359375 -1.078125q-0.34375 -0.390625 -0.90625 -0.390625q-0.609375 0 -1.109375 0.421875q-0.484375 0.421875 -0.734375 1.25zm7.730896 3.25l1.609375 -7.625l0.984375 0l1.28125 2.859375q0.59375 1.3125 0.9375 2.203125q0.1875 0.515625 0.453125 1.40625q0.140625 -0.96875 0.359375 -1.984375l0.9375 -4.484375l0.984375 0l-1.59375 7.625l-1.0 0l-1.90625 -4.40625q-0.5 -1.171875 -0.78125 -2.0625q-0.078125 0.75 -0.296875 1.828125l-0.96875 4.640625l-1.0 0zm11.258118 -0.6875q-0.484375 0.421875 -0.9375 0.625q-0.453125 0.1875 -0.96875 0.1875q-0.765625 0 -1.234375 -0.453125q-0.46875 -0.453125 -0.46875 -1.15625q0 -0.453125 0.203125 -0.8125q0.21875 -0.359375 0.5625 -0.5625q0.359375 -0.21875 0.859375 -0.3125q0.3125 -0.0625 1.203125 -0.09375q0.890625 -0.046875 1.265625 -0.203125q0.109375 -0.375 0.109375 -0.640625q0 -0.328125 -0.234375 -0.515625q-0.328125 -0.25 -0.953125 -0.25q-0.59375 0 -0.96875 0.265625q-0.375 0.25 -0.546875 0.734375l-0.953125 -0.078125q0.28125 -0.828125 0.90625 -1.265625q0.640625 -0.4375 1.609375 -0.4375q1.015625 0 1.625 0.5q0.453125 0.359375 0.453125 0.9375q0 0.453125 -0.125 1.03125l-0.3125 1.375q-0.140625 0.65625 -0.140625 1.0625q0 0.265625 0.109375 0.75l-0.953125 0q-0.078125 -0.265625 -0.109375 -0.6875zm0.34375 -2.109375q-0.1875 0.078125 -0.421875 0.125q-0.21875 0.03125 -0.75 0.078125q-0.828125 0.078125 -1.171875 0.1875q-0.328125 0.109375 -0.5 0.359375q-0.171875 0.234375 -0.171875 0.53125q0 0.40625 0.265625 0.65625q0.28125 0.25 0.78125 0.25q0.46875 0 0.890625 -0.234375q0.4375 -0.25 0.6875 -0.6875q0.25 -0.453125 0.390625 -1.265625zm1.8483276 2.796875l1.15625 -5.53125l0.953125 0l-0.203125 0.921875q0.53125 -0.59375 0.9375 -0.8125q0.421875 -0.234375 0.90625 -0.234375q0.515625 0 0.859375 0.28125q0.34375 0.265625 0.453125 0.765625q0.421875 -0.53125 0.890625 -0.78125q0.46875 -0.265625 0.984375 -0.265625q0.6875 0 1.03125 0.328125q0.34375 0.328125 0.34375 0.921875q0 0.265625 -0.125 0.84375l-0.734375 3.5625l-0.9375 0l0.75 -3.65625q0.109375 -0.4375 0.109375 -0.640625q0 -0.265625 -0.171875 -0.421875q-0.171875 -0.15625 -0.484375 -0.15625q-0.421875 0 -0.859375 0.265625q-0.4375 0.25 -0.6875 0.671875q-0.234375 0.40625 -0.421875 1.265625l-0.5625 2.671875l-0.9375 0l0.78125 -3.734375q0.078125 -0.375 0.078125 -0.53125q0 -0.28125 -0.171875 -0.4375q-0.171875 -0.171875 -0.4375 -0.171875q-0.40625 0 -0.84375 0.265625q-0.4375 0.25 -0.71875 0.703125q-0.265625 0.453125 -0.4375 1.296875l-0.546875 2.609375l-0.953125 0zm12.93927 -1.875l0.921875 0.09375q-0.203125 0.671875 -0.921875 1.296875q-0.703125 0.609375 -1.6875 0.609375q-0.609375 0 -1.125 -0.28125q-0.5 -0.28125 -0.78125 -0.828125q-0.265625 -0.546875 -0.265625 -1.234375q0 -0.90625 0.421875 -1.75q0.421875 -0.859375 1.078125 -1.265625q0.671875 -0.421875 1.453125 -0.421875q0.984375 0 1.578125 0.625q0.59375 0.609375 0.59375 1.671875q0 0.40625 -0.078125 0.828125l-4.0625 0q-0.03125 0.15625 -0.03125 0.296875q0 0.765625 0.359375 1.1875q0.359375 0.40625 0.875 0.40625q0.484375 0 0.953125 -0.3125q0.46875 -0.328125 0.71875 -0.921875zm-2.734375 -1.375l3.109375 0q0 -0.140625 0 -0.203125q0 -0.703125 -0.359375 -1.078125q-0.34375 -0.390625 -0.90625 -0.390625q-0.609375 0 -1.109375 0.421875q-0.484375 0.421875 -0.734375 1.25zm7.965271 0.78125l1.0 -0.09375l-0.015625 0.265625q0 0.4375 0.203125 0.8125q0.203125 0.359375 0.671875 0.5625q0.46875 0.203125 1.109375 0.203125q0.921875 0 1.40625 -0.390625q0.484375 -0.40625 0.484375 -0.921875q0 -0.359375 -0.265625 -0.65625q-0.25 -0.296875 -1.421875 -0.796875q-0.890625 -0.390625 -1.21875 -0.59375q-0.515625 -0.34375 -0.765625 -0.734375q-0.234375 -0.40625 -0.234375 -0.90625q0 -0.59375 0.3125 -1.0625q0.328125 -0.484375 0.9375 -0.734375q0.625 -0.25 1.40625 -0.25q0.9375 0 1.578125 0.3125q0.640625 0.3125 0.921875 0.84375q0.296875 0.515625 0.296875 0.984375q0 0.046875 0 0.15625l-0.984375 0.078125q0 -0.3125 -0.0625 -0.5q-0.109375 -0.3125 -0.328125 -0.53125q-0.21875 -0.21875 -0.609375 -0.34375q-0.375 -0.140625 -0.84375 -0.140625q-0.828125 0 -1.296875 0.375q-0.359375 0.28125 -0.359375 0.75q0 0.28125 0.140625 0.515625q0.15625 0.21875 0.53125 0.421875q0.28125 0.15625 1.296875 0.609375q0.8125 0.359375 1.125 0.5625q0.421875 0.28125 0.640625 0.671875q0.234375 0.390625 0.234375 0.890625q0 0.625 -0.390625 1.15625q-0.375 0.515625 -1.046875 0.796875q-0.65625 0.28125 -1.515625 0.28125q-1.296875 0 -2.125 -0.5625q-0.8125 -0.5625 -0.8125 -2.03125zm10.763855 0.59375l0.921875 0.09375q-0.203125 0.671875 -0.921875 1.296875q-0.703125 0.609375 -1.6875 0.609375q-0.609375 0 -1.125 -0.28125q-0.5 -0.28125 -0.78125 -0.828125q-0.265625 -0.546875 -0.265625 -1.234375q0 -0.90625 0.421875 -1.75q0.421875 -0.859375 1.078125 -1.265625q0.671875 -0.421875 1.453125 -0.421875q0.984375 0 1.578125 0.625q0.59375 0.609375 0.59375 1.671875q0 0.40625 -0.078125 0.828125l-4.0625 0q-0.03125 0.15625 -0.03125 0.296875q0 0.765625 0.359375 1.1875q0.359375 0.40625 0.875 0.40625q0.484375 0 0.953125 -0.3125q0.46875 -0.328125 0.71875 -0.921875zm-2.734375 -1.375l3.109375 0q0 -0.140625 0 -0.203125q0 -0.703125 -0.359375 -1.078125q-0.34375 -0.390625 -0.90625 -0.390625q-0.609375 0 -1.109375 0.421875q-0.484375 0.421875 -0.734375 1.25zm4.6140137 3.25l1.15625 -5.53125l0.828125 0l-0.234375 1.140625q0.421875 -0.640625 0.828125 -0.953125q0.40625 -0.3125 0.84375 -0.3125q0.28125 0 0.6875 0.203125l-0.390625 0.875q-0.234375 -0.171875 -0.53125 -0.171875q-0.5 0 -1.015625 0.5625q-0.515625 0.546875 -0.8125 1.96875l-0.46875 2.21875l-0.890625 0zm4.93927 0l-0.90625 -5.53125l0.921875 0l0.46875 3.046875q0.078125 0.5 0.1875 1.625q0.265625 -0.578125 0.6875 -1.34375l1.859375 -3.328125l0.984375 0l-3.15625 5.53125l-1.046875 0zm7.984375 -1.875l0.921875 0.09375q-0.203125 0.671875 -0.921875 1.296875q-0.703125 0.609375 -1.6875 0.609375q-0.609375 0 -1.125 -0.28125q-0.5 -0.28125 -0.78125 -0.828125q-0.265625 -0.546875 -0.265625 -1.234375q0 -0.90625 0.421875 -1.75q0.421875 -0.859375 1.078125 -1.265625q0.671875 -0.421875 1.453125 -0.421875q0.984375 0 1.578125 0.625q0.59375 0.609375 0.59375 1.671875q0 0.40625 -0.078125 0.828125l-4.0625 0q-0.03125 0.15625 -0.03125 0.296875q0 0.765625 0.359375 1.1875q0.359375 0.40625 0.875 0.40625q0.484375 0 0.953125 -0.3125q0.46875 -0.328125 0.71875 -0.921875zm-2.734375 -1.375l3.109375 0q0 -0.140625 0 -0.203125q0 -0.703125 -0.359375 -1.078125q-0.34375 -0.390625 -0.90625 -0.390625q-0.609375 0 -1.109375 0.421875q-0.484375 0.421875 -0.734375 1.25zm4.6139526 3.25l1.15625 -5.53125l0.828125 0l-0.234375 1.140625q0.421875 -0.640625 0.828125 -0.953125q0.40625 -0.3125 0.84375 -0.3125q0.28125 0 0.6875 0.203125l-0.390625 0.875q-0.234375 -0.171875 -0.53125 -0.171875q-0.5 0 -1.015625 0.5625q-0.515625 0.546875 -0.8125 1.96875l-0.46875 2.21875l-0.890625 0z" fill-rule="nonzero"/><path fill="#000000" fill-opacity="0.0" d="m256.9134 84.77165l60.409454 0l0 17.763779l-60.409454 0z" fill-rule="evenodd"/><path fill="#ffffff" d="m273.81726 100.57354l0 -13.359375l1.765625 0l0 13.359375l-1.765625 0zm4.292694 -4.296875l1.65625 -0.140625q0.125 1.0 0.546875 1.640625q0.4375 0.640625 1.34375 1.046875q0.921875 0.390625 2.0625 0.390625q1.0 0 1.78125 -0.296875q0.78125 -0.296875 1.15625 -0.8125q0.375 -0.53125 0.375 -1.15625q0 -0.625 -0.375 -1.09375q-0.359375 -0.46875 -1.1875 -0.796875q-0.546875 -0.203125 -2.390625 -0.640625q-1.828125 -0.453125 -2.5625 -0.84375q-0.96875 -0.5 -1.4375 -1.234375q-0.46875 -0.75 -0.46875 -1.671875q0 -1.0 0.578125 -1.875q0.578125 -0.890625 1.671875 -1.34375q1.109375 -0.453125 2.453125 -0.453125q1.484375 0 2.609375 0.484375q1.140625 0.46875 1.75 1.40625q0.609375 0.921875 0.65625 2.09375l-1.6875 0.125q-0.140625 -1.265625 -0.9375 -1.90625q-0.78125 -0.65625 -2.3125 -0.65625q-1.609375 0 -2.34375 0.59375q-0.734375 0.59375 -0.734375 1.421875q0 0.71875 0.53125 1.171875q0.5 0.46875 2.65625 0.96875q2.15625 0.484375 2.953125 0.84375q1.171875 0.53125 1.71875 1.359375q0.5625 0.828125 0.5625 1.90625q0 1.0625 -0.609375 2.015625q-0.609375 0.9375 -1.75 1.46875q-1.140625 0.515625 -2.578125 0.515625q-1.8125 0 -3.046875 -0.53125q-1.21875 -0.53125 -1.921875 -1.59375q-0.6875 -1.0625 -0.71875 -2.40625zm13.037323 4.296875l0 -13.359375l5.046875 0q1.328125 0 2.03125 0.125q0.96875 0.171875 1.640625 0.640625q0.671875 0.453125 1.078125 1.28125q0.40625 0.828125 0.40625 1.828125q0 1.703125 -1.09375 2.890625q-1.078125 1.171875 -3.921875 1.171875l-3.421875 0l0 5.421875l-1.765625 0zm1.765625 -7.0l3.453125 0q1.71875 0 2.4375 -0.640625q0.71875 -0.640625 0.71875 -1.796875q0 -0.84375 -0.421875 -1.4375q-0.421875 -0.59375 -1.125 -0.78125q-0.4375 -0.125 -1.640625 -0.125l-3.421875 0l0 4.78125z" fill-rule="nonzero"/><path fill="#000000" fill-opacity="0.0" d="m425.74014 84.77165l60.409454 0l0 17.763779l-60.409454 0z" fill-rule="evenodd"/><path fill="#ffffff" d="m455.04074 100.57354l0 -1.875l1.875 0l0 1.875l-1.875 0z" fill-rule="nonzero"/><path fill="#000000" fill-opacity="0.0" d="m585.32806 84.77165l60.409485 0l0 17.763779l-60.409485 0z" fill-rule="evenodd"/><path fill="#ffffff" d="m613.2278 97.026665l1.609375 0.21875q-0.265625 1.65625 -1.359375 2.609375q-1.078125 0.9375 -2.671875 0.9375q-1.984375 0 -3.1875 -1.296875q-1.203125 -1.296875 -1.203125 -3.71875q0 -1.578125 0.515625 -2.75q0.515625 -1.171875 1.578125 -1.75q1.0625 -0.59375 2.3125 -0.59375q1.578125 0 2.578125 0.796875q1.0 0.796875 1.28125 2.265625l-1.59375 0.234375q-0.234375 -0.96875 -0.8125 -1.453125q-0.578125 -0.5 -1.390625 -0.5q-1.234375 0 -2.015625 0.890625q-0.78125 0.890625 -0.78125 2.8125q0 1.953125 0.75 2.84375q0.75 0.875 1.953125 0.875q0.96875 0 1.609375 -0.59375q0.65625 -0.59375 0.828125 -1.828125zm9.328125 2.359375q-0.921875 0.765625 -1.765625 1.09375q-0.828125 0.3125 -1.796875 0.3125q-1.59375 0 -2.453125 -0.78125q-0.859375 -0.78125 -0.859375 -1.984375q0 -0.71875 0.328125 -1.296875q0.328125 -0.59375 0.84375 -0.9375q0.53125 -0.359375 1.1875 -0.546875q0.46875 -0.125 1.453125 -0.25q1.984375 -0.234375 2.921875 -0.5625q0.015625 -0.34375 0.015625 -0.421875q0 -1.0 -0.46875 -1.421875q-0.625 -0.546875 -1.875 -0.546875q-1.15625 0 -1.703125 0.40625q-0.546875 0.40625 -0.8125 1.421875l-1.609375 -0.21875q0.21875 -1.015625 0.71875 -1.640625q0.5 -0.640625 1.453125 -0.984375q0.953125 -0.34375 2.1875 -0.34375q1.25 0 2.015625 0.296875q0.78125 0.28125 1.140625 0.734375q0.375 0.4375 0.515625 1.109375q0.078125 0.421875 0.078125 1.515625l0 2.1875q0 2.28125 0.109375 2.890625q0.109375 0.59375 0.40625 1.15625l-1.703125 0q-0.265625 -0.515625 -0.328125 -1.1875zm-0.140625 -3.671875q-0.890625 0.375 -2.671875 0.625q-1.015625 0.140625 -1.4375 0.328125q-0.421875 0.1875 -0.65625 0.53125q-0.21875 0.34375 -0.21875 0.78125q0 0.65625 0.5 1.09375q0.5 0.4375 1.453125 0.4375q0.9375 0 1.671875 -0.40625q0.75 -0.421875 1.09375 -1.140625q0.265625 -0.5625 0.265625 -1.640625l0 -0.609375z" fill-rule="nonzero"/><path fill="#000000" fill-opacity="0.0" d="m740.44354 84.77165l79.55908 0l0 17.763779l-79.55908 0z" fill-rule="evenodd"/><path fill="#ffffff" d="m753.6768 90.846664l0 -1.078125l0.9375 0l0 1.078125l-0.9375 0zm-1.1875 8.6875l0.171875 -0.796875q0.28125 0.078125 0.4375 0.078125q0.296875 0 0.4375 -0.1875q0.140625 -0.1875 0.140625 -0.953125l0 -5.8125l0.9375 0l0 5.828125q0 1.03125 -0.265625 1.421875q-0.34375 0.53125 -1.125 0.53125q-0.390625 0 -0.734375 -0.109375zm3.2112427 -4.90625q0 -1.53125 0.84375 -2.265625q0.71875 -0.625 1.734375 -0.625q1.140625 0 1.859375 0.75q0.734375 0.75 0.734375 2.0625q0 1.0625 -0.328125 1.6875q-0.3125 0.609375 -0.921875 0.953125q-0.609375 0.328125 -1.34375 0.328125q-1.15625 0 -1.875 -0.734375q-0.703125 -0.75 -0.703125 -2.15625zm0.953125 0q0 1.0625 0.46875 1.59375q0.46875 0.53125 1.15625 0.53125q0.703125 0 1.15625 -0.53125q0.46875 -0.53125 0.46875 -1.625q0 -1.015625 -0.46875 -1.546875q-0.453125 -0.53125 -1.15625 -0.53125q-0.6875 0 -1.15625 0.53125q-0.46875 0.515625 -0.46875 1.578125zm4.9420776 1.109375l0.921875 -0.140625q0.078125 0.5625 0.4375 0.859375q0.359375 0.296875 1.0 0.296875q0.640625 0 0.953125 -0.265625q0.3125 -0.265625 0.3125 -0.625q0 -0.3125 -0.28125 -0.5q-0.1875 -0.125 -0.953125 -0.3125q-1.03125 -0.265625 -1.4375 -0.453125q-0.390625 -0.1875 -0.59375 -0.515625q-0.203125 -0.34375 -0.203125 -0.75q0 -0.359375 0.171875 -0.671875q0.171875 -0.328125 0.453125 -0.53125q0.21875 -0.15625 0.59375 -0.265625q0.390625 -0.125 0.8125 -0.125q0.65625 0 1.140625 0.1875q0.5 0.1875 0.734375 0.515625q0.234375 0.3125 0.3125 0.859375l-0.90625 0.125q-0.0625 -0.4375 -0.375 -0.671875q-0.296875 -0.234375 -0.828125 -0.234375q-0.65625 0 -0.9375 0.21875q-0.265625 0.203125 -0.265625 0.484375q0 0.1875 0.109375 0.328125q0.125 0.15625 0.359375 0.25q0.140625 0.0625 0.828125 0.25q1.0 0.265625 1.390625 0.4375q0.390625 0.15625 0.609375 0.484375q0.234375 0.3125 0.234375 0.796875q0 0.46875 -0.28125 0.890625q-0.265625 0.40625 -0.78125 0.640625q-0.515625 0.21875 -1.171875 0.21875q-1.078125 0 -1.640625 -0.4375q-0.5625 -0.453125 -0.71875 -1.34375zm9.484375 -0.125l0.96875 0.125q-0.234375 0.84375 -0.859375 1.3125q-0.609375 0.46875 -1.578125 0.46875q-1.203125 0 -1.921875 -0.75q-0.703125 -0.75 -0.703125 -2.09375q0 -1.390625 0.71875 -2.15625q0.71875 -0.78125 1.859375 -0.78125q1.109375 0 1.8125 0.765625q0.703125 0.75 0.703125 2.125q0 0.078125 0 0.234375l-4.125 0q0.046875 0.921875 0.515625 1.40625q0.46875 0.484375 1.15625 0.484375q0.515625 0 0.875 -0.265625q0.359375 -0.28125 0.578125 -0.875zm-3.078125 -1.515625l3.09375 0q-0.0625 -0.6875 -0.359375 -1.046875q-0.453125 -0.53125 -1.15625 -0.53125q-0.640625 0 -1.09375 0.4375q-0.4375 0.421875 -0.484375 1.140625zm5.2233887 5.421875l0 -7.65625l0.859375 0l0 0.71875q0.296875 -0.421875 0.671875 -0.625q0.390625 -0.21875 0.921875 -0.21875q0.703125 0 1.25 0.375q0.546875 0.359375 0.8125 1.03125q0.28125 0.65625 0.28125 1.453125q0 0.84375 -0.3125 1.53125q-0.296875 0.671875 -0.875 1.03125q-0.578125 0.359375 -1.21875 0.359375q-0.46875 0 -0.84375 -0.1875q-0.375 -0.203125 -0.609375 -0.515625l0 2.703125l-0.9375 0zm0.84375 -4.859375q0 1.0625 0.4375 1.578125q0.4375 0.515625 1.046875 0.515625q0.625 0 1.0625 -0.53125q0.453125 -0.53125 0.453125 -1.640625q0 -1.046875 -0.4375 -1.578125q-0.4375 -0.53125 -1.046875 -0.53125q-0.59375 0 -1.0625 0.5625q-0.453125 0.5625 -0.453125 1.625zm5.0827637 2.734375l0 -7.625l0.9375 0l0 2.734375q0.65625 -0.765625 1.65625 -0.765625q0.609375 0 1.0625 0.25q0.453125 0.234375 0.640625 0.671875q0.203125 0.421875 0.203125 1.234375l0 3.5l-0.9375 0l0 -3.5q0 -0.703125 -0.3125 -1.015625q-0.296875 -0.328125 -0.859375 -0.328125q-0.40625 0 -0.78125 0.21875q-0.359375 0.21875 -0.515625 0.59375q-0.15625 0.359375 -0.15625 1.015625l0 3.015625l-0.9375 0zm5.9265137 0l0 -5.53125l0.84375 0l0 0.78125q0.25 -0.40625 0.6875 -0.65625q0.4375 -0.25 0.984375 -0.25q0.609375 0 1.0 0.265625q0.390625 0.25 0.5625 0.703125q0.65625 -0.96875 1.703125 -0.96875q0.828125 0 1.265625 0.46875q0.4375 0.453125 0.4375 1.390625l0 3.796875l-0.921875 0l0 -3.484375q0 -0.5625 -0.09375 -0.796875q-0.09375 -0.25 -0.34375 -0.40625q-0.234375 -0.15625 -0.546875 -0.15625q-0.59375 0 -0.984375 0.390625q-0.375 0.390625 -0.375 1.25l0 3.203125l-0.9375 0l0 -3.59375q0 -0.625 -0.234375 -0.9375q-0.21875 -0.3125 -0.75 -0.3125q-0.390625 0 -0.734375 0.21875q-0.328125 0.203125 -0.484375 0.609375q-0.140625 0.390625 -0.140625 1.15625l0 2.859375l-0.9375 0zm12.501709 0l0 -0.8125q-0.65625 0.9375 -1.75 0.9375q-0.5 0 -0.921875 -0.1875q-0.421875 -0.1875 -0.625 -0.46875q-0.203125 -0.28125 -0.296875 -0.703125q-0.046875 -0.265625 -0.046875 -0.875l0 -3.421875l0.9375 0l0 3.0625q0 0.734375 0.046875 1.0q0.09375 0.359375 0.375 0.578125q0.296875 0.203125 0.703125 0.203125q0.421875 0 0.796875 -0.203125q0.375 -0.21875 0.515625 -0.59375q0.15625 -0.375 0.15625 -1.078125l0 -2.96875l0.9375 0l0 5.53125l-0.828125 0zm2.3015137 -6.546875l0 -1.078125l0.9375 0l0 1.078125l-0.9375 0zm0 6.546875l0 -5.53125l0.9375 0l0 5.53125l-0.9375 0zm5.9768677 -0.6875q-0.53125 0.453125 -1.015625 0.640625q-0.46875 0.171875 -1.015625 0.171875q-0.921875 0 -1.40625 -0.4375q-0.484375 -0.453125 -0.484375 -1.140625q0 -0.40625 0.171875 -0.734375q0.1875 -0.34375 0.484375 -0.546875q0.3125 -0.203125 0.6875 -0.3125q0.265625 -0.0625 0.828125 -0.140625q1.125 -0.125 1.671875 -0.3125q0 -0.203125 0 -0.25q0 -0.578125 -0.265625 -0.8125q-0.359375 -0.3125 -1.0625 -0.3125q-0.65625 0 -0.984375 0.234375q-0.3125 0.234375 -0.453125 0.8125l-0.921875 -0.125q0.125 -0.578125 0.40625 -0.9375q0.296875 -0.375 0.828125 -0.5625q0.546875 -0.203125 1.25 -0.203125q0.71875 0 1.15625 0.171875q0.4375 0.171875 0.640625 0.421875q0.21875 0.25 0.296875 0.640625q0.046875 0.234375 0.046875 0.859375l0 1.25q0 1.296875 0.0625 1.65625q0.0625 0.34375 0.234375 0.65625l-0.96875 0q-0.15625 -0.296875 -0.1875 -0.6875zm-0.078125 -2.078125q-0.515625 0.203125 -1.53125 0.34375q-0.578125 0.078125 -0.828125 0.1875q-0.234375 0.109375 -0.359375 0.3125q-0.125 0.1875 -0.125 0.4375q0 0.375 0.28125 0.625q0.28125 0.25 0.828125 0.25q0.53125 0 0.953125 -0.234375q0.421875 -0.234375 0.625 -0.65625q0.15625 -0.3125 0.15625 -0.9375l0 -0.328125z" fill-rule="nonzero"/><path fill="#000000" fill-opacity="0.0" d="m97.87139 174.33858c0 21.325562 47.314964 36.828278 94.62992 42.651108c47.314957 5.82283 94.62991 1.9657898 94.62991 3.9315796" fill-rule="evenodd"/><path stroke="#000000" stroke-width="1.0" stroke-linejoin="round" stroke-linecap="butt" d="m97.87139 174.33858c0 21.325546 47.314964 36.828278 94.62992 42.651108c23.657486 2.9114227 47.314957 3.4028625 65.058075 3.4121704c8.8715515 0.0046539307 16.264526 -0.11122131 21.439575 -0.105392456c0.6468811 7.4768066E-4 1.2591248 0.0033721924 1.8352661 0.008361816l0.32836914 0.0036773682" fill-rule="evenodd"/><path fill="#000000" stroke="#000000" stroke-width="1.0" stroke-linecap="butt" d="m280.99393 221.95158l4.6830444 -1.1796265l-4.3456726 -2.1065521z" fill-rule="evenodd"/><path fill="#000000" fill-opacity="0.0" d="m287.1181 220.90552c0 12.5 42.204742 24.992126 84.409454 25.0c42.204712 0.007873535 84.409454 -12.468506 84.409454 -24.937012" fill-rule="evenodd"/><path stroke="#000000" stroke-width="1.0" stroke-linejoin="round" stroke-linecap="butt" d="m289.67847 226.3318l0.09136963 0.0987854c0.09063721 0.0954895 0.18344116 0.19087219 0.27844238 0.2861328c0.37994385 0.38102722 0.79467773 0.7601471 1.2428894 1.1369781c0.89645386 0.75364685 1.9268494 1.4981232 3.0808716 2.2303925c4.61615 2.9290771 11.210632 5.6627045 19.124023 8.005966c15.826782 4.6865234 36.92914 7.8115234 58.031494 7.81546c21.102356 0.0039367676 42.204712 -3.1131897 58.031494 -7.789871c7.913391 -2.3383331 14.507874 -5.066559 19.124023 -7.9894714c1.1540222 -0.73072815 2.1844177 -1.4736328 3.0808716 -2.225647c0.44821167 -0.37602234 0.86294556 -0.754303 1.2428894 -1.134491c0.09500122 -0.095047 0.18780518 -0.19021606 0.27844238 -0.28549194l0.08312988 -0.0896759" fill-rule="evenodd"/><path stroke="#000000" stroke-width="1.0" stroke-linecap="butt" d="m291.17227 225.62695l-3.4303284 -3.3993225l0.44274902 4.8090057z" fill-rule="evenodd"/><path fill="#000000" stroke="#000000" stroke-width="1.0" stroke-linecap="butt" d="m454.8611 227.09799l0.45004272 -4.808319l-3.4354858 3.3940887z" fill-rule="evenodd"/><path fill="#000000" fill-opacity="0.0" d="m287.1181 220.90552c0 21.143036 82.102356 42.2782 164.20474 42.28607c82.102325 0.007873535 164.20474 -21.111542 164.20474 -42.223083" fill-rule="evenodd"/><path stroke="#000000" stroke-width="1.0" stroke-linejoin="round" stroke-linecap="butt" d="m289.04587 226.58739l8.544922E-4 0.0013427734c0.05505371 0.08190918 0.11123657 0.16378784 0.16854858 0.24565125c0.4584961 0.6548767 0.98968506 1.3078003 1.5910339 1.9581451c2.405365 2.6013947 5.9331665 5.1614227 10.423157 7.638809c8.97995 4.954773 21.808441 9.579086 37.202637 13.542908c30.78836 7.9276733 71.83957 13.213409 112.89075 13.217346c41.051178 0.0039367676 82.102325 -5.273926 112.89072 -13.191757c15.394226 -3.958908 28.222717 -8.577789 37.202637 -13.526428c4.48999 -2.4743042 8.017822 -5.031067 10.423157 -7.6289825c0.60131836 -0.6494751 1.1325073 -1.3015289 1.5910645 -1.9555054l0.16491699 -0.24005127" fill-rule="evenodd"/><path stroke="#000000" stroke-width="1.0" stroke-linecap="butt" d="m290.61002 226.0567l-3.0222168 -3.7668l-0.1060791 4.828186z" fill-rule="evenodd"/><path fill="#000000" stroke="#000000" stroke-width="1.0" stroke-linecap="butt" d="m615.15906 227.18079l-0.10229492 -4.8282623l-3.0252075 3.7644043z" fill-rule="evenodd"/><path fill="#000000" fill-opacity="0.0" d="m287.1181 220.90552c0 33.227036 123.275604 66.4462 246.55121 66.45407c123.27557 0.007873535 246.55115 -33.19554 246.55115 -66.39108" fill-rule="evenodd"/><path stroke="#000000" stroke-width="1.0" stroke-linejoin="round" stroke-linecap="butt" d="m288.37723 226.77193l0.15542603 0.3554535c0.9329834 2.0685272 2.3174438 4.1289215 4.12323 6.1730347c3.6115723 4.0883026 8.9086 8.111618 15.6502075 12.005096c13.483276 7.786972 32.745087 15.054657 55.859253 21.28421c46.228363 12.4591675 107.86615 20.76593 169.50397 20.769867c61.637756 0.0039367676 123.27557 -8.294952 169.5039 -20.744263c23.114197 -6.2246704 42.375977 -13.486923 55.859253 -21.267746c6.741638 -3.890396 12.038635 -7.910446 15.650269 -11.9952545c1.8057861 -2.0424042 3.1901855 -4.101013 4.123169 -6.167679l0.15332031 -0.35020447" fill-rule="evenodd"/><path stroke="#000000" stroke-width="1.0" stroke-linecap="butt" d="m289.99216 226.4253l-2.5672607 -4.0904236l-0.6626282 4.783661z" fill-rule="evenodd"/><path fill="#000000" stroke="#000000" stroke-width="1.0" stroke-linecap="butt" d="m780.57404 227.18166l-0.6608887 -4.7839203l-2.5687866 4.089493z" fill-rule="evenodd"/><path fill="#000000" fill-opacity="0.0" d="m287.1181 220.90552c0 12.491531 -47.314957 30.801987 -94.62991 24.983078c-47.314957 -5.8188934 -94.62992 -35.767136 -94.62992 -71.53427" fill-rule="evenodd"/><path stroke="#000000" stroke-width="1.0" stroke-linejoin="round" stroke-linecap="butt" d="m287.1181 220.90552c0 12.491547 -47.314957 30.801971 -94.62991 24.983078c-23.657486 -2.9094543 -47.314957 -11.851242 -65.058075 -24.536545c-8.8715515 -6.3426666 -16.264511 -13.621185 -21.43959 -21.549515c-2.587532 -3.964157 -4.620598 -8.090759 -6.0067825 -12.344055c-0.69309235 -2.126648 -1.2244492 -4.284958 -1.5825577 -6.4704742c-0.022377014 -0.13658142 -0.04408264 -0.27330017 -0.06510162 -0.41011047l-0.03565216 -0.23988342" fill-rule="evenodd"/><path fill="#000000" stroke="#000000" stroke-width="1.0" stroke-linecap="butt" d="m99.94768 180.2163l-1.9816742 -4.4040375l-1.3128128 4.647476z" fill-rule="evenodd"/><path fill="#cfe2f3" d="m166.31496 210.67061l0 0c0 -6.905731 5.5982056 -12.503937 12.503937 -12.503937l0 0c3.3162537 0 6.4966736 1.3173676 8.841629 3.6623077c2.3449402 2.3449554 3.6623077 5.5253754 3.6623077 8.841629l0 0c0 6.905731 -5.5982056 12.503937 -12.503937 12.503937l0 0c-6.905731 0 -12.503937 -5.5982056 -12.503937 -12.503937z" fill-rule="evenodd"/><path stroke="#000000" stroke-width="1.0" stroke-linejoin="round" stroke-linecap="butt" d="m166.31496 210.67061l0 0c0 -6.905731 5.5982056 -12.503937 12.503937 -12.503937l0 0c3.3162537 0 6.4966736 1.3173676 8.841629 3.6623077c2.3449402 2.3449554 3.6623077 5.5253754 3.6623077 8.841629l0 0c0 6.905731 -5.5982056 12.503937 -12.503937 12.503937l0 0c-6.905731 0 -12.503937 -5.5982056 -12.503937 -12.503937z" fill-rule="evenodd"/><path fill="#000000" d="m183.62927 215.4706l-1.171875 0l0 -7.46875q-0.421875 0.40625 -1.109375 0.8125q-0.6875 0.40625 -1.234375 0.609375l0 -1.140625q0.984375 -0.453125 1.71875 -1.109375q0.734375 -0.671875 1.03125 -1.28125l0.765625 0l0 9.578125z" fill-rule="nonzero"/><path fill="#cfe2f3" d="m370.11285 242.04855l0 0c0 -6.905731 5.5982056 -12.503937 12.503937 -12.503937l0 0c3.3162537 0 6.4966736 1.3173828 8.841614 3.662323c2.3449402 2.3449402 3.662323 5.52536 3.662323 8.841614l0 0c0 6.905731 -5.5982056 12.503937 -12.503937 12.503937l0 0c-6.905731 0 -12.503937 -5.5982056 -12.503937 -12.503937z" fill-rule="evenodd"/><path stroke="#000000" stroke-width="1.0" stroke-linejoin="round" stroke-linecap="butt" d="m370.11285 242.04855l0 0c0 -6.905731 5.5982056 -12.503937 12.503937 -12.503937l0 0c3.3162537 0 6.4966736 1.3173828 8.841614 3.662323c2.3449402 2.3449402 3.662323 5.52536 3.662323 8.841614l0 0c0 6.905731 -5.5982056 12.503937 -12.503937 12.503937l0 0c-6.905731 0 -12.503937 -5.5982056 -12.503937 -12.503937z" fill-rule="evenodd"/><path fill="#000000" d="m389.16153 245.72356l0 1.125l-6.296875 0q-0.015625 -0.421875 0.140625 -0.8125q0.234375 -0.640625 0.765625 -1.265625q0.53125 -0.625 1.53125 -1.453125q1.5625 -1.265625 2.109375 -2.015625q0.546875 -0.75 0.546875 -1.40625q0 -0.703125 -0.5 -1.171875q-0.5 -0.484375 -1.296875 -0.484375q-0.859375 0 -1.375 0.515625q-0.5 0.5 -0.5 1.390625l-1.203125 -0.109375q0.125 -1.359375 0.921875 -2.0625q0.8125 -0.703125 2.171875 -0.703125q1.375 0 2.171875 0.765625q0.8125 0.75 0.8125 1.875q0 0.578125 -0.234375 1.140625q-0.234375 0.546875 -0.78125 1.15625q-0.546875 0.609375 -1.8125 1.671875q-1.046875 0.890625 -1.359375 1.21875q-0.296875 0.3125 -0.484375 0.625l4.671875 0z" fill-rule="nonzero"/><path fill="#cfe2f3" d="m478.11548 258.40945l0 0c0 -6.9057465 5.5982056 -12.503937 12.503937 -12.503937l0 0c3.3162537 0 6.4966736 1.3173676 8.841614 3.6623077c2.3449402 2.3449554 3.662323 5.5253754 3.662323 8.841629l0 0c0 6.905731 -5.5982056 12.503937 -12.503937 12.503937l0 0c-6.905731 0 -12.503937 -5.5982056 -12.503937 -12.503937z" fill-rule="evenodd"/><path stroke="#000000" stroke-width="1.0" stroke-linejoin="round" stroke-linecap="butt" d="m478.11548 258.40945l0 0c0 -6.9057465 5.5982056 -12.503937 12.503937 -12.503937l0 0c3.3162537 0 6.4966736 1.3173676 8.841614 3.6623077c2.3449402 2.3449554 3.662323 5.5253754 3.662323 8.841629l0 0c0 6.905731 -5.5982056 12.503937 -12.503937 12.503937l0 0c-6.905731 0 -12.503937 -5.5982056 -12.503937 -12.503937z" fill-rule="evenodd"/><path fill="#000000" d="m491.02353 260.69382l1.171875 -0.15625q0.203125 1.0 0.6875 1.4375q0.484375 0.4375 1.171875 0.4375q0.828125 0 1.390625 -0.578125q0.578125 -0.578125 0.578125 -1.421875q0 -0.796875 -0.53125 -1.3125q-0.515625 -0.53125 -1.328125 -0.53125q-0.34375 0 -0.828125 0.125l0.125 -1.03125q0.125 0.015625 0.1875 0.015625q0.75 0 1.34375 -0.390625q0.609375 -0.390625 0.609375 -1.203125q0 -0.640625 -0.4375 -1.0625q-0.4375 -0.421875 -1.125 -0.421875q-0.6875 0 -1.140625 0.4375q-0.453125 0.421875 -0.59375 1.28125l-1.171875 -0.21875q0.21875 -1.171875 0.984375 -1.8125q0.765625 -0.65625 1.890625 -0.65625q0.78125 0 1.4375 0.34375q0.65625 0.328125 1.0 0.90625q0.359375 0.578125 0.359375 1.234375q0 0.609375 -0.34375 1.125q-0.328125 0.5 -0.96875 0.796875q0.84375 0.203125 1.3125 0.828125q0.46875 0.609375 0.46875 1.53125q0 1.25 -0.921875 2.125q-0.90625 0.859375 -2.296875 0.859375q-1.25 0 -2.09375 -0.75q-0.828125 -0.75 -0.9375 -1.9375z" fill-rule="nonzero"/><path fill="#cfe2f3" d="m566.61945 286.49344l0 0c0 -6.905731 5.5982056 -12.503937 12.503906 -12.503937l0 0c3.3162842 0 6.496704 1.3173828 8.841614 3.662323c2.3449707 2.3449402 3.6623535 5.52536 3.6623535 8.841614l0 0c0 6.905731 -5.5982056 12.503937 -12.503967 12.503937l0 0c-6.9057007 0 -12.503906 -5.5982056 -12.503906 -12.503937z" fill-rule="evenodd"/><path stroke="#000000" stroke-width="1.0" stroke-linejoin="round" stroke-linecap="butt" d="m566.61945 286.49344l0 0c0 -6.905731 5.5982056 -12.503937 12.503906 -12.503937l0 0c3.3162842 0 6.496704 1.3173828 8.841614 3.662323c2.3449707 2.3449402 3.6623535 5.52536 3.6623535 8.841614l0 0c0 6.905731 -5.5982056 12.503937 -12.503967 12.503937l0 0c-6.9057007 0 -12.503906 -5.5982056 -12.503906 -12.503937z" fill-rule="evenodd"/><path fill="#000000" d="m583.27747 291.29343l0 -2.28125l-4.140625 0l0 -1.078125l4.34375 -6.1875l0.96875 0l0 6.1875l1.28125 0l0 1.078125l-1.28125 0l0 2.28125l-1.171875 0zm0 -3.359375l0 -4.296875l-2.984375 4.296875l2.984375 0z" fill-rule="nonzero"/><path fill="#cfe2f3" d="m166.31496 242.04987l0 0c0 -6.905731 5.5982056 -12.503937 12.503937 -12.503937l0 0c3.3162537 0 6.4966736 1.3173828 8.841629 3.662323c2.3449402 2.3449402 3.6623077 5.52536 3.6623077 8.841614l0 0c0 6.905731 -5.5982056 12.503937 -12.503937 12.503937l0 0c-6.905731 0 -12.503937 -5.5982056 -12.503937 -12.503937z" fill-rule="evenodd"/><path stroke="#000000" stroke-width="1.0" stroke-linejoin="round" stroke-linecap="butt" d="m166.31496 242.04987l0 0c0 -6.905731 5.5982056 -12.503937 12.503937 -12.503937l0 0c3.3162537 0 6.4966736 1.3173828 8.841629 3.662323c2.3449402 2.3449402 3.6623077 5.52536 3.6623077 8.841614l0 0c0 6.905731 -5.5982056 12.503937 -12.503937 12.503937l0 0c-6.905731 0 -12.503937 -5.5982056 -12.503937 -12.503937z" fill-rule="evenodd"/><path fill="#000000" d="m179.2074 244.34987l1.234375 -0.109375q0.140625 0.90625 0.640625 1.359375q0.5 0.453125 1.203125 0.453125q0.84375 0 1.421875 -0.640625q0.59375 -0.640625 0.59375 -1.6875q0 -1.0 -0.5625 -1.578125q-0.5625 -0.59375 -1.484375 -0.59375q-0.5625 0 -1.015625 0.265625q-0.453125 0.25 -0.71875 0.671875l-1.09375 -0.15625l0.921875 -4.890625l4.75 0l0 1.109375l-3.8125 0l-0.515625 2.5625q0.859375 -0.59375 1.796875 -0.59375q1.25 0 2.109375 0.875q0.859375 0.859375 0.859375 2.21875q0 1.296875 -0.75 2.234375q-0.921875 1.15625 -2.5 1.15625q-1.3125 0 -2.140625 -0.71875q-0.8125 -0.734375 -0.9375 -1.9375z" fill-rule="nonzero"/><path fill="#000000" fill-opacity="0.0" d="m133.79527 254.5538l90.04724 0l0 17.763794l-90.04724 0z" fill-rule="evenodd"/><path fill="#000000" d="m147.76402 268.2357l-1.171875 0l0 -7.46875q-0.421875 0.40625 -1.109375 0.8125q-0.6875 0.40625 -1.234375 0.609375l0 -1.140625q0.984375 -0.453125 1.71875 -1.109375q0.734375 -0.671875 1.03125 -1.28125l0.765625 0l0 9.578125zm3.1781006 -2.203125l1.125 -0.109375q0.140625 0.796875 0.546875 1.15625q0.40625 0.359375 1.03125 0.359375q0.53125 0 0.9375 -0.25q0.421875 -0.25 0.671875 -0.65625q0.265625 -0.421875 0.4375 -1.125q0.171875 -0.703125 0.171875 -1.421875q0 -0.078125 0 -0.234375q-0.359375 0.546875 -0.96875 0.90625q-0.59375 0.34375 -1.3125 0.34375q-1.1875 0 -2.015625 -0.859375q-0.8125 -0.859375 -0.8125 -2.265625q0 -1.453125 0.859375 -2.328125q0.859375 -0.890625 2.140625 -0.890625q0.9375 0 1.703125 0.5q0.78125 0.5 1.171875 1.4375q0.40625 0.921875 0.40625 2.671875q0 1.828125 -0.40625 2.921875q-0.390625 1.078125 -1.171875 1.640625q-0.78125 0.5625 -1.84375 0.5625q-1.109375 0 -1.828125 -0.609375q-0.703125 -0.625 -0.84375 -1.75zm4.796875 -4.21875q0 -1.0 -0.546875 -1.59375q-0.53125 -0.59375 -1.28125 -0.59375q-0.78125 0 -1.375 0.640625q-0.578125 0.640625 -0.578125 1.65625q0 0.90625 0.546875 1.484375q0.5625 0.5625 1.359375 0.5625q0.828125 0 1.34375 -0.5625q0.53125 -0.578125 0.53125 -1.59375zm8.584351 5.296875l0 1.125l-6.296875 0q-0.015625 -0.421875 0.140625 -0.8125q0.234375 -0.640625 0.765625 -1.265625q0.53125 -0.625 1.53125 -1.453125q1.5625 -1.265625 2.109375 -2.015625q0.546875 -0.75 0.546875 -1.40625q0 -0.703125 -0.5 -1.171875q-0.5 -0.484375 -1.296875 -0.484375q-0.859375 0 -1.375 0.515625q-0.5 0.5 -0.5 1.390625l-1.203125 -0.109375q0.125 -1.359375 0.921875 -2.0625q0.8125 -0.703125 2.171875 -0.703125q1.375 0 2.171875 0.765625q0.8125 0.75 0.8125 1.875q0 0.578125 -0.234375 1.140625q-0.234375 0.546875 -0.78125 1.15625q-0.546875 0.609375 -1.8125 1.671875q-1.046875 0.890625 -1.359375 1.21875q-0.296875 0.3125 -0.484375 0.625l4.671875 0zm1.9124756 1.125l0 -1.328125l1.34375 0l0 1.328125l-1.34375 0zm7.4686127 0l-1.171875 0l0 -7.46875q-0.421875 0.40625 -1.109375 0.8125q-0.6875 0.40625 -1.234375 0.609375l0 -1.140625q0.984375 -0.453125 1.71875 -1.109375q0.734375 -0.671875 1.03125 -1.28125l0.765625 0l0 9.578125zm9.068726 -7.203125l-1.15625 0.09375q-0.15625 -0.6875 -0.4375 -1.0q-0.484375 -0.5 -1.171875 -0.5q-0.5625 0 -0.984375 0.3125q-0.5625 0.390625 -0.890625 1.171875q-0.3125 0.765625 -0.3125 2.203125q0.421875 -0.640625 1.03125 -0.953125q0.609375 -0.3125 1.28125 -0.3125q1.171875 0 1.984375 0.859375q0.828125 0.859375 0.828125 2.234375q0 0.890625 -0.390625 1.671875q-0.375 0.765625 -1.0625 1.171875q-0.671875 0.40625 -1.53125 0.40625q-1.46875 0 -2.390625 -1.0625q-0.921875 -1.078125 -0.921875 -3.5625q0 -2.765625 1.015625 -4.015625q0.90625 -1.09375 2.40625 -1.09375q1.125 0 1.84375 0.640625q0.71875 0.625 0.859375 1.734375zm-4.78125 4.109375q0 0.609375 0.25 1.171875q0.265625 0.546875 0.71875 0.84375q0.46875 0.28125 0.984375 0.28125q0.734375 0 1.265625 -0.59375q0.546875 -0.609375 0.546875 -1.640625q0 -0.984375 -0.53125 -1.546875q-0.53125 -0.578125 -1.328125 -0.578125q-0.796875 0 -1.359375 0.578125q-0.546875 0.5625 -0.546875 1.484375zm7.9281006 -2.078125q-0.734375 -0.265625 -1.09375 -0.765625q-0.34375 -0.5 -0.34375 -1.1875q0 -1.03125 0.75 -1.734375q0.75 -0.71875 1.984375 -0.71875q1.25 0 2.015625 0.734375q0.765625 0.71875 0.765625 1.75q0 0.671875 -0.359375 1.171875q-0.34375 0.484375 -1.046875 0.75q0.875 0.28125 1.328125 0.921875q0.46875 0.640625 0.46875 1.515625q0 1.234375 -0.875 2.0625q-0.859375 0.828125 -2.265625 0.828125q-1.421875 0 -2.28125 -0.828125q-0.859375 -0.84375 -0.859375 -2.09375q0 -0.921875 0.46875 -1.546875q0.46875 -0.640625 1.34375 -0.859375zm-0.234375 -1.984375q0 0.671875 0.4375 1.109375q0.4375 0.421875 1.125 0.421875q0.671875 0 1.109375 -0.421875q0.4375 -0.421875 0.4375 -1.046875q0 -0.640625 -0.453125 -1.078125q-0.4375 -0.4375 -1.109375 -0.4375q-0.671875 0 -1.109375 0.4375q-0.4375 0.421875 -0.4375 1.015625zm-0.375 4.40625q0 0.5 0.234375 0.96875q0.234375 0.46875 0.703125 0.734375q0.46875 0.25 1.015625 0.25q0.828125 0 1.375 -0.53125q0.546875 -0.546875 0.546875 -1.390625q0 -0.84375 -0.5625 -1.390625q-0.5625 -0.5625 -1.40625 -0.5625q-0.828125 0 -1.375 0.546875q-0.53125 0.546875 -0.53125 1.375zm6.8656006 2.75l0 -1.328125l1.34375 0l0 1.328125l-1.34375 0zm3.0467377 -4.703125q0 -1.6875 0.34375 -2.71875q0.359375 -1.03125 1.046875 -1.59375q0.6875 -0.5625 1.71875 -0.5625q0.78125 0 1.359375 0.3125q0.578125 0.296875 0.953125 0.890625q0.375 0.578125 0.59375 1.421875q0.21875 0.828125 0.21875 2.25q0 1.671875 -0.359375 2.703125q-0.34375 1.03125 -1.03125 1.59375q-0.671875 0.5625 -1.734375 0.5625q-1.375 0 -2.15625 -0.984375q-0.953125 -1.1875 -0.953125 -3.875zm1.203125 0q0 2.34375 0.546875 3.125q0.5625 0.78125 1.359375 0.78125q0.8125 0 1.359375 -0.78125q0.5625 -0.78125 0.5625 -3.125q0 -2.359375 -0.5625 -3.125q-0.546875 -0.78125 -1.359375 -0.78125q-0.8125 0 -1.296875 0.6875q-0.609375 0.875 -0.609375 3.21875zm6.8656006 4.703125l0 -1.328125l1.34375 0l0 1.328125l-1.34375 0zm9.124863 -7.203125l-1.15625 0.09375q-0.15625 -0.6875 -0.4375 -1.0q-0.484375 -0.5 -1.171875 -0.5q-0.5625 0 -0.984375 0.3125q-0.5625 0.390625 -0.890625 1.171875q-0.3125 0.765625 -0.3125 2.203125q0.421875 -0.640625 1.03125 -0.953125q0.609375 -0.3125 1.28125 -0.3125q1.171875 0 1.984375 0.859375q0.828125 0.859375 0.828125 2.234375q0 0.890625 -0.390625 1.671875q-0.375 0.765625 -1.0625 1.171875q-0.671875 0.40625 -1.53125 0.40625q-1.46875 0 -2.390625 -1.0625q-0.921875 -1.078125 -0.921875 -3.5625q0 -2.765625 1.015625 -4.015625q0.90625 -1.09375 2.40625 -1.09375q1.125 0 1.84375 0.640625q0.71875 0.625 0.859375 1.734375zm-4.78125 4.109375q0 0.609375 0.25 1.171875q0.265625 0.546875 0.71875 0.84375q0.46875 0.28125 0.984375 0.28125q0.734375 0 1.265625 -0.59375q0.546875 -0.609375 0.546875 -1.640625q0 -0.984375 -0.53125 -1.546875q-0.53125 -0.578125 -1.328125 -0.578125q-0.796875 0 -1.359375 0.578125q-0.546875 0.5625 -0.546875 1.484375z" fill-rule="nonzero"/></g></svg>